M48
;GenerationSoftware,Autodesk,EAGLE,9.2.2*%
;CreationDate,2018-12-31T11:02:29Z*%
FMAT,2
ICI,OFF
METRIC,TZ,000.000
T9C0.200
T8C0.300
T7C0.305
T6C0.350
T5C0.400
T4C0.813
T3C1.016
T2C1.500
T1C3.500
%
G90
M71
T1
X49000Y169000
T2
X37272Y166506
X37272Y160506
T3
X35270Y74730
X32730Y74730
X35270Y77270
X32730Y77270
X80844Y80335
X78304Y80335
X78301Y85047
X78301Y87587
X78301Y90127
T4
X81492Y96201
X78952Y96201
T5
X77912Y103128
X77912Y113288
X77912Y123448
X77912Y129798
X77912Y119638
X77912Y109478
X32782Y109458
X32782Y119618
X32782Y129778
X29746Y148212
X31019Y154565
X70292Y119638
X44892Y114558
X44892Y103128
X58862Y159008
X53782Y159008
X57592Y151388
X57592Y104398
X44640Y151538
X44892Y148848
X47432Y145038
X74707Y133608
X30047Y152231
X38951Y156147
X49972Y87888
X57592Y114558
X56987Y132338
X38542Y145038
X80452Y153928
X44892Y132338
X30922Y145038
X35208Y158969
X42352Y159008
X32192Y139958
X41082Y157738
X36002Y148848
X55052Y136148
X53321Y72385
X68929Y165016
X70292Y162818
X74102Y161548
X74102Y151918
X74102Y129798
X71562Y122178
X69022Y99318
X63942Y100588
X67752Y119638
X67752Y129798
X68885Y153791
X65212Y92968
X72832Y125988
X71562Y160278
X75372Y157738
X55013Y67529
X51242Y70108
X35000Y81000
X62672Y155198
X58862Y146308
X61402Y155198
X57592Y152658
X60132Y146308
X60132Y150118
X61402Y159008
X55052Y153928
X61402Y160278
X55052Y155198
X68386Y150695
X72186Y150069
X69476Y150708
X73482Y150280
X49972Y155620
X49972Y152658
X49302Y156418
X47432Y151388
X77912Y165358
X59262Y120158
X56322Y141228
X38542Y139958
X66482Y156468
X67752Y159008
X67752Y157738
X75372Y155198
X60926Y142498
X56322Y142498
X37272Y137418
X36002Y132338
X34732Y136148
X74102Y114558
X75372Y124718
X75372Y129798
X75372Y159008
X32782Y125968
X55052Y125988
X58862Y122178
X69022Y112018
X37862Y127238
X56322Y128528
X58862Y128528
X79182Y127258
X31512Y96758
X51178Y107012
X38542Y104398
X53782Y66298
X51242Y67568
X41082Y72648
X48702Y95508
X67521Y105264
X66962Y120992
X69022Y125988
X65212Y128528
X77912Y125988
X61402Y128528
X57592Y85348
X55687Y122813
X45000Y83000
X43000Y84000
X41000Y83000
X60132Y128528
X56322Y85348
X53530Y120908
X51907Y83059
X43000Y85000
X40000Y83000
X56322Y87888
X62672Y128528
X53782Y67568
X51242Y68838
X57592Y146308
X52512Y92968
X47432Y94238
X47432Y89158
X46700Y99983
X51700Y95200
X56322Y64828
X52512Y66013
X56322Y56138
X57800Y74374
X53950Y74381
X51336Y75094
X65242Y74728
X66482Y62488
X71562Y45978
X46162Y63758
X48702Y25658
X42352Y48518
X51242Y159008
X46162Y157738
X55052Y146308
X33692Y152158
X55052Y132338
X33692Y149618
X56322Y146308
X33692Y150888
X33462Y143768
X30504Y143478
X39812Y92968
X49972Y100588
X57570Y72669
X56302Y65818
X71562Y156468
X42082Y86348
X52512Y89158
X63942Y90428
X75372Y150118
X43622Y99318
X31512Y90408
X31512Y98028
X32782Y113268
X32782Y103108
X32782Y123428
X59467Y147046
X64335Y129828
X63960Y128515
X66039Y117035
X64527Y113914
X65060Y111815
X69632Y107760
X64741Y121872
T6
X69959Y151563
X62686Y143847
X62686Y153377
X71642Y152450
X70017Y152436
X71710Y151436
T7
X48702Y92968
T8
X78040Y23351
X78040Y38591
X78040Y39861
X78040Y24621
X79310Y38591
X80580Y38591
X81850Y38591
X83120Y38591
X83120Y39861
X83120Y41131
X80580Y39861
X78040Y43671
X79310Y43671
X80580Y43671
X81850Y43671
X83120Y43671
X78040Y44941
X78040Y46211
X79310Y46211
X80580Y44941
X80580Y46211
X81850Y46211
X83120Y47481
X78040Y41131
X78040Y25891
X80580Y34781
X78040Y36051
X78040Y34781
X45780Y18787
X47050Y17517
X48320Y18787
X47050Y16247
X47050Y14977
X40700Y18787
X40700Y17517
X40700Y16247
X40700Y14977
X41970Y14977
X43240Y14977
X50860Y18787
X50860Y17517
X50860Y16247
X50860Y14977
X52130Y14977
X53400Y14977
X53400Y16247
X53400Y17517
X53400Y18787
X45780Y20057
X48320Y20057
X50860Y20057
X52130Y20057
X53400Y20057
X52130Y17517
X43240Y20057
X41970Y20057
X40700Y20057
X55940Y20057
X57210Y20057
X58480Y20057
X55940Y18787
X55940Y17517
X55940Y16247
X55940Y14977
X57210Y14977
X58480Y14977
X57210Y17517
X61020Y20057
X61020Y18787
X61020Y17517
X61020Y16247
X61020Y14977
X62290Y20057
X63560Y20057
X63560Y18787
X62290Y17517
X63560Y17517
X63560Y16247
X64830Y14977
X78040Y33511
X78040Y30971
X78040Y28431
X79310Y36051
X80580Y36051
X81850Y36051
X83120Y36051
X83120Y34781
X83120Y33511
X81850Y33511
X61180Y11687
X62450Y10417
X63720Y11687
X62450Y9147
X62450Y7877
X56100Y11687
X56100Y10417
X56100Y9147
X56100Y7877
X57370Y7877
X58640Y7877
X66260Y11687
X66260Y10417
X66260Y9147
X66260Y7877
X67530Y7877
X68800Y7877
X68800Y9147
X68800Y10417
X68800Y11687
X61180Y12957
X63720Y12957
X66260Y12957
X67530Y12957
X68800Y12957
X67530Y10417
X58640Y12957
X57370Y12957
X56100Y12957
X71340Y12957
X72610Y12957
X73880Y12957
X71340Y11687
X71340Y10417
X71340Y9147
X71340Y7877
X72610Y7877
X73880Y7877
X72610Y10417
X76420Y12957
X76420Y11687
X76420Y10417
X76420Y9147
X76420Y7877
X77690Y12957
X78960Y12957
X78960Y11687
X77690Y10417
X78960Y10417
X78960Y9147
X80230Y7877
X79213Y56780
X80483Y58050
X79213Y59320
X81753Y58050
X83023Y58050
X79213Y51700
X80483Y51700
X81753Y51700
X83023Y51700
X83023Y52970
X83023Y54240
X79213Y61860
X80483Y61860
X81753Y61860
X83023Y61860
X83023Y63130
X83023Y64400
X81753Y64400
X80483Y64400
X79213Y64400
X77943Y56780
X77943Y59320
X77943Y61860
X77943Y63130
X77943Y64400
X80483Y63130
X77943Y54240
X77943Y52970
X77943Y51700
X77943Y66940
X77943Y68210
X77943Y69480
X79213Y66940
X80483Y66940
X81753Y66940
X83023Y66940
X83023Y68210
X83023Y69480
X80483Y68210
X77943Y72020
X79213Y72020
X80483Y72020
X81753Y72020
X83023Y72020
X77943Y73290
X77943Y74560
X79213Y74560
X80483Y73290
X80483Y74560
X81753Y74560
X83023Y75830
X80580Y33511
X79310Y33511
X83120Y25891
X83120Y24621
X83120Y23351
X81850Y23351
X80580Y23351
X79310Y23351
X83120Y29701
X81850Y29701
X79310Y30971
X80580Y29701
X79310Y28431
T9
X28475Y34097
M30