G04 EAGLE Gerber RS-274X export*
G75*
%MOMM*%
%FSLAX34Y34*%
%LPD*%
%IN*%
%IPPOS*%
%AMOC8*
5,1,8,0,0,1.08239X$1,22.5*%
G01*
%ADD10C,0.254000*%


D10*
X83958Y200586D02*
X85155Y190285D01*
X88655Y180763D01*
X94322Y172392D01*
X102021Y165545D01*
X103601Y156604D01*
X107078Y148205D01*
X107078Y91490D01*
X150427Y64758D01*
X825593Y64758D01*
X841849Y80291D01*
X855119Y85874D01*
X865646Y95419D01*
X872583Y107876D01*
X875084Y122196D01*
X873198Y134749D01*
X867859Y145948D01*
X859539Y155114D01*
X848713Y161571D01*
X862801Y175660D01*
X862801Y255134D01*
X883031Y275363D01*
X883031Y321603D01*
X887095Y331492D01*
X888450Y342194D01*
X887072Y352816D01*
X883121Y362694D01*
X876867Y371353D01*
X868581Y378318D01*
X873458Y389110D01*
X875084Y400715D01*
X873729Y411282D01*
X869665Y421306D01*
X869665Y570500D01*
X883392Y586395D01*
X883392Y626132D01*
X887456Y636021D01*
X888811Y646723D01*
X886926Y659124D01*
X881586Y670339D01*
X873266Y679590D01*
X862440Y686098D01*
X868943Y699826D01*
X887727Y717165D01*
X887727Y778938D01*
X850519Y821565D01*
X850519Y841433D01*
X861819Y847953D01*
X870478Y857283D01*
X876021Y868713D01*
X877974Y881532D01*
X876619Y892233D01*
X872555Y902123D01*
X872555Y983041D01*
X885921Y995685D01*
X885921Y1047343D01*
X889985Y1057232D01*
X891340Y1067934D01*
X890019Y1078709D01*
X886192Y1088570D01*
X880062Y1097144D01*
X871832Y1104058D01*
X885921Y1122843D01*
X885921Y1174862D01*
X859550Y1215321D01*
X885921Y1242776D01*
X885921Y1359458D01*
X890301Y1369708D01*
X891701Y1380771D01*
X890708Y1389808D01*
X887818Y1398337D01*
X876890Y1412922D01*
X876890Y1464219D01*
X885560Y1481559D01*
X885560Y1492035D01*
X889804Y1502466D01*
X891340Y1513709D01*
X889268Y1526788D01*
X883437Y1538409D01*
X874423Y1547796D01*
X862801Y1554169D01*
X866053Y1560671D01*
X885560Y1578733D01*
X885560Y1640145D01*
X844378Y1687107D01*
X787301Y1687107D01*
X775811Y1687126D01*
X763127Y1686833D01*
X752425Y1687018D01*
X742026Y1687084D01*
X693980Y1687084D01*
X691933Y1687107D01*
X539000Y1687107D01*
X538128Y1687145D01*
X537264Y1687259D01*
X536412Y1687447D01*
X535580Y1687710D01*
X534774Y1688044D01*
X534000Y1688446D01*
X533264Y1688915D01*
X532572Y1689446D01*
X531929Y1690036D01*
X531340Y1690679D01*
X530808Y1691371D01*
X530340Y1692107D01*
X529937Y1692881D01*
X529603Y1693687D01*
X529341Y1694519D01*
X529152Y1695370D01*
X529038Y1696235D01*
X529000Y1697107D01*
X529000Y1704000D01*
X528659Y1705819D01*
X528160Y1707601D01*
X527508Y1709333D01*
X526708Y1711002D01*
X525765Y1712594D01*
X524687Y1714098D01*
X523481Y1715503D01*
X522159Y1716797D01*
X520728Y1717971D01*
X519200Y1719015D01*
X517588Y1719923D01*
X515902Y1720687D01*
X514156Y1721300D01*
X512363Y1721760D01*
X510537Y1722061D01*
X508692Y1722202D01*
X506842Y1722182D01*
X505000Y1722000D01*
X473000Y1722000D01*
X471249Y1722098D01*
X469497Y1722043D01*
X467755Y1721836D01*
X466039Y1721478D01*
X464360Y1720971D01*
X462732Y1720321D01*
X461167Y1719530D01*
X459676Y1718606D01*
X458272Y1717556D01*
X456965Y1716388D01*
X455764Y1715110D01*
X454680Y1713732D01*
X453719Y1712265D01*
X452890Y1710720D01*
X452199Y1709108D01*
X451651Y1707443D01*
X451250Y1705736D01*
X451000Y1704000D01*
X451000Y1697107D01*
X450962Y1696235D01*
X450848Y1695370D01*
X450659Y1694519D01*
X450397Y1693687D01*
X450063Y1692881D01*
X449660Y1692107D01*
X449192Y1691371D01*
X448660Y1690679D01*
X448071Y1690036D01*
X447428Y1689446D01*
X446736Y1688915D01*
X446000Y1688446D01*
X445226Y1688044D01*
X444420Y1687710D01*
X443588Y1687447D01*
X442736Y1687259D01*
X441872Y1687145D01*
X441000Y1687107D01*
X231707Y1687107D01*
X220689Y1692164D01*
X208588Y1693970D01*
X197886Y1692616D01*
X187997Y1688552D01*
X139951Y1688552D01*
X101298Y1649537D01*
X101298Y1556697D01*
X121167Y1542248D01*
X109279Y1536022D01*
X100034Y1526579D01*
X94039Y1514765D01*
X91906Y1501427D01*
X93215Y1491222D01*
X96963Y1481559D01*
X96963Y1439293D01*
X121528Y1413645D01*
X121528Y1396305D01*
X113185Y1389486D01*
X106807Y1380771D01*
X102732Y1370702D01*
X101298Y1359819D01*
X102608Y1349614D01*
X106356Y1339951D01*
X106356Y1263728D01*
X92989Y1255420D01*
X92989Y1203039D01*
X88925Y1193150D01*
X87571Y1182448D01*
X90139Y1167773D01*
X97279Y1155265D01*
X108145Y1145872D01*
X121889Y1140544D01*
X121889Y1138376D01*
X113129Y1131400D01*
X106536Y1122662D01*
X102382Y1112570D01*
X100937Y1101529D01*
X102292Y1090828D01*
X106356Y1080939D01*
X106356Y989905D01*
X92989Y977623D01*
X92989Y910070D01*
X106356Y897426D01*
X106356Y829874D01*
X118999Y805670D01*
X102743Y789414D01*
X102743Y672371D01*
X95563Y659457D01*
X92989Y644916D01*
X94344Y634350D01*
X98408Y624326D01*
X98408Y598316D01*
X92188Y591514D01*
X87661Y583731D01*
X83958Y566165D01*
X85313Y555599D01*
X89377Y545574D01*
X89377Y451289D01*
X99853Y446232D01*
X96602Y442620D01*
X97686Y441536D01*
X94434Y432414D01*
X93351Y422751D01*
X94796Y411914D01*
X91544Y407940D01*
X91544Y355921D01*
X105272Y344000D01*
X105272Y328105D01*
X98408Y318352D01*
X98408Y267777D01*
X89377Y256940D01*
X89377Y221177D01*
X85313Y211288D01*
X83958Y200586D01*
X473020Y1619280D02*
X659020Y1619280D01*
X659020Y1661280D01*
X473020Y1661280D01*
X473020Y1619280D01*
X507500Y1689427D02*
X507425Y1688284D01*
X507276Y1687148D01*
X507052Y1686024D01*
X506755Y1684917D01*
X506387Y1683832D01*
X505949Y1682774D01*
X505442Y1681746D01*
X504869Y1680754D01*
X504232Y1679801D01*
X503535Y1678892D01*
X502779Y1678031D01*
X501969Y1677221D01*
X501108Y1676465D01*
X500199Y1675768D01*
X499246Y1675131D01*
X498254Y1674558D01*
X497226Y1674051D01*
X496168Y1673613D01*
X495083Y1673245D01*
X493976Y1672948D01*
X492852Y1672725D01*
X491716Y1672575D01*
X490573Y1672500D01*
X489427Y1672500D01*
X488284Y1672575D01*
X487148Y1672725D01*
X486024Y1672948D01*
X484917Y1673245D01*
X483832Y1673613D01*
X482774Y1674051D01*
X481746Y1674558D01*
X480754Y1675131D01*
X479801Y1675768D01*
X478892Y1676465D01*
X478031Y1677221D01*
X477221Y1678031D01*
X476465Y1678892D01*
X475768Y1679801D01*
X475131Y1680754D01*
X474558Y1681746D01*
X474051Y1682774D01*
X473613Y1683832D01*
X473245Y1684917D01*
X472948Y1686024D01*
X472725Y1687148D01*
X472575Y1688284D01*
X472500Y1689427D01*
X472500Y1690573D01*
X472575Y1691716D01*
X472725Y1692852D01*
X472948Y1693976D01*
X473245Y1695083D01*
X473613Y1696168D01*
X474051Y1697226D01*
X474558Y1698254D01*
X475131Y1699246D01*
X475768Y1700199D01*
X476465Y1701108D01*
X477221Y1701969D01*
X478031Y1702779D01*
X478892Y1703535D01*
X479801Y1704232D01*
X480754Y1704869D01*
X481746Y1705442D01*
X482774Y1705949D01*
X483832Y1706387D01*
X484917Y1706755D01*
X486024Y1707052D01*
X487148Y1707276D01*
X488284Y1707425D01*
X489427Y1707500D01*
X490573Y1707500D01*
X491716Y1707425D01*
X492852Y1707276D01*
X493976Y1707052D01*
X495083Y1706755D01*
X496168Y1706387D01*
X497226Y1705949D01*
X498254Y1705442D01*
X499246Y1704869D01*
X500199Y1704232D01*
X501108Y1703535D01*
X501969Y1702779D01*
X502779Y1701969D01*
X503535Y1701108D01*
X504232Y1700199D01*
X504869Y1699246D01*
X505442Y1698254D01*
X505949Y1697226D01*
X506387Y1696168D01*
X506755Y1695083D01*
X507052Y1693976D01*
X507276Y1692852D01*
X507425Y1691716D01*
X507500Y1690573D01*
X507500Y1689427D01*
X372352Y1612560D02*
X371618Y1612488D01*
X370895Y1612344D01*
X370190Y1612130D01*
X369509Y1611848D01*
X368860Y1611501D01*
X368247Y1611091D01*
X367677Y1610624D01*
X367156Y1610103D01*
X366689Y1609533D01*
X366279Y1608920D01*
X365932Y1608271D01*
X365650Y1607590D01*
X365436Y1606885D01*
X365292Y1606162D01*
X365220Y1605428D01*
X365220Y1604692D01*
X365292Y1603958D01*
X365436Y1603235D01*
X365650Y1602530D01*
X365932Y1601849D01*
X366279Y1601200D01*
X366689Y1600587D01*
X367156Y1600017D01*
X367677Y1599496D01*
X368247Y1599029D01*
X368860Y1598619D01*
X369509Y1598272D01*
X370190Y1597990D01*
X370895Y1597776D01*
X371618Y1597632D01*
X372352Y1597560D01*
X373088Y1597560D01*
X373822Y1597632D01*
X374545Y1597776D01*
X375250Y1597990D01*
X375931Y1598272D01*
X376580Y1598619D01*
X377193Y1599029D01*
X377763Y1599496D01*
X378284Y1600017D01*
X378751Y1600587D01*
X379161Y1601200D01*
X379508Y1601849D01*
X379790Y1602530D01*
X380004Y1603235D01*
X380148Y1603958D01*
X380220Y1604692D01*
X380220Y1605428D01*
X380148Y1606162D01*
X380004Y1606885D01*
X379790Y1607590D01*
X379508Y1608271D01*
X379161Y1608920D01*
X378751Y1609533D01*
X378284Y1610103D01*
X377763Y1610624D01*
X377193Y1611091D01*
X376580Y1611501D01*
X375931Y1611848D01*
X375250Y1612130D01*
X374545Y1612344D01*
X373822Y1612488D01*
X373088Y1612560D01*
X372352Y1612560D01*
X372352Y1672560D02*
X371618Y1672488D01*
X370895Y1672344D01*
X370190Y1672130D01*
X369509Y1671848D01*
X368860Y1671501D01*
X368247Y1671091D01*
X367677Y1670624D01*
X367156Y1670103D01*
X366689Y1669533D01*
X366279Y1668920D01*
X365932Y1668271D01*
X365650Y1667590D01*
X365436Y1666885D01*
X365292Y1666162D01*
X365220Y1665428D01*
X365220Y1664692D01*
X365292Y1663958D01*
X365436Y1663235D01*
X365650Y1662530D01*
X365932Y1661849D01*
X366279Y1661200D01*
X366689Y1660587D01*
X367156Y1660017D01*
X367677Y1659496D01*
X368247Y1659029D01*
X368860Y1658619D01*
X369509Y1658272D01*
X370190Y1657990D01*
X370895Y1657776D01*
X371618Y1657632D01*
X372352Y1657560D01*
X373088Y1657560D01*
X373822Y1657632D01*
X374545Y1657776D01*
X375250Y1657990D01*
X375931Y1658272D01*
X376580Y1658619D01*
X377193Y1659029D01*
X377763Y1659496D01*
X378284Y1660017D01*
X378751Y1660587D01*
X379161Y1661200D01*
X379508Y1661849D01*
X379790Y1662530D01*
X380004Y1663235D01*
X380148Y1663958D01*
X380220Y1664692D01*
X380220Y1665428D01*
X380148Y1666162D01*
X380004Y1666885D01*
X379790Y1667590D01*
X379508Y1668271D01*
X379161Y1668920D01*
X378751Y1669533D01*
X378284Y1670103D01*
X377763Y1670624D01*
X377193Y1671091D01*
X376580Y1671501D01*
X375931Y1671848D01*
X375250Y1672130D01*
X374545Y1672344D01*
X373822Y1672488D01*
X373088Y1672560D01*
X372352Y1672560D01*
M02*
