G04 EAGLE Gerber RS-274X export*
G75*
%MOMM*%
%FSLAX34Y34*%
%LPD*%
%INSilkscreen Bottom*%
%IPPOS*%
%AMOC8*
5,1,8,0,0,1.08239X$1,22.5*%
G01*
%ADD10C,0.203200*%
%ADD11C,0.152400*%
%ADD12C,0.101600*%
%ADD13C,0.025400*%
%ADD14C,0.050800*%
%ADD15C,0.076200*%
%ADD16C,0.127000*%
%ADD17C,0.447213*%
%ADD18C,0.304800*%
%ADD19C,0.254000*%
%ADD20C,0.254000*%

G36*
X300064Y179010D02*
X300064Y179010D01*
X300128Y179009D01*
X300203Y179030D01*
X300279Y179041D01*
X300338Y179067D01*
X300400Y179084D01*
X300466Y179125D01*
X300536Y179157D01*
X300585Y179199D01*
X300640Y179232D01*
X300692Y179290D01*
X300750Y179340D01*
X300786Y179394D01*
X300829Y179442D01*
X300862Y179511D01*
X300905Y179576D01*
X300924Y179638D01*
X300952Y179695D01*
X300963Y179765D01*
X300987Y179846D01*
X300988Y179931D01*
X300999Y180000D01*
X300999Y690000D01*
X300990Y690064D01*
X300991Y690128D01*
X300970Y690203D01*
X300959Y690279D01*
X300933Y690338D01*
X300916Y690400D01*
X300875Y690466D01*
X300843Y690536D01*
X300801Y690585D01*
X300768Y690640D01*
X300710Y690692D01*
X300660Y690750D01*
X300606Y690786D01*
X300558Y690829D01*
X300489Y690862D01*
X300424Y690905D01*
X300362Y690924D01*
X300305Y690952D01*
X300235Y690963D01*
X300154Y690987D01*
X300069Y690988D01*
X300000Y690999D01*
X130000Y690999D01*
X129936Y690990D01*
X129872Y690991D01*
X129797Y690970D01*
X129721Y690959D01*
X129662Y690933D01*
X129600Y690916D01*
X129534Y690875D01*
X129464Y690843D01*
X129415Y690801D01*
X129360Y690768D01*
X129308Y690710D01*
X129250Y690660D01*
X129214Y690606D01*
X129171Y690558D01*
X129138Y690489D01*
X129095Y690424D01*
X129076Y690362D01*
X129048Y690305D01*
X129037Y690235D01*
X129013Y690154D01*
X129012Y690069D01*
X129001Y690000D01*
X129001Y180000D01*
X129010Y179936D01*
X129009Y179872D01*
X129030Y179797D01*
X129041Y179721D01*
X129067Y179662D01*
X129084Y179600D01*
X129125Y179534D01*
X129157Y179464D01*
X129199Y179415D01*
X129232Y179360D01*
X129290Y179308D01*
X129340Y179250D01*
X129394Y179214D01*
X129442Y179171D01*
X129511Y179138D01*
X129576Y179095D01*
X129638Y179076D01*
X129695Y179048D01*
X129765Y179037D01*
X129846Y179013D01*
X129931Y179012D01*
X130000Y179001D01*
X300000Y179001D01*
X300064Y179010D01*
G37*
D10*
X690404Y859496D02*
X690404Y870173D01*
X685065Y870173D01*
X683286Y868394D01*
X683286Y864835D01*
X685065Y863055D01*
X690404Y863055D01*
X686845Y863055D02*
X683286Y859496D01*
X676931Y859496D02*
X673371Y859496D01*
X676931Y859496D02*
X678710Y861276D01*
X678710Y864835D01*
X676931Y866614D01*
X673371Y866614D01*
X671592Y864835D01*
X671592Y863055D01*
X678710Y863055D01*
X667016Y859496D02*
X661678Y859496D01*
X659898Y861276D01*
X661678Y863055D01*
X665237Y863055D01*
X667016Y864835D01*
X665237Y866614D01*
X659898Y866614D01*
X653543Y859496D02*
X649984Y859496D01*
X653543Y859496D02*
X655322Y861276D01*
X655322Y864835D01*
X653543Y866614D01*
X649984Y866614D01*
X648204Y864835D01*
X648204Y863055D01*
X655322Y863055D01*
X641849Y861276D02*
X641849Y868394D01*
X641849Y861276D02*
X640069Y859496D01*
X640069Y866614D02*
X643628Y866614D01*
X600404Y870373D02*
X600404Y859696D01*
X600404Y870373D02*
X593286Y870373D01*
X596845Y865035D02*
X600404Y865035D01*
X588710Y870373D02*
X586931Y870373D01*
X586931Y859696D01*
X588710Y859696D02*
X585151Y859696D01*
X579135Y866814D02*
X575576Y866814D01*
X573796Y865035D01*
X573796Y859696D01*
X579135Y859696D01*
X580914Y861476D01*
X579135Y863255D01*
X573796Y863255D01*
X569220Y859696D02*
X563882Y859696D01*
X562102Y861476D01*
X563882Y863255D01*
X567441Y863255D01*
X569220Y865035D01*
X567441Y866814D01*
X562102Y866814D01*
X557526Y870373D02*
X557526Y859696D01*
X557526Y865035D02*
X555747Y866814D01*
X552188Y866814D01*
X550408Y865035D01*
X550408Y859696D01*
X537804Y661498D02*
X537804Y649296D01*
X531703Y649296D01*
X529669Y651330D01*
X529669Y659465D01*
X531703Y661498D01*
X537804Y661498D01*
X522673Y649296D02*
X518606Y649296D01*
X516572Y651330D01*
X516572Y655397D01*
X518606Y657431D01*
X522673Y657431D01*
X524707Y655397D01*
X524707Y651330D01*
X522673Y649296D01*
X498512Y649296D02*
X498512Y657431D01*
X492411Y657431D01*
X490377Y655397D01*
X490377Y649296D01*
X483381Y649296D02*
X479314Y649296D01*
X477280Y651330D01*
X477280Y655397D01*
X479314Y657431D01*
X483381Y657431D01*
X485415Y655397D01*
X485415Y651330D01*
X483381Y649296D01*
X470284Y651330D02*
X470284Y659465D01*
X470284Y651330D02*
X468250Y649296D01*
X468250Y657431D02*
X472318Y657431D01*
X448455Y659465D02*
X448455Y651330D01*
X446422Y649296D01*
X446422Y657431D02*
X450489Y657431D01*
X439724Y649296D02*
X435656Y649296D01*
X433623Y651330D01*
X433623Y655397D01*
X435656Y657431D01*
X439724Y657431D01*
X441758Y655397D01*
X441758Y651330D01*
X439724Y649296D01*
X428660Y651330D02*
X428660Y657431D01*
X428660Y651330D02*
X426627Y649296D01*
X420525Y649296D01*
X420525Y657431D01*
X413529Y657431D02*
X407428Y657431D01*
X413529Y657431D02*
X415563Y655397D01*
X415563Y651330D01*
X413529Y649296D01*
X407428Y649296D01*
X402466Y649296D02*
X402466Y661498D01*
X400432Y657431D02*
X402466Y655397D01*
X400432Y657431D02*
X396365Y657431D01*
X394331Y655397D01*
X394331Y649296D01*
D11*
X483782Y1279942D02*
X500052Y1279942D01*
X500052Y1288077D01*
X497340Y1290789D01*
X491917Y1290789D01*
X489205Y1288077D01*
X489205Y1279942D01*
X483782Y1299025D02*
X483782Y1304449D01*
X486494Y1307160D01*
X491917Y1307160D01*
X494629Y1304449D01*
X494629Y1299025D01*
X491917Y1296314D01*
X486494Y1296314D01*
X483782Y1299025D01*
X486494Y1312685D02*
X494629Y1312685D01*
X486494Y1312685D02*
X483782Y1315397D01*
X486494Y1318108D01*
X483782Y1320820D01*
X486494Y1323532D01*
X494629Y1323532D01*
X483782Y1331768D02*
X483782Y1337192D01*
X483782Y1331768D02*
X486494Y1329057D01*
X491917Y1329057D01*
X494629Y1331768D01*
X494629Y1337192D01*
X491917Y1339903D01*
X489205Y1339903D01*
X489205Y1329057D01*
X483782Y1345428D02*
X494629Y1345428D01*
X489205Y1345428D02*
X494629Y1350852D01*
X494629Y1353563D01*
D12*
X777528Y1591688D02*
X790747Y1591688D01*
X790747Y1600501D01*
X784138Y1596094D02*
X784138Y1591688D01*
X786341Y1604785D02*
X790747Y1609192D01*
X777528Y1609192D01*
X777528Y1613598D02*
X777528Y1604785D01*
X251522Y114394D02*
X251522Y106598D01*
X251522Y110496D02*
X247624Y114394D01*
X245675Y114394D01*
X239828Y106598D02*
X235930Y106598D01*
X239828Y106598D02*
X241777Y108547D01*
X241777Y112445D01*
X239828Y114394D01*
X235930Y114394D01*
X233981Y112445D01*
X233981Y110496D01*
X241777Y110496D01*
X230083Y114394D02*
X226185Y106598D01*
X222287Y114394D01*
X206695Y114394D02*
X202797Y118292D01*
X202797Y106598D01*
X206695Y106598D02*
X198899Y106598D01*
X195001Y106598D02*
X195001Y108547D01*
X193052Y108547D01*
X193052Y106598D01*
X195001Y106598D01*
X189154Y108547D02*
X189154Y116343D01*
X187205Y118292D01*
X183307Y118292D01*
X181358Y116343D01*
X181358Y108547D01*
X183307Y106598D01*
X187205Y106598D01*
X189154Y108547D01*
X181358Y116343D01*
X177460Y108547D02*
X177460Y106598D01*
X177460Y108547D02*
X175511Y108547D01*
X175511Y106598D01*
X177460Y106598D01*
X171613Y108547D02*
X171613Y116343D01*
X169664Y118292D01*
X165766Y118292D01*
X163817Y116343D01*
X163817Y108547D01*
X165766Y106598D01*
X169664Y106598D01*
X171613Y108547D01*
X163817Y116343D01*
X432433Y163038D02*
X432433Y174732D01*
X432433Y163038D02*
X426586Y163038D01*
X424637Y164987D01*
X424637Y172783D01*
X426586Y174732D01*
X432433Y174732D01*
X418790Y163038D02*
X414892Y163038D01*
X418790Y163038D02*
X420739Y164987D01*
X420739Y168885D01*
X418790Y170834D01*
X414892Y170834D01*
X412943Y168885D01*
X412943Y166936D01*
X420739Y166936D01*
X409045Y163038D02*
X403198Y163038D01*
X401249Y164987D01*
X403198Y166936D01*
X407096Y166936D01*
X409045Y168885D01*
X407096Y170834D01*
X401249Y170834D01*
X397351Y170834D02*
X395402Y170834D01*
X395402Y163038D01*
X397351Y163038D02*
X393453Y163038D01*
X395402Y174732D02*
X395402Y176681D01*
X385657Y159140D02*
X383708Y159140D01*
X381759Y161089D01*
X381759Y170834D01*
X387606Y170834D01*
X389555Y168885D01*
X389555Y164987D01*
X387606Y163038D01*
X381759Y163038D01*
X377861Y163038D02*
X377861Y170834D01*
X372014Y170834D01*
X370065Y168885D01*
X370065Y163038D01*
X364218Y163038D02*
X360320Y163038D01*
X364218Y163038D02*
X366167Y164987D01*
X366167Y168885D01*
X364218Y170834D01*
X360320Y170834D01*
X358371Y168885D01*
X358371Y166936D01*
X366167Y166936D01*
X346677Y163038D02*
X346677Y174732D01*
X346677Y163038D02*
X352524Y163038D01*
X354473Y164987D01*
X354473Y168885D01*
X352524Y170834D01*
X346677Y170834D01*
X327187Y163038D02*
X323289Y166936D01*
X327187Y163038D02*
X329136Y163038D01*
X331085Y164987D01*
X331085Y166936D01*
X327187Y170834D01*
X327187Y172783D01*
X329136Y174732D01*
X331085Y172783D01*
X331085Y170834D01*
X323289Y163038D01*
X307697Y159140D02*
X307697Y170834D01*
X301850Y170834D01*
X299901Y168885D01*
X299901Y164987D01*
X301850Y163038D01*
X307697Y163038D01*
X296003Y163038D02*
X296003Y170834D01*
X296003Y166936D02*
X292105Y170834D01*
X290156Y170834D01*
X284309Y163038D02*
X280411Y163038D01*
X278462Y164987D01*
X278462Y168885D01*
X280411Y170834D01*
X284309Y170834D01*
X286258Y168885D01*
X286258Y164987D01*
X284309Y163038D01*
X266768Y163038D02*
X266768Y174732D01*
X266768Y163038D02*
X272615Y163038D01*
X274564Y164987D01*
X274564Y168885D01*
X272615Y170834D01*
X266768Y170834D01*
X262870Y170834D02*
X262870Y164987D01*
X260921Y163038D01*
X255074Y163038D01*
X255074Y170834D01*
X249227Y170834D02*
X243380Y170834D01*
X249227Y170834D02*
X251176Y168885D01*
X251176Y164987D01*
X249227Y163038D01*
X243380Y163038D01*
X237533Y163038D02*
X233635Y163038D01*
X237533Y163038D02*
X239482Y164987D01*
X239482Y168885D01*
X237533Y170834D01*
X233635Y170834D01*
X231686Y168885D01*
X231686Y166936D01*
X239482Y166936D01*
X219992Y163038D02*
X219992Y174732D01*
X219992Y163038D02*
X225839Y163038D01*
X227788Y164987D01*
X227788Y168885D01*
X225839Y170834D01*
X219992Y170834D01*
X204401Y174732D02*
X204401Y163038D01*
X198554Y163038D01*
X196605Y164987D01*
X196605Y168885D01*
X198554Y170834D01*
X204401Y170834D01*
X192707Y170834D02*
X192707Y164987D01*
X190758Y163038D01*
X184911Y163038D01*
X184911Y161089D02*
X184911Y170834D01*
X184911Y161089D02*
X186860Y159140D01*
X188809Y159140D01*
X288207Y155682D02*
X288207Y143988D01*
X282360Y143988D01*
X280411Y145937D01*
X280411Y149835D01*
X282360Y151784D01*
X288207Y151784D01*
X274564Y151784D02*
X270666Y151784D01*
X268717Y149835D01*
X268717Y143988D01*
X274564Y143988D01*
X276513Y145937D01*
X274564Y147886D01*
X268717Y147886D01*
X257023Y143988D02*
X257023Y155682D01*
X257023Y143988D02*
X262870Y143988D01*
X264819Y145937D01*
X264819Y149835D01*
X262870Y151784D01*
X257023Y151784D01*
X249227Y140090D02*
X247278Y140090D01*
X245329Y142039D01*
X245329Y151784D01*
X251176Y151784D01*
X253125Y149835D01*
X253125Y145937D01*
X251176Y143988D01*
X245329Y143988D01*
X239482Y143988D02*
X235584Y143988D01*
X239482Y143988D02*
X241431Y145937D01*
X241431Y149835D01*
X239482Y151784D01*
X235584Y151784D01*
X233635Y149835D01*
X233635Y147886D01*
X241431Y147886D01*
X229737Y145937D02*
X229737Y143988D01*
X229737Y145937D02*
X227788Y145937D01*
X227788Y143988D01*
X229737Y143988D01*
X221941Y145937D02*
X221941Y153733D01*
X221941Y145937D02*
X219992Y143988D01*
X219992Y151784D02*
X223890Y151784D01*
X214145Y143988D02*
X210247Y143988D01*
X214145Y143988D02*
X216094Y145937D01*
X216094Y149835D01*
X214145Y151784D01*
X210247Y151784D01*
X208298Y149835D01*
X208298Y147886D01*
X216094Y147886D01*
X202451Y151784D02*
X198553Y151784D01*
X196604Y149835D01*
X196604Y143988D01*
X202451Y143988D01*
X204400Y145937D01*
X202451Y147886D01*
X196604Y147886D01*
X192706Y143988D02*
X192706Y151784D01*
X190757Y151784D01*
X188808Y149835D01*
X188808Y143988D01*
X188808Y149835D02*
X186859Y151784D01*
X184910Y149835D01*
X184910Y143988D01*
D13*
X822852Y899537D02*
X824123Y899537D01*
X823487Y899537D02*
X823487Y903350D01*
X822852Y903350D02*
X824123Y903350D01*
X821628Y903350D02*
X821628Y899537D01*
X821628Y903350D02*
X819722Y903350D01*
X819086Y902715D01*
X819086Y901444D01*
X819722Y900808D01*
X821628Y900808D01*
X820357Y900808D02*
X819086Y899537D01*
X817886Y898901D02*
X815344Y898901D01*
X814144Y899537D02*
X814144Y903350D01*
X812238Y903350D01*
X811602Y902715D01*
X811602Y901444D01*
X812238Y900808D01*
X814144Y900808D01*
X812873Y900808D02*
X811602Y899537D01*
X810402Y903350D02*
X807860Y903350D01*
X810402Y903350D02*
X810402Y899537D01*
X807860Y899537D01*
X809131Y901444D02*
X810402Y901444D01*
X804753Y903350D02*
X804118Y902715D01*
X804753Y903350D02*
X806025Y903350D01*
X806660Y902715D01*
X806660Y900173D01*
X806025Y899537D01*
X804753Y899537D01*
X804118Y900173D01*
X802918Y900808D02*
X802918Y903350D01*
X802918Y900808D02*
X801647Y899537D01*
X800376Y900808D01*
X800376Y903350D01*
X808128Y877936D02*
X807504Y877311D01*
X808128Y877936D02*
X809378Y877936D01*
X810003Y877311D01*
X810003Y874812D01*
X809378Y874187D01*
X808128Y874187D01*
X807504Y874812D01*
X807504Y876062D01*
X808753Y876062D01*
X806320Y874187D02*
X806320Y877936D01*
X803820Y874187D01*
X803820Y877936D01*
X802637Y877936D02*
X802637Y874187D01*
X800762Y874187D01*
X800137Y874812D01*
X800137Y877311D01*
X800762Y877936D01*
X802637Y877936D01*
X809848Y853166D02*
X810473Y852541D01*
X809848Y853166D02*
X808598Y853166D01*
X807974Y852541D01*
X807974Y851916D01*
X808598Y851292D01*
X809223Y851292D01*
X808598Y851292D02*
X807974Y850667D01*
X807974Y850042D01*
X808598Y849417D01*
X809848Y849417D01*
X810473Y850042D01*
X806790Y850667D02*
X806790Y853166D01*
X806790Y850667D02*
X805540Y849417D01*
X804290Y850667D01*
X804290Y853166D01*
X803107Y852541D02*
X802482Y853166D01*
X801232Y853166D01*
X800607Y852541D01*
X800607Y851916D01*
X801232Y851292D01*
X801857Y851292D01*
X801232Y851292D02*
X800607Y850667D01*
X800607Y850042D01*
X801232Y849417D01*
X802482Y849417D01*
X803107Y850042D01*
D14*
X325847Y793050D02*
X324915Y793983D01*
X325847Y793050D02*
X325847Y791186D01*
X324915Y790254D01*
X321186Y790254D01*
X320254Y791186D01*
X320254Y793050D01*
X321186Y793983D01*
X323050Y793983D01*
X323050Y792118D01*
X320254Y795867D02*
X325847Y795867D01*
X320254Y799596D01*
X325847Y799596D01*
X325847Y801480D02*
X320254Y801480D01*
X320254Y804277D01*
X321186Y805209D01*
X324915Y805209D01*
X325847Y804277D01*
X325847Y801480D01*
X364915Y790254D02*
X365847Y791186D01*
X365847Y793050D01*
X364915Y793983D01*
X363983Y793983D01*
X363050Y793050D01*
X363050Y792118D01*
X363050Y793050D02*
X362118Y793983D01*
X361186Y793983D01*
X360254Y793050D01*
X360254Y791186D01*
X361186Y790254D01*
X362118Y795867D02*
X365847Y795867D01*
X362118Y795867D02*
X360254Y797731D01*
X362118Y799596D01*
X365847Y799596D01*
X364915Y801480D02*
X365847Y802412D01*
X365847Y804277D01*
X364915Y805209D01*
X363983Y805209D01*
X363050Y804277D01*
X363050Y803344D01*
X363050Y804277D02*
X362118Y805209D01*
X361186Y805209D01*
X360254Y804277D01*
X360254Y802412D01*
X361186Y801480D01*
X358819Y717143D02*
X359751Y716211D01*
X359751Y714347D01*
X358819Y713415D01*
X357887Y713415D01*
X356954Y714347D01*
X356954Y716211D01*
X356022Y717143D01*
X355090Y717143D01*
X354158Y716211D01*
X354158Y714347D01*
X355090Y713415D01*
X354158Y719028D02*
X359751Y719028D01*
X354158Y719028D02*
X354158Y721824D01*
X355090Y722756D01*
X358819Y722756D01*
X359751Y721824D01*
X359751Y719028D01*
X357887Y724641D02*
X354158Y724641D01*
X357887Y724641D02*
X359751Y726505D01*
X357887Y728369D01*
X354158Y728369D01*
X356954Y728369D02*
X356954Y724641D01*
X319751Y716211D02*
X318819Y717143D01*
X319751Y716211D02*
X319751Y714347D01*
X318819Y713415D01*
X317887Y713415D01*
X316954Y714347D01*
X316954Y716211D01*
X316022Y717143D01*
X315090Y717143D01*
X314158Y716211D01*
X314158Y714347D01*
X315090Y713415D01*
X319751Y721824D02*
X318819Y722756D01*
X319751Y721824D02*
X319751Y719960D01*
X318819Y719028D01*
X315090Y719028D01*
X314158Y719960D01*
X314158Y721824D01*
X315090Y722756D01*
X314158Y724641D02*
X319751Y724641D01*
X314158Y724641D02*
X314158Y728369D01*
D15*
X785789Y1641960D02*
X793627Y1641960D01*
X785789Y1641960D02*
X784221Y1643528D01*
X784221Y1646663D01*
X785789Y1648231D01*
X793627Y1648231D01*
X793627Y1656018D02*
X792059Y1657586D01*
X793627Y1656018D02*
X793627Y1652883D01*
X792059Y1651315D01*
X790492Y1651315D01*
X788924Y1652883D01*
X788924Y1656018D01*
X787356Y1657586D01*
X785789Y1657586D01*
X784221Y1656018D01*
X784221Y1652883D01*
X785789Y1651315D01*
X784221Y1660671D02*
X793627Y1660671D01*
X793627Y1665374D01*
X792059Y1666941D01*
X790492Y1666941D01*
X788924Y1665374D01*
X787356Y1666941D01*
X785789Y1666941D01*
X784221Y1665374D01*
X784221Y1660671D01*
X788924Y1660671D02*
X788924Y1665374D01*
X790492Y1670026D02*
X793627Y1673161D01*
X784221Y1673161D01*
X784221Y1670026D02*
X784221Y1676296D01*
X743619Y783869D02*
X743619Y778954D01*
X743619Y783869D02*
X742390Y785097D01*
X739933Y785097D01*
X738704Y783869D01*
X738704Y778954D01*
X739933Y777725D01*
X742390Y777725D01*
X743619Y778954D01*
X738704Y783869D01*
X736135Y785097D02*
X736135Y777725D01*
X732449Y777725D01*
X731220Y778954D01*
X731220Y781411D01*
X732449Y782640D01*
X736135Y782640D01*
X724965Y785097D02*
X724965Y777725D01*
X728651Y781411D02*
X724965Y785097D01*
X723736Y781411D02*
X728651Y781411D01*
X721167Y778954D02*
X719938Y777725D01*
X717480Y777725D01*
X716252Y778954D01*
X716252Y783869D01*
X717480Y785097D01*
X719938Y785097D01*
X721167Y783869D01*
X721167Y782640D01*
X719938Y781411D01*
X716252Y781411D01*
X702512Y777725D02*
X702512Y785097D01*
X706198Y781411D01*
X701283Y781411D01*
X698714Y778954D02*
X698714Y783869D01*
X697485Y785097D01*
X695028Y785097D01*
X693799Y783869D01*
X693799Y778954D01*
X695028Y777725D01*
X697485Y777725D01*
X698714Y778954D01*
X693799Y783869D01*
X690001Y777725D02*
X687544Y777725D01*
X690001Y777725D02*
X691230Y778954D01*
X691230Y781411D01*
X690001Y782640D01*
X687544Y782640D01*
X686315Y781411D01*
X686315Y780182D01*
X691230Y780182D01*
X683746Y777725D02*
X678831Y777725D01*
X683746Y777725D02*
X678831Y782640D01*
X678831Y783869D01*
X680060Y785097D01*
X682517Y785097D01*
X683746Y783869D01*
X738704Y756649D02*
X743619Y756649D01*
X738704Y756649D02*
X738704Y755421D01*
X743619Y750506D01*
X743619Y749277D01*
X736135Y749277D02*
X731220Y749277D01*
X736135Y749277D02*
X731220Y754192D01*
X731220Y755421D01*
X732449Y756649D01*
X734906Y756649D01*
X736135Y755421D01*
X728651Y756649D02*
X723736Y756649D01*
X723736Y755421D01*
X728651Y750506D01*
X728651Y749277D01*
X717480Y749277D02*
X717480Y756649D01*
X721167Y752963D01*
X716252Y752963D01*
X706198Y756649D02*
X706198Y749277D01*
X702512Y749277D01*
X701283Y750506D01*
X701283Y752963D01*
X702512Y754192D01*
X706198Y754192D01*
X698714Y756649D02*
X693799Y756649D01*
X693799Y755421D01*
X698714Y750506D01*
X698714Y749277D01*
X691230Y749277D02*
X691230Y756649D01*
X691230Y749277D02*
X687544Y749277D01*
X686315Y750506D01*
X686315Y752963D01*
X687544Y754192D01*
X691230Y754192D01*
X683746Y755421D02*
X682517Y756649D01*
X680060Y756649D01*
X678831Y755421D01*
X678831Y754192D01*
X680060Y752963D01*
X678831Y751734D01*
X678831Y750506D01*
X680060Y749277D01*
X682517Y749277D01*
X683746Y750506D01*
X683746Y751734D01*
X682517Y752963D01*
X683746Y754192D01*
X683746Y755421D01*
X682517Y752963D02*
X680060Y752963D01*
X742390Y728201D02*
X743619Y726973D01*
X742390Y728201D02*
X739933Y728201D01*
X738704Y726973D01*
X738704Y725744D01*
X739933Y724515D01*
X738704Y723286D01*
X738704Y722058D01*
X739933Y720829D01*
X742390Y720829D01*
X743619Y722058D01*
X743619Y723286D01*
X742390Y724515D01*
X743619Y725744D01*
X743619Y726973D01*
X742390Y724515D02*
X739933Y724515D01*
X736135Y722058D02*
X736135Y726973D01*
X734906Y728201D01*
X732449Y728201D01*
X731220Y726973D01*
X731220Y722058D01*
X732449Y720829D01*
X734906Y720829D01*
X736135Y722058D01*
X731220Y726973D01*
X727422Y720829D02*
X724965Y720829D01*
X727422Y720829D02*
X728651Y722058D01*
X728651Y724515D01*
X727422Y725744D01*
X724965Y725744D01*
X723736Y724515D01*
X723736Y723286D01*
X728651Y723286D01*
X717480Y720829D02*
X717480Y728201D01*
X721167Y724515D01*
X716252Y724515D01*
X706198Y726973D02*
X704970Y728201D01*
X702512Y728201D01*
X701283Y726973D01*
X701283Y725744D01*
X702512Y724515D01*
X703741Y724515D01*
X702512Y724515D02*
X701283Y723286D01*
X701283Y722058D01*
X702512Y720829D01*
X704970Y720829D01*
X706198Y722058D01*
X697485Y725744D02*
X693799Y725744D01*
X697485Y725744D02*
X698714Y724515D01*
X698714Y722058D01*
X697485Y720829D01*
X693799Y720829D01*
X690001Y720829D02*
X690001Y726973D01*
X688773Y728201D01*
X688773Y724515D02*
X691230Y724515D01*
X685012Y720829D02*
X682554Y720829D01*
X685012Y720829D02*
X686240Y722058D01*
X686240Y724515D01*
X685012Y725744D01*
X682554Y725744D01*
X681326Y724515D01*
X681326Y723286D01*
X686240Y723286D01*
X738704Y699753D02*
X741162Y698525D01*
X743619Y696067D01*
X743619Y693610D01*
X742390Y692381D01*
X739933Y692381D01*
X738704Y693610D01*
X738704Y694838D01*
X739933Y696067D01*
X743619Y696067D01*
X733677Y698525D02*
X731220Y699753D01*
X733677Y698525D02*
X736135Y696067D01*
X736135Y693610D01*
X734906Y692381D01*
X732449Y692381D01*
X731220Y693610D01*
X731220Y694838D01*
X732449Y696067D01*
X736135Y696067D01*
X727422Y697296D02*
X724965Y697296D01*
X723736Y696067D01*
X723736Y692381D01*
X727422Y692381D01*
X728651Y693610D01*
X727422Y694838D01*
X723736Y694838D01*
X721167Y693610D02*
X719938Y692381D01*
X717480Y692381D01*
X716252Y693610D01*
X716252Y698525D01*
X717480Y699753D01*
X719938Y699753D01*
X721167Y698525D01*
X721167Y697296D01*
X719938Y696067D01*
X716252Y696067D01*
X706198Y699753D02*
X701283Y699753D01*
X706198Y699753D02*
X706198Y696067D01*
X703741Y697296D01*
X702512Y697296D01*
X701283Y696067D01*
X701283Y693610D01*
X702512Y692381D01*
X704970Y692381D01*
X706198Y693610D01*
X698714Y697296D02*
X696257Y699753D01*
X696257Y692381D01*
X698714Y692381D02*
X693799Y692381D01*
X691230Y698525D02*
X690001Y699753D01*
X687544Y699753D01*
X686315Y698525D01*
X686315Y697296D01*
X687544Y696067D01*
X686315Y694838D01*
X686315Y693610D01*
X687544Y692381D01*
X690001Y692381D01*
X691230Y693610D01*
X691230Y694838D01*
X690001Y696067D01*
X691230Y697296D01*
X691230Y698525D01*
X690001Y696067D02*
X687544Y696067D01*
X682517Y697296D02*
X678831Y697296D01*
X682517Y697296D02*
X683746Y696067D01*
X683746Y693610D01*
X682517Y692381D01*
X678831Y692381D01*
X387168Y908140D02*
X382253Y908140D01*
X387168Y908140D02*
X389625Y910597D01*
X387168Y913055D01*
X382253Y913055D01*
X385939Y913055D02*
X385939Y908140D01*
X389625Y915624D02*
X389625Y920539D01*
X389625Y915624D02*
X382253Y915624D01*
X382253Y920539D01*
X385939Y918081D02*
X385939Y915624D01*
X389625Y926794D02*
X388397Y928023D01*
X389625Y926794D02*
X389625Y924337D01*
X388397Y923108D01*
X387168Y923108D01*
X385939Y924337D01*
X385939Y926794D01*
X384710Y928023D01*
X383482Y928023D01*
X382253Y926794D01*
X382253Y924337D01*
X383482Y923108D01*
X387168Y939305D02*
X387168Y941763D01*
X385939Y942991D01*
X382253Y942991D01*
X382253Y939305D01*
X383482Y938076D01*
X384710Y939305D01*
X384710Y942991D01*
X389625Y945561D02*
X389625Y946789D01*
X382253Y946789D01*
X382253Y945561D02*
X382253Y948018D01*
X389625Y950550D02*
X389625Y951779D01*
X382253Y951779D01*
X382253Y953007D02*
X382253Y950550D01*
X383482Y964252D02*
X388397Y964252D01*
X383482Y964252D02*
X382253Y965481D01*
X387168Y965481D02*
X387168Y963024D01*
X389625Y968013D02*
X382253Y968013D01*
X385939Y968013D02*
X387168Y969242D01*
X387168Y971699D01*
X385939Y972928D01*
X382253Y972928D01*
X382253Y976726D02*
X382253Y979183D01*
X382253Y976726D02*
X383482Y975497D01*
X385939Y975497D01*
X387168Y976726D01*
X387168Y979183D01*
X385939Y980412D01*
X384710Y980412D01*
X384710Y975497D01*
X383482Y991694D02*
X388397Y991694D01*
X383482Y991694D02*
X382253Y992923D01*
X387168Y992923D02*
X387168Y990466D01*
X389625Y995455D02*
X382253Y995455D01*
X385939Y995455D02*
X387168Y996684D01*
X387168Y999141D01*
X385939Y1000370D01*
X382253Y1000370D01*
X387168Y1002939D02*
X387168Y1004168D01*
X382253Y1004168D01*
X382253Y1002939D02*
X382253Y1005397D01*
X389625Y1004168D02*
X390854Y1004168D01*
X387168Y1007929D02*
X382253Y1007929D01*
X387168Y1007929D02*
X387168Y1011615D01*
X385939Y1012843D01*
X382253Y1012843D01*
X379796Y1017870D02*
X379796Y1019099D01*
X381024Y1020328D01*
X387168Y1020328D01*
X387168Y1016641D01*
X385939Y1015413D01*
X383482Y1015413D01*
X382253Y1016641D01*
X382253Y1020328D01*
X382253Y1022897D02*
X382253Y1026583D01*
X383482Y1027812D01*
X384710Y1026583D01*
X384710Y1024126D01*
X385939Y1022897D01*
X387168Y1024126D01*
X387168Y1027812D01*
D12*
X743492Y1377508D02*
X743492Y1388501D01*
X737995Y1388501D01*
X736163Y1386669D01*
X736163Y1383005D01*
X737995Y1381172D01*
X743492Y1381172D01*
X726946Y1388501D02*
X725114Y1386669D01*
X726946Y1388501D02*
X730610Y1388501D01*
X732443Y1386669D01*
X732443Y1379340D01*
X730610Y1377508D01*
X726946Y1377508D01*
X725114Y1379340D01*
X721393Y1377508D02*
X721393Y1388501D01*
X715896Y1388501D01*
X714064Y1386669D01*
X714064Y1384837D01*
X715896Y1383005D01*
X714064Y1381172D01*
X714064Y1379340D01*
X715896Y1377508D01*
X721393Y1377508D01*
X721393Y1383005D02*
X715896Y1383005D01*
X699294Y1377508D02*
X699294Y1388501D01*
X699294Y1383005D02*
X691965Y1383005D01*
X691965Y1388501D02*
X691965Y1377508D01*
X686413Y1377508D02*
X682748Y1377508D01*
X680916Y1379340D01*
X680916Y1383005D01*
X682748Y1384837D01*
X686413Y1384837D01*
X688245Y1383005D01*
X688245Y1379340D01*
X686413Y1377508D01*
X677195Y1379340D02*
X677195Y1384837D01*
X677195Y1379340D02*
X675363Y1377508D01*
X669866Y1377508D01*
X669866Y1384837D01*
X666146Y1377508D02*
X660649Y1377508D01*
X658817Y1379340D01*
X660649Y1381172D01*
X664314Y1381172D01*
X666146Y1383005D01*
X664314Y1384837D01*
X658817Y1384837D01*
X653264Y1377508D02*
X649600Y1377508D01*
X653264Y1377508D02*
X655097Y1379340D01*
X655097Y1383005D01*
X653264Y1384837D01*
X649600Y1384837D01*
X647768Y1383005D01*
X647768Y1381172D01*
X655097Y1381172D01*
X644047Y1373844D02*
X640383Y1377508D01*
X640383Y1379340D01*
X642215Y1379340D01*
X642215Y1377508D01*
X640383Y1377508D01*
X625631Y1373844D02*
X625631Y1384837D01*
X620135Y1384837D01*
X618302Y1383005D01*
X618302Y1379340D01*
X620135Y1377508D01*
X625631Y1377508D01*
X614582Y1379340D02*
X614582Y1384837D01*
X614582Y1379340D02*
X612750Y1377508D01*
X607253Y1377508D01*
X607253Y1384837D01*
X601700Y1386669D02*
X601700Y1379340D01*
X599868Y1377508D01*
X599868Y1384837D02*
X603532Y1384837D01*
X585117Y1388501D02*
X585117Y1377508D01*
X579620Y1377508D01*
X577788Y1379340D01*
X577788Y1383005D01*
X579620Y1384837D01*
X585117Y1384837D01*
X572235Y1384837D02*
X568571Y1384837D01*
X566738Y1383005D01*
X566738Y1377508D01*
X572235Y1377508D01*
X574067Y1379340D01*
X572235Y1381172D01*
X566738Y1381172D01*
X561186Y1379340D02*
X561186Y1386669D01*
X561186Y1379340D02*
X559353Y1377508D01*
X559353Y1384837D02*
X563018Y1384837D01*
X553819Y1384837D02*
X548323Y1384837D01*
X553819Y1384837D02*
X555652Y1383005D01*
X555652Y1379340D01*
X553819Y1377508D01*
X548323Y1377508D01*
X544602Y1377508D02*
X544602Y1388501D01*
X542770Y1384837D02*
X544602Y1383005D01*
X542770Y1384837D02*
X539105Y1384837D01*
X537273Y1383005D01*
X537273Y1377508D01*
X522503Y1377508D02*
X518839Y1377508D01*
X520671Y1377508D02*
X520671Y1388501D01*
X522503Y1388501D02*
X518839Y1388501D01*
X515137Y1388501D02*
X515137Y1377508D01*
X509640Y1377508D01*
X507808Y1379340D01*
X507808Y1386669D01*
X509640Y1388501D01*
X515137Y1388501D01*
X493038Y1388501D02*
X493038Y1377508D01*
X493038Y1383005D02*
X491206Y1384837D01*
X487541Y1384837D01*
X485709Y1383005D01*
X485709Y1377508D01*
X480156Y1377508D02*
X476492Y1377508D01*
X480156Y1377508D02*
X481989Y1379340D01*
X481989Y1383005D01*
X480156Y1384837D01*
X476492Y1384837D01*
X474660Y1383005D01*
X474660Y1381172D01*
X481989Y1381172D01*
X470939Y1377508D02*
X470939Y1384837D01*
X467275Y1384837D02*
X470939Y1381172D01*
X467275Y1384837D02*
X465443Y1384837D01*
X459899Y1377508D02*
X456235Y1377508D01*
X459899Y1377508D02*
X461731Y1379340D01*
X461731Y1383005D01*
X459899Y1384837D01*
X456235Y1384837D01*
X454403Y1383005D01*
X454403Y1381172D01*
X461731Y1381172D01*
X450682Y1384837D02*
X448850Y1384837D01*
X448850Y1383005D01*
X450682Y1383005D01*
X450682Y1384837D01*
X450682Y1379340D02*
X448850Y1379340D01*
X448850Y1377508D01*
X450682Y1377508D01*
X450682Y1379340D01*
X736163Y1347005D02*
X743492Y1352501D01*
X736163Y1347005D02*
X743492Y1341508D01*
X732443Y1352501D02*
X725114Y1347005D01*
X732443Y1341508D01*
X279416Y1347005D02*
X272087Y1352501D01*
X279416Y1347005D02*
X272087Y1341508D01*
X268366Y1347005D02*
X261037Y1352501D01*
X268366Y1347005D02*
X261037Y1341508D01*
D10*
X734620Y1540680D02*
X739620Y1540680D01*
X739620Y1545680D01*
X739620Y1588680D02*
X733620Y1588680D01*
X739620Y1588680D02*
X739620Y1583680D01*
X696620Y1588680D02*
X691620Y1588680D01*
X691620Y1583680D01*
D16*
X674317Y1548605D02*
X674317Y1546317D01*
X674317Y1547461D02*
X681181Y1547461D01*
X681181Y1546317D02*
X681181Y1548605D01*
X681181Y1554739D02*
X680037Y1555883D01*
X681181Y1554739D02*
X681181Y1552451D01*
X680037Y1551307D01*
X675461Y1551307D01*
X674317Y1552451D01*
X674317Y1554739D01*
X675461Y1555883D01*
X678893Y1558791D02*
X681181Y1561079D01*
X674317Y1561079D01*
X674317Y1558791D02*
X674317Y1563367D01*
X820467Y1564183D02*
X821611Y1563039D01*
X821611Y1560751D01*
X820467Y1559607D01*
X815891Y1559607D01*
X814747Y1560751D01*
X814747Y1563039D01*
X815891Y1564183D01*
X815891Y1567091D02*
X814747Y1568235D01*
X814747Y1570523D01*
X815891Y1571667D01*
X820467Y1571667D01*
X821611Y1570523D01*
X821611Y1568235D01*
X820467Y1567091D01*
X819323Y1567091D01*
X818179Y1568235D01*
X818179Y1571667D01*
D10*
X774040Y1596430D02*
X774040Y1609130D01*
X758800Y1609130D02*
X758800Y1596430D01*
X811020Y1606480D02*
X811020Y1610480D01*
X811020Y1624480D01*
X798020Y1610480D02*
X798020Y1606480D01*
X798020Y1610480D02*
X798020Y1624480D01*
X798020Y1610480D02*
X811020Y1610480D01*
D16*
X814707Y1610217D02*
X821571Y1610217D01*
X814707Y1610217D02*
X814707Y1613649D01*
X815851Y1614793D01*
X820427Y1614793D01*
X821571Y1613649D01*
X821571Y1610217D01*
X819283Y1617701D02*
X821571Y1619989D01*
X814707Y1619989D01*
X814707Y1617701D02*
X814707Y1622277D01*
D10*
X631420Y973480D02*
X625420Y973480D01*
X625420Y981480D01*
X647420Y973480D02*
X653420Y973480D01*
X653420Y981480D01*
D16*
X667240Y976715D02*
X667240Y972139D01*
X667240Y976715D02*
X666096Y977859D01*
X663808Y977859D01*
X662664Y976715D01*
X662664Y972139D01*
X663808Y970995D01*
X666096Y970995D01*
X667240Y972139D01*
X664952Y973283D02*
X662664Y970995D01*
X659756Y976715D02*
X658612Y977859D01*
X656324Y977859D01*
X655180Y976715D01*
X655180Y975571D01*
X656324Y974427D01*
X657468Y974427D01*
X656324Y974427D02*
X655180Y973283D01*
X655180Y972139D01*
X656324Y970995D01*
X658612Y970995D01*
X659756Y972139D01*
D10*
X653420Y1038280D02*
X647420Y1038280D01*
X653420Y1038280D02*
X653420Y1030280D01*
X631420Y1038280D02*
X625420Y1038280D01*
X625420Y1030280D01*
D16*
X659778Y1041691D02*
X659778Y1046267D01*
X658634Y1047411D01*
X656346Y1047411D01*
X655202Y1046267D01*
X655202Y1041691D01*
X656346Y1040547D01*
X658634Y1040547D01*
X659778Y1041691D01*
X657490Y1042835D02*
X655202Y1040547D01*
X648862Y1040547D02*
X648862Y1047411D01*
X652294Y1043979D01*
X647718Y1043979D01*
D11*
X597764Y1007658D02*
X597764Y1004102D01*
X604876Y1004102D02*
X604876Y1007658D01*
D16*
X609977Y997413D02*
X616841Y997413D01*
X616841Y1000844D01*
X615697Y1001988D01*
X613409Y1001988D01*
X612265Y1000844D01*
X612265Y997413D01*
X612265Y999700D02*
X609977Y1001988D01*
X614553Y1004897D02*
X616841Y1007185D01*
X609977Y1007185D01*
X609977Y1004897D02*
X609977Y1009473D01*
X615697Y1012381D02*
X616841Y1013525D01*
X616841Y1015813D01*
X615697Y1016957D01*
X614553Y1016957D01*
X613409Y1015813D01*
X612265Y1016957D01*
X611121Y1016957D01*
X609977Y1015813D01*
X609977Y1013525D01*
X611121Y1012381D01*
X612265Y1012381D01*
X613409Y1013525D01*
X614553Y1012381D01*
X615697Y1012381D01*
X613409Y1013525D02*
X613409Y1015813D01*
D11*
X681076Y1007658D02*
X681076Y1004102D01*
X673964Y1004102D02*
X673964Y1007658D01*
D16*
X687005Y996665D02*
X693869Y996665D01*
X693869Y1000097D01*
X692725Y1001241D01*
X690437Y1001241D01*
X689293Y1000097D01*
X689293Y996665D01*
X689293Y998953D02*
X687005Y1001241D01*
X691581Y1004149D02*
X693869Y1006437D01*
X687005Y1006437D01*
X687005Y1004149D02*
X687005Y1008725D01*
X693869Y1011633D02*
X693869Y1016209D01*
X693869Y1011633D02*
X690437Y1011633D01*
X691581Y1013921D01*
X691581Y1015065D01*
X690437Y1016209D01*
X688149Y1016209D01*
X687005Y1015065D01*
X687005Y1012777D01*
X688149Y1011633D01*
D11*
X799948Y1515150D02*
X804520Y1515150D01*
X809092Y1515150D01*
X804520Y1512610D02*
X799948Y1512610D01*
X804520Y1512610D02*
X809092Y1512610D01*
X804520Y1515150D02*
X804520Y1516547D01*
X804520Y1512610D02*
X804520Y1511213D01*
D16*
X818755Y1509371D02*
X819899Y1508227D01*
X819899Y1505939D01*
X818755Y1504795D01*
X814179Y1504795D01*
X813035Y1505939D01*
X813035Y1508227D01*
X814179Y1509371D01*
X817611Y1512279D02*
X819899Y1514567D01*
X813035Y1514567D01*
X813035Y1512279D02*
X813035Y1516855D01*
X817611Y1519763D02*
X819899Y1522051D01*
X813035Y1522051D01*
X813035Y1519763D02*
X813035Y1524339D01*
D11*
X766420Y1527850D02*
X761848Y1527850D01*
X766420Y1527850D02*
X770992Y1527850D01*
X766420Y1525310D02*
X761848Y1525310D01*
X766420Y1525310D02*
X770992Y1525310D01*
X766420Y1527850D02*
X766420Y1529247D01*
X766420Y1525310D02*
X766420Y1523913D01*
D16*
X780267Y1525343D02*
X781411Y1524199D01*
X781411Y1521911D01*
X780267Y1520767D01*
X775691Y1520767D01*
X774547Y1521911D01*
X774547Y1524199D01*
X775691Y1525343D01*
X780267Y1528251D02*
X781411Y1529395D01*
X781411Y1531683D01*
X780267Y1532827D01*
X779123Y1532827D01*
X777979Y1531683D01*
X776835Y1532827D01*
X775691Y1532827D01*
X774547Y1531683D01*
X774547Y1529395D01*
X775691Y1528251D01*
X776835Y1528251D01*
X777979Y1529395D01*
X779123Y1528251D01*
X780267Y1528251D01*
X777979Y1529395D02*
X777979Y1531683D01*
D11*
X769976Y1562902D02*
X769976Y1566458D01*
X762864Y1566458D02*
X762864Y1562902D01*
D16*
X774585Y1555505D02*
X781449Y1555505D01*
X781449Y1558937D01*
X780305Y1560081D01*
X778017Y1560081D01*
X776873Y1558937D01*
X776873Y1555505D01*
X776873Y1557793D02*
X774585Y1560081D01*
X779161Y1562989D02*
X781449Y1565277D01*
X774585Y1565277D01*
X774585Y1562989D02*
X774585Y1567565D01*
X780305Y1570473D02*
X781449Y1571617D01*
X781449Y1573905D01*
X780305Y1575049D01*
X779161Y1575049D01*
X778017Y1573905D01*
X778017Y1572761D01*
X778017Y1573905D02*
X776873Y1575049D01*
X775729Y1575049D01*
X774585Y1573905D01*
X774585Y1571617D01*
X775729Y1570473D01*
D10*
X467320Y1435980D02*
X467320Y1432980D01*
X467320Y1435980D02*
X475320Y1435980D01*
X467320Y1416980D02*
X467320Y1413980D01*
X475320Y1413980D01*
D16*
X490509Y1420370D02*
X495085Y1420370D01*
X496229Y1421514D01*
X496229Y1423802D01*
X495085Y1424946D01*
X490509Y1424946D01*
X489365Y1423802D01*
X489365Y1421514D01*
X490509Y1420370D01*
X491653Y1422658D02*
X489365Y1424946D01*
X496229Y1427854D02*
X496229Y1432430D01*
X496229Y1427854D02*
X492797Y1427854D01*
X493941Y1430142D01*
X493941Y1431286D01*
X492797Y1432430D01*
X490509Y1432430D01*
X489365Y1431286D01*
X489365Y1428998D01*
X490509Y1427854D01*
D10*
X429720Y1531580D02*
X429720Y1535580D01*
X429720Y1531580D02*
X429720Y1517580D01*
X442720Y1531580D02*
X442720Y1535580D01*
X442720Y1531580D02*
X442720Y1517580D01*
X442720Y1531580D02*
X429720Y1531580D01*
D16*
X444525Y1523115D02*
X451389Y1523115D01*
X444525Y1523115D02*
X444525Y1526547D01*
X445669Y1527691D01*
X450245Y1527691D01*
X451389Y1526547D01*
X451389Y1523115D01*
X445669Y1530599D02*
X444525Y1531743D01*
X444525Y1534031D01*
X445669Y1535175D01*
X450245Y1535175D01*
X451389Y1534031D01*
X451389Y1531743D01*
X450245Y1530599D01*
X449101Y1530599D01*
X447957Y1531743D01*
X447957Y1535175D01*
D10*
X468120Y1483480D02*
X468120Y1479480D01*
X468120Y1483480D02*
X468120Y1497480D01*
X455120Y1483480D02*
X455120Y1479480D01*
X455120Y1483480D02*
X455120Y1497480D01*
X455120Y1483480D02*
X468120Y1483480D01*
D16*
X467967Y1482537D02*
X474831Y1482537D01*
X467967Y1482537D02*
X467967Y1485969D01*
X469111Y1487113D01*
X473687Y1487113D01*
X474831Y1485969D01*
X474831Y1482537D01*
X473687Y1490021D02*
X474831Y1491165D01*
X474831Y1493453D01*
X473687Y1494597D01*
X472543Y1494597D01*
X471399Y1493453D01*
X470255Y1494597D01*
X469111Y1494597D01*
X467967Y1493453D01*
X467967Y1491165D01*
X469111Y1490021D01*
X470255Y1490021D01*
X471399Y1491165D01*
X472543Y1490021D01*
X473687Y1490021D01*
X471399Y1491165D02*
X471399Y1493453D01*
D10*
X457920Y1456880D02*
X453920Y1456880D01*
X439920Y1456880D01*
X453920Y1443880D02*
X457920Y1443880D01*
X453920Y1443880D02*
X439920Y1443880D01*
X453920Y1443880D02*
X453920Y1456880D01*
D16*
X451175Y1460175D02*
X451175Y1467039D01*
X451175Y1460175D02*
X447743Y1460175D01*
X446599Y1461319D01*
X446599Y1465895D01*
X447743Y1467039D01*
X451175Y1467039D01*
X443691Y1467039D02*
X439115Y1467039D01*
X439115Y1465895D01*
X443691Y1461319D01*
X443691Y1460175D01*
D11*
X421950Y1070180D02*
X421950Y1065608D01*
X421950Y1070180D02*
X421950Y1074752D01*
X424490Y1070180D02*
X424490Y1065608D01*
X424490Y1070180D02*
X424490Y1074752D01*
X421950Y1070180D02*
X420553Y1070180D01*
X424490Y1070180D02*
X425887Y1070180D01*
D16*
X426639Y1083205D02*
X427783Y1084349D01*
X430071Y1084349D01*
X431215Y1083205D01*
X431215Y1078629D01*
X430071Y1077485D01*
X427783Y1077485D01*
X426639Y1078629D01*
X423731Y1082061D02*
X421443Y1084349D01*
X421443Y1077485D01*
X423731Y1077485D02*
X419155Y1077485D01*
X412815Y1077485D02*
X412815Y1084349D01*
X416247Y1080917D01*
X411671Y1080917D01*
X428399Y1110585D02*
X429543Y1111729D01*
X431831Y1111729D01*
X432975Y1110585D01*
X432975Y1106009D01*
X431831Y1104865D01*
X429543Y1104865D01*
X428399Y1106009D01*
X425491Y1109441D02*
X423203Y1111729D01*
X423203Y1104865D01*
X425491Y1104865D02*
X420915Y1104865D01*
X418007Y1111729D02*
X413431Y1111729D01*
X418007Y1111729D02*
X418007Y1108297D01*
X415719Y1109441D01*
X414575Y1109441D01*
X413431Y1108297D01*
X413431Y1106009D01*
X414575Y1104865D01*
X416863Y1104865D01*
X418007Y1106009D01*
X488185Y1080701D02*
X489329Y1079557D01*
X489329Y1077269D01*
X488185Y1076125D01*
X483609Y1076125D01*
X482465Y1077269D01*
X482465Y1079557D01*
X483609Y1080701D01*
X487041Y1083609D02*
X489329Y1085897D01*
X482465Y1085897D01*
X482465Y1083609D02*
X482465Y1088185D01*
X489329Y1091093D02*
X489329Y1095669D01*
X488185Y1095669D01*
X483609Y1091093D01*
X482465Y1091093D01*
D11*
X474020Y1046050D02*
X469448Y1046050D01*
X474020Y1046050D02*
X478592Y1046050D01*
X474020Y1043510D02*
X469448Y1043510D01*
X474020Y1043510D02*
X478592Y1043510D01*
X474020Y1046050D02*
X474020Y1047447D01*
X474020Y1043510D02*
X474020Y1042113D01*
D16*
X486857Y1040408D02*
X488001Y1039264D01*
X488001Y1036977D01*
X486857Y1035833D01*
X482281Y1035833D01*
X481137Y1036977D01*
X481137Y1039264D01*
X482281Y1040408D01*
X481137Y1043317D02*
X481137Y1047893D01*
X481137Y1043317D02*
X485713Y1047893D01*
X486857Y1047893D01*
X488001Y1046749D01*
X488001Y1044461D01*
X486857Y1043317D01*
X481137Y1050801D02*
X481137Y1055377D01*
X481137Y1050801D02*
X485713Y1055377D01*
X486857Y1055377D01*
X488001Y1054233D01*
X488001Y1051945D01*
X486857Y1050801D01*
D11*
X463690Y1023452D02*
X463690Y1018880D01*
X463690Y1014308D01*
X461150Y1018880D02*
X461150Y1023452D01*
X461150Y1018880D02*
X461150Y1014308D01*
X463690Y1018880D02*
X465087Y1018880D01*
X461150Y1018880D02*
X459753Y1018880D01*
X469854Y1009272D02*
X470956Y1010374D01*
X473159Y1010374D01*
X474260Y1009272D01*
X474260Y1004866D01*
X473159Y1003764D01*
X470956Y1003764D01*
X469854Y1004866D01*
X466776Y1003764D02*
X462370Y1003764D01*
X466776Y1003764D02*
X462370Y1008170D01*
X462370Y1009272D01*
X463472Y1010374D01*
X465675Y1010374D01*
X466776Y1009272D01*
X459292Y1010374D02*
X454886Y1010374D01*
X454886Y1009272D01*
X459292Y1004866D01*
X459292Y1003764D01*
X489712Y1128387D02*
X488610Y1129488D01*
X489712Y1128387D02*
X489712Y1126184D01*
X488610Y1125082D01*
X484204Y1125082D01*
X483102Y1126184D01*
X483102Y1128387D01*
X484204Y1129488D01*
X483102Y1132566D02*
X483102Y1136973D01*
X487508Y1136973D02*
X483102Y1132566D01*
X487508Y1136973D02*
X488610Y1136973D01*
X489712Y1135871D01*
X489712Y1133668D01*
X488610Y1132566D01*
X488610Y1142254D02*
X489712Y1144457D01*
X488610Y1142254D02*
X486407Y1140050D01*
X484204Y1140050D01*
X483102Y1141152D01*
X483102Y1143355D01*
X484204Y1144457D01*
X485305Y1144457D01*
X486407Y1143355D01*
X486407Y1140050D01*
X490962Y1179137D02*
X489860Y1180238D01*
X490962Y1179137D02*
X490962Y1176934D01*
X489860Y1175832D01*
X485454Y1175832D01*
X484352Y1176934D01*
X484352Y1179137D01*
X485454Y1180238D01*
X489860Y1183316D02*
X490962Y1184418D01*
X490962Y1186621D01*
X489860Y1187723D01*
X488758Y1187723D01*
X487657Y1186621D01*
X487657Y1185519D01*
X487657Y1186621D02*
X486555Y1187723D01*
X485454Y1187723D01*
X484352Y1186621D01*
X484352Y1184418D01*
X485454Y1183316D01*
X485454Y1190800D02*
X489860Y1190800D01*
X490962Y1191902D01*
X490962Y1194105D01*
X489860Y1195207D01*
X485454Y1195207D01*
X484352Y1194105D01*
X484352Y1191902D01*
X485454Y1190800D01*
X489860Y1195207D01*
D16*
X473820Y1616080D02*
X657820Y1616080D01*
X657820Y1576080D01*
X473820Y1576080D02*
X473820Y1616080D01*
X463346Y1590563D02*
X470210Y1585987D01*
X470210Y1590563D02*
X463346Y1585987D01*
X467922Y1593471D02*
X470210Y1595759D01*
X463346Y1595759D01*
X463346Y1593471D02*
X463346Y1598047D01*
D11*
X461620Y1525310D02*
X466192Y1525310D01*
X461620Y1525310D02*
X457048Y1525310D01*
X461620Y1527850D02*
X466192Y1527850D01*
X461620Y1527850D02*
X457048Y1527850D01*
X461620Y1525310D02*
X461620Y1523913D01*
X461620Y1527850D02*
X461620Y1529247D01*
D16*
X474025Y1522541D02*
X475169Y1521397D01*
X475169Y1519109D01*
X474025Y1517965D01*
X469449Y1517965D01*
X468305Y1519109D01*
X468305Y1521397D01*
X469449Y1522541D01*
X474025Y1525449D02*
X475169Y1526593D01*
X475169Y1528881D01*
X474025Y1530025D01*
X472881Y1530025D01*
X471737Y1528881D01*
X471737Y1527737D01*
X471737Y1528881D02*
X470593Y1530025D01*
X469449Y1530025D01*
X468305Y1528881D01*
X468305Y1526593D01*
X469449Y1525449D01*
X468305Y1532933D02*
X468305Y1537509D01*
X468305Y1532933D02*
X472881Y1537509D01*
X474025Y1537509D01*
X475169Y1536365D01*
X475169Y1534077D01*
X474025Y1532933D01*
D11*
X487020Y1487210D02*
X491592Y1487210D01*
X487020Y1487210D02*
X482448Y1487210D01*
X487020Y1489750D02*
X491592Y1489750D01*
X487020Y1489750D02*
X482448Y1489750D01*
X487020Y1487210D02*
X487020Y1485813D01*
X487020Y1489750D02*
X487020Y1491147D01*
D16*
X500425Y1485241D02*
X501569Y1484097D01*
X501569Y1481809D01*
X500425Y1480665D01*
X495849Y1480665D01*
X494705Y1481809D01*
X494705Y1484097D01*
X495849Y1485241D01*
X500425Y1488149D02*
X501569Y1489293D01*
X501569Y1491581D01*
X500425Y1492725D01*
X499281Y1492725D01*
X498137Y1491581D01*
X498137Y1490437D01*
X498137Y1491581D02*
X496993Y1492725D01*
X495849Y1492725D01*
X494705Y1491581D01*
X494705Y1489293D01*
X495849Y1488149D01*
X500425Y1497921D02*
X501569Y1500209D01*
X500425Y1497921D02*
X498137Y1495633D01*
X495849Y1495633D01*
X494705Y1496777D01*
X494705Y1499065D01*
X495849Y1500209D01*
X496993Y1500209D01*
X498137Y1499065D01*
X498137Y1495633D01*
D11*
X415392Y1474510D02*
X410820Y1474510D01*
X406248Y1474510D01*
X410820Y1477050D02*
X415392Y1477050D01*
X410820Y1477050D02*
X406248Y1477050D01*
X410820Y1474510D02*
X410820Y1473113D01*
X410820Y1477050D02*
X410820Y1478447D01*
D16*
X424025Y1471641D02*
X425169Y1470497D01*
X425169Y1468209D01*
X424025Y1467065D01*
X419449Y1467065D01*
X418305Y1468209D01*
X418305Y1470497D01*
X419449Y1471641D01*
X418305Y1474549D02*
X418305Y1479125D01*
X418305Y1474549D02*
X422881Y1479125D01*
X424025Y1479125D01*
X425169Y1477981D01*
X425169Y1475693D01*
X424025Y1474549D01*
X425169Y1482033D02*
X425169Y1486609D01*
X425169Y1482033D02*
X421737Y1482033D01*
X422881Y1484321D01*
X422881Y1485465D01*
X421737Y1486609D01*
X419449Y1486609D01*
X418305Y1485465D01*
X418305Y1483177D01*
X419449Y1482033D01*
D11*
X559664Y1524802D02*
X559664Y1528358D01*
X566776Y1528358D02*
X566776Y1524802D01*
D16*
X571445Y1517725D02*
X578309Y1517725D01*
X578309Y1521157D01*
X577165Y1522301D01*
X574877Y1522301D01*
X573733Y1521157D01*
X573733Y1517725D01*
X573733Y1520013D02*
X571445Y1522301D01*
X576021Y1525209D02*
X578309Y1527497D01*
X571445Y1527497D01*
X571445Y1525209D02*
X571445Y1529785D01*
X572589Y1532693D02*
X571445Y1533837D01*
X571445Y1536125D01*
X572589Y1537269D01*
X577165Y1537269D01*
X578309Y1536125D01*
X578309Y1533837D01*
X577165Y1532693D01*
X576021Y1532693D01*
X574877Y1533837D01*
X574877Y1537269D01*
D11*
X542392Y1525310D02*
X537820Y1525310D01*
X533248Y1525310D01*
X537820Y1527850D02*
X542392Y1527850D01*
X537820Y1527850D02*
X533248Y1527850D01*
X537820Y1525310D02*
X537820Y1523913D01*
X537820Y1527850D02*
X537820Y1529247D01*
D16*
X550675Y1523041D02*
X551819Y1521897D01*
X551819Y1519609D01*
X550675Y1518465D01*
X546099Y1518465D01*
X544955Y1519609D01*
X544955Y1521897D01*
X546099Y1523041D01*
X549531Y1525949D02*
X551819Y1528237D01*
X544955Y1528237D01*
X544955Y1525949D02*
X544955Y1530525D01*
X546099Y1533433D02*
X544955Y1534577D01*
X544955Y1536865D01*
X546099Y1538009D01*
X550675Y1538009D01*
X551819Y1536865D01*
X551819Y1534577D01*
X550675Y1533433D01*
X549531Y1533433D01*
X548387Y1534577D01*
X548387Y1538009D01*
D11*
X516992Y1525310D02*
X512420Y1525310D01*
X507848Y1525310D01*
X512420Y1527850D02*
X516992Y1527850D01*
X512420Y1527850D02*
X507848Y1527850D01*
X512420Y1525310D02*
X512420Y1523913D01*
X512420Y1527850D02*
X512420Y1529247D01*
D16*
X525325Y1522841D02*
X526469Y1521697D01*
X526469Y1519409D01*
X525325Y1518265D01*
X520749Y1518265D01*
X519605Y1519409D01*
X519605Y1521697D01*
X520749Y1522841D01*
X519605Y1525749D02*
X519605Y1530325D01*
X519605Y1525749D02*
X524181Y1530325D01*
X525325Y1530325D01*
X526469Y1529181D01*
X526469Y1526893D01*
X525325Y1525749D01*
X524181Y1533233D02*
X526469Y1535521D01*
X519605Y1535521D01*
X519605Y1533233D02*
X519605Y1537809D01*
D11*
X491592Y1525310D02*
X487020Y1525310D01*
X482448Y1525310D01*
X487020Y1527850D02*
X491592Y1527850D01*
X487020Y1527850D02*
X482448Y1527850D01*
X487020Y1525310D02*
X487020Y1523913D01*
X487020Y1527850D02*
X487020Y1529247D01*
D16*
X500275Y1522191D02*
X501419Y1521047D01*
X501419Y1518759D01*
X500275Y1517615D01*
X495699Y1517615D01*
X494555Y1518759D01*
X494555Y1521047D01*
X495699Y1522191D01*
X500275Y1525099D02*
X501419Y1526243D01*
X501419Y1528531D01*
X500275Y1529675D01*
X499131Y1529675D01*
X497987Y1528531D01*
X497987Y1527387D01*
X497987Y1528531D02*
X496843Y1529675D01*
X495699Y1529675D01*
X494555Y1528531D01*
X494555Y1526243D01*
X495699Y1525099D01*
X500275Y1532583D02*
X501419Y1533727D01*
X501419Y1536015D01*
X500275Y1537159D01*
X499131Y1537159D01*
X497987Y1536015D01*
X497987Y1534871D01*
X497987Y1536015D02*
X496843Y1537159D01*
X495699Y1537159D01*
X494555Y1536015D01*
X494555Y1533727D01*
X495699Y1532583D01*
D11*
X415392Y1525310D02*
X410820Y1525310D01*
X406248Y1525310D01*
X410820Y1527850D02*
X415392Y1527850D01*
X410820Y1527850D02*
X406248Y1527850D01*
X410820Y1525310D02*
X410820Y1523913D01*
X410820Y1527850D02*
X410820Y1529247D01*
D16*
X423875Y1522441D02*
X425019Y1521297D01*
X425019Y1519009D01*
X423875Y1517865D01*
X419299Y1517865D01*
X418155Y1519009D01*
X418155Y1521297D01*
X419299Y1522441D01*
X423875Y1525349D02*
X425019Y1526493D01*
X425019Y1528781D01*
X423875Y1529925D01*
X422731Y1529925D01*
X421587Y1528781D01*
X421587Y1527637D01*
X421587Y1528781D02*
X420443Y1529925D01*
X419299Y1529925D01*
X418155Y1528781D01*
X418155Y1526493D01*
X419299Y1525349D01*
X425019Y1532833D02*
X425019Y1537409D01*
X425019Y1532833D02*
X421587Y1532833D01*
X422731Y1535121D01*
X422731Y1536265D01*
X421587Y1537409D01*
X419299Y1537409D01*
X418155Y1536265D01*
X418155Y1533977D01*
X419299Y1532833D01*
D11*
X436220Y1487210D02*
X440792Y1487210D01*
X436220Y1487210D02*
X431648Y1487210D01*
X436220Y1489750D02*
X440792Y1489750D01*
X436220Y1489750D02*
X431648Y1489750D01*
X436220Y1487210D02*
X436220Y1485813D01*
X436220Y1489750D02*
X436220Y1491147D01*
D16*
X451125Y1483441D02*
X452269Y1482297D01*
X452269Y1480009D01*
X451125Y1478865D01*
X446549Y1478865D01*
X445405Y1480009D01*
X445405Y1482297D01*
X446549Y1483441D01*
X451125Y1486349D02*
X452269Y1487493D01*
X452269Y1489781D01*
X451125Y1490925D01*
X449981Y1490925D01*
X448837Y1489781D01*
X448837Y1488637D01*
X448837Y1489781D02*
X447693Y1490925D01*
X446549Y1490925D01*
X445405Y1489781D01*
X445405Y1487493D01*
X446549Y1486349D01*
X451125Y1493833D02*
X452269Y1494977D01*
X452269Y1497265D01*
X451125Y1498409D01*
X449981Y1498409D01*
X448837Y1497265D01*
X447693Y1498409D01*
X446549Y1498409D01*
X445405Y1497265D01*
X445405Y1494977D01*
X446549Y1493833D01*
X447693Y1493833D01*
X448837Y1494977D01*
X449981Y1493833D01*
X451125Y1493833D01*
X448837Y1494977D02*
X448837Y1497265D01*
D11*
X484848Y1384150D02*
X489420Y1384150D01*
X493992Y1384150D01*
X489420Y1381610D02*
X484848Y1381610D01*
X489420Y1381610D02*
X493992Y1381610D01*
X489420Y1384150D02*
X489420Y1385547D01*
X489420Y1381610D02*
X489420Y1380213D01*
X502862Y1377496D02*
X503964Y1376394D01*
X503964Y1374191D01*
X502862Y1373090D01*
X498456Y1373090D01*
X497354Y1374191D01*
X497354Y1376394D01*
X498456Y1377496D01*
X502862Y1380574D02*
X503964Y1381675D01*
X503964Y1383879D01*
X502862Y1384980D01*
X501760Y1384980D01*
X500659Y1383879D01*
X500659Y1382777D01*
X500659Y1383879D02*
X499557Y1384980D01*
X498456Y1384980D01*
X497354Y1383879D01*
X497354Y1381675D01*
X498456Y1380574D01*
X498456Y1388058D02*
X497354Y1389159D01*
X497354Y1391363D01*
X498456Y1392464D01*
X502862Y1392464D01*
X503964Y1391363D01*
X503964Y1389159D01*
X502862Y1388058D01*
X501760Y1388058D01*
X500659Y1389159D01*
X500659Y1392464D01*
D10*
X424920Y1415580D02*
X424920Y1447580D01*
X398920Y1447580D02*
X398920Y1415580D01*
D16*
X429555Y1426715D02*
X436419Y1426715D01*
X429555Y1426715D02*
X429555Y1431291D01*
X434131Y1434199D02*
X436419Y1436487D01*
X429555Y1436487D01*
X429555Y1434199D02*
X429555Y1438775D01*
X427775Y1377391D02*
X428919Y1376247D01*
X428919Y1373959D01*
X427775Y1372815D01*
X423199Y1372815D01*
X422055Y1373959D01*
X422055Y1376247D01*
X423199Y1377391D01*
X422055Y1380299D02*
X422055Y1384875D01*
X422055Y1380299D02*
X426631Y1384875D01*
X427775Y1384875D01*
X428919Y1383731D01*
X428919Y1381443D01*
X427775Y1380299D01*
X427775Y1387783D02*
X423199Y1387783D01*
X427775Y1387783D02*
X428919Y1388927D01*
X428919Y1391215D01*
X427775Y1392359D01*
X423199Y1392359D01*
X422055Y1391215D01*
X422055Y1388927D01*
X423199Y1387783D01*
X427775Y1392359D01*
D10*
X390450Y1176860D02*
X390450Y1141300D01*
X455990Y1141300D01*
X455990Y1176860D01*
X390450Y1176860D01*
D16*
X430355Y1156757D02*
X432643Y1156757D01*
X431499Y1156757D02*
X431499Y1163621D01*
X432643Y1163621D02*
X430355Y1163621D01*
X424221Y1163621D02*
X423077Y1162477D01*
X424221Y1163621D02*
X426509Y1163621D01*
X427653Y1162477D01*
X427653Y1157901D01*
X426509Y1156757D01*
X424221Y1156757D01*
X423077Y1157901D01*
X420169Y1156757D02*
X415593Y1156757D01*
X420169Y1156757D02*
X415593Y1161333D01*
X415593Y1162477D01*
X416737Y1163621D01*
X419025Y1163621D01*
X420169Y1162477D01*
D11*
X612242Y951524D02*
X615798Y951524D01*
X615798Y958636D02*
X612242Y958636D01*
X622360Y966064D02*
X622360Y972674D01*
X619056Y972674D01*
X617954Y971572D01*
X617954Y969369D01*
X619056Y968267D01*
X622360Y968267D01*
X620157Y968267D02*
X617954Y966064D01*
X614876Y966064D02*
X610470Y966064D01*
X614876Y966064D02*
X610470Y970470D01*
X610470Y971572D01*
X611572Y972674D01*
X613775Y972674D01*
X614876Y971572D01*
X607392Y966064D02*
X602986Y966064D01*
X607392Y966064D02*
X602986Y970470D01*
X602986Y971572D01*
X604087Y972674D01*
X606291Y972674D01*
X607392Y971572D01*
X702920Y1220510D02*
X707492Y1220510D01*
X702920Y1220510D02*
X698348Y1220510D01*
X702920Y1223050D02*
X707492Y1223050D01*
X702920Y1223050D02*
X698348Y1223050D01*
X702920Y1220510D02*
X702920Y1219113D01*
X702920Y1223050D02*
X702920Y1224447D01*
X717840Y1217198D02*
X718942Y1216097D01*
X718942Y1213894D01*
X717840Y1212792D01*
X713434Y1212792D01*
X712332Y1213894D01*
X712332Y1216097D01*
X713434Y1217198D01*
X712332Y1220276D02*
X712332Y1224683D01*
X716738Y1224683D02*
X712332Y1220276D01*
X716738Y1224683D02*
X717840Y1224683D01*
X718942Y1223581D01*
X718942Y1221378D01*
X717840Y1220276D01*
X717840Y1227760D02*
X718942Y1228862D01*
X718942Y1231065D01*
X717840Y1232167D01*
X716738Y1232167D01*
X715637Y1231065D01*
X714535Y1232167D01*
X713434Y1232167D01*
X712332Y1231065D01*
X712332Y1228862D01*
X713434Y1227760D01*
X714535Y1227760D01*
X715637Y1228862D01*
X716738Y1227760D01*
X717840Y1227760D01*
X715637Y1228862D02*
X715637Y1231065D01*
X694792Y1220510D02*
X690220Y1220510D01*
X685648Y1220510D01*
X690220Y1223050D02*
X694792Y1223050D01*
X690220Y1223050D02*
X685648Y1223050D01*
X690220Y1220510D02*
X690220Y1219113D01*
X690220Y1223050D02*
X690220Y1224447D01*
X682142Y1215597D02*
X681040Y1216698D01*
X682142Y1215597D02*
X682142Y1213394D01*
X681040Y1212292D01*
X676634Y1212292D01*
X675532Y1213394D01*
X675532Y1215597D01*
X676634Y1216698D01*
X675532Y1219776D02*
X675532Y1224183D01*
X679938Y1224183D02*
X675532Y1219776D01*
X679938Y1224183D02*
X681040Y1224183D01*
X682142Y1223081D01*
X682142Y1220878D01*
X681040Y1219776D01*
X676634Y1227260D02*
X675532Y1228362D01*
X675532Y1230565D01*
X676634Y1231667D01*
X681040Y1231667D01*
X682142Y1230565D01*
X682142Y1228362D01*
X681040Y1227260D01*
X679938Y1227260D01*
X678837Y1228362D01*
X678837Y1231667D01*
X603098Y1047536D02*
X599542Y1047536D01*
X599542Y1040424D02*
X603098Y1040424D01*
D16*
X611035Y1054465D02*
X611035Y1061329D01*
X607603Y1061329D01*
X606459Y1060185D01*
X606459Y1057897D01*
X607603Y1056753D01*
X611035Y1056753D01*
X608747Y1056753D02*
X606459Y1054465D01*
X603551Y1059041D02*
X601263Y1061329D01*
X601263Y1054465D01*
X603551Y1054465D02*
X598975Y1054465D01*
X593779Y1060185D02*
X591491Y1061329D01*
X593779Y1060185D02*
X596067Y1057897D01*
X596067Y1055609D01*
X594923Y1054465D01*
X592635Y1054465D01*
X591491Y1055609D01*
X591491Y1056753D01*
X592635Y1057897D01*
X596067Y1057897D01*
D10*
X374420Y1386880D02*
X374420Y1391480D01*
X374420Y1386880D02*
X374420Y1382280D01*
X374420Y1386880D02*
X371320Y1389218D01*
X374266Y1386626D02*
X371320Y1384696D01*
D16*
X355716Y1381027D02*
X348852Y1381027D01*
X348852Y1384459D01*
X349996Y1385603D01*
X354572Y1385603D01*
X355716Y1384459D01*
X355716Y1381027D01*
X355716Y1391943D02*
X348852Y1391943D01*
X352284Y1388511D02*
X355716Y1391943D01*
X352284Y1393087D02*
X352284Y1388511D01*
D10*
X374420Y1366080D02*
X374420Y1361480D01*
X374420Y1356880D01*
X374420Y1361480D02*
X371320Y1363818D01*
X374266Y1361226D02*
X371320Y1359296D01*
D16*
X355476Y1354867D02*
X348612Y1354867D01*
X348612Y1358299D01*
X349756Y1359443D01*
X354332Y1359443D01*
X355476Y1358299D01*
X355476Y1354867D01*
X355476Y1362351D02*
X355476Y1366927D01*
X355476Y1362351D02*
X352044Y1362351D01*
X353188Y1364639D01*
X353188Y1365783D01*
X352044Y1366927D01*
X349756Y1366927D01*
X348612Y1365783D01*
X348612Y1363495D01*
X349756Y1362351D01*
D10*
X457020Y1312380D02*
X461620Y1312380D01*
X466220Y1312380D01*
X461620Y1312380D02*
X459282Y1309280D01*
X461874Y1312226D02*
X463804Y1309280D01*
D16*
X469212Y1304807D02*
X476076Y1304807D01*
X469212Y1304807D02*
X469212Y1308239D01*
X470356Y1309383D01*
X474932Y1309383D01*
X476076Y1308239D01*
X476076Y1304807D01*
X474932Y1314579D02*
X476076Y1316867D01*
X474932Y1314579D02*
X472644Y1312291D01*
X470356Y1312291D01*
X469212Y1313435D01*
X469212Y1315723D01*
X470356Y1316867D01*
X471500Y1316867D01*
X472644Y1315723D01*
X472644Y1312291D01*
D11*
X439776Y1312458D02*
X439776Y1308902D01*
X432664Y1308902D02*
X432664Y1312458D01*
D16*
X443337Y1300693D02*
X450201Y1300693D01*
X450201Y1304124D01*
X449057Y1305268D01*
X446769Y1305268D01*
X445625Y1304124D01*
X445625Y1300693D01*
X445625Y1302980D02*
X443337Y1305268D01*
X447913Y1308177D02*
X450201Y1310465D01*
X443337Y1310465D01*
X443337Y1308177D02*
X443337Y1312753D01*
X443337Y1315661D02*
X443337Y1320237D01*
X443337Y1315661D02*
X447913Y1320237D01*
X449057Y1320237D01*
X450201Y1319093D01*
X450201Y1316805D01*
X449057Y1315661D01*
D11*
X331064Y1385102D02*
X331064Y1388658D01*
X338176Y1388658D02*
X338176Y1385102D01*
D16*
X326949Y1382785D02*
X320085Y1382785D01*
X326949Y1382785D02*
X326949Y1386217D01*
X325805Y1387361D01*
X323517Y1387361D01*
X322373Y1386217D01*
X322373Y1382785D01*
X322373Y1385073D02*
X320085Y1387361D01*
X325805Y1390269D02*
X326949Y1391413D01*
X326949Y1393701D01*
X325805Y1394845D01*
X324661Y1394845D01*
X323517Y1393701D01*
X323517Y1392557D01*
X323517Y1393701D02*
X322373Y1394845D01*
X321229Y1394845D01*
X320085Y1393701D01*
X320085Y1391413D01*
X321229Y1390269D01*
D11*
X338176Y1350558D02*
X338176Y1347002D01*
X331064Y1347002D02*
X331064Y1350558D01*
D16*
X326731Y1338723D02*
X319867Y1338723D01*
X326731Y1338723D02*
X326731Y1342154D01*
X325587Y1343298D01*
X323299Y1343298D01*
X322155Y1342154D01*
X322155Y1338723D01*
X322155Y1341010D02*
X319867Y1343298D01*
X324443Y1346207D02*
X326731Y1348495D01*
X319867Y1348495D01*
X319867Y1346207D02*
X319867Y1350783D01*
X319867Y1357123D02*
X326731Y1357123D01*
X323299Y1353691D01*
X323299Y1358267D01*
X402427Y1035058D02*
X403571Y1033914D01*
X403571Y1031627D01*
X402427Y1030483D01*
X397851Y1030483D01*
X396707Y1031627D01*
X396707Y1033914D01*
X397851Y1035058D01*
X401283Y1037967D02*
X403571Y1040255D01*
X396707Y1040255D01*
X396707Y1037967D02*
X396707Y1042543D01*
X402427Y1045451D02*
X403571Y1046595D01*
X403571Y1048883D01*
X402427Y1050027D01*
X401283Y1050027D01*
X400139Y1048883D01*
X398995Y1050027D01*
X397851Y1050027D01*
X396707Y1048883D01*
X396707Y1046595D01*
X397851Y1045451D01*
X398995Y1045451D01*
X400139Y1046595D01*
X401283Y1045451D01*
X402427Y1045451D01*
X400139Y1046595D02*
X400139Y1048883D01*
D10*
X365412Y1067402D02*
X365412Y1069942D01*
X364904Y1069942D01*
X364904Y1069891D01*
X315399Y1069891D01*
X315399Y1067580D01*
X365615Y1020590D02*
X365615Y1017872D01*
X365107Y1017872D01*
X365107Y1017847D01*
X315425Y1017847D01*
X315425Y1020107D01*
X365920Y1034890D02*
X365920Y1051908D01*
X315120Y1052416D02*
X315120Y1043780D01*
X315120Y1035144D01*
X315120Y1043780D02*
X340520Y1018380D01*
D12*
X350804Y1040992D02*
X350804Y1046076D01*
X350804Y1040992D02*
X348262Y1040992D01*
X347415Y1041839D01*
X347415Y1045229D01*
X348262Y1046076D01*
X350804Y1046076D01*
X345191Y1044382D02*
X343497Y1046076D01*
X343497Y1040992D01*
X345191Y1040992D02*
X341802Y1040992D01*
X339578Y1041839D02*
X339578Y1045229D01*
X338731Y1046076D01*
X337036Y1046076D01*
X336189Y1045229D01*
X336189Y1041839D01*
X337036Y1040992D01*
X338731Y1040992D01*
X339578Y1041839D01*
X336189Y1045229D01*
X333965Y1045229D02*
X333965Y1041839D01*
X333965Y1045229D02*
X333118Y1046076D01*
X331423Y1046076D01*
X330576Y1045229D01*
X330576Y1041839D01*
X331423Y1040992D01*
X333118Y1040992D01*
X333965Y1041839D01*
X330576Y1045229D01*
D10*
X365412Y1169002D02*
X365412Y1171542D01*
X364904Y1171542D01*
X364904Y1171491D01*
X315399Y1171491D01*
X315399Y1169180D01*
X365615Y1122190D02*
X365615Y1119472D01*
X365107Y1119472D01*
X365107Y1119447D01*
X315425Y1119447D01*
X315425Y1121707D01*
X365920Y1136490D02*
X365920Y1153508D01*
X315120Y1154016D02*
X315120Y1145380D01*
X315120Y1136744D01*
X315120Y1145380D02*
X340520Y1119980D01*
D12*
X350404Y1142992D02*
X350404Y1148076D01*
X350404Y1142992D02*
X347862Y1142992D01*
X347015Y1143839D01*
X347015Y1147229D01*
X347862Y1148076D01*
X350404Y1148076D01*
X344791Y1146382D02*
X343097Y1148076D01*
X343097Y1142992D01*
X344791Y1142992D02*
X341402Y1142992D01*
X339178Y1143839D02*
X339178Y1147229D01*
X338331Y1148076D01*
X336636Y1148076D01*
X335789Y1147229D01*
X335789Y1143839D01*
X336636Y1142992D01*
X338331Y1142992D01*
X339178Y1143839D01*
X335789Y1147229D01*
X333565Y1146382D02*
X331870Y1148076D01*
X331870Y1142992D01*
X330176Y1142992D02*
X333565Y1142992D01*
D10*
X365412Y1270602D02*
X365412Y1273142D01*
X364904Y1273142D01*
X364904Y1273091D01*
X315399Y1273091D01*
X315399Y1270780D01*
X365615Y1223790D02*
X365615Y1221072D01*
X365107Y1221072D01*
X365107Y1221047D01*
X315425Y1221047D01*
X315425Y1223307D01*
X365920Y1238090D02*
X365920Y1255108D01*
X315120Y1255616D02*
X315120Y1246980D01*
X315120Y1238344D01*
X315120Y1246980D02*
X340520Y1221580D01*
D12*
X378028Y1229028D02*
X383112Y1229028D01*
X378028Y1229028D02*
X378028Y1231570D01*
X378875Y1232418D01*
X382265Y1232418D01*
X383112Y1231570D01*
X383112Y1229028D01*
X381418Y1234641D02*
X383112Y1236336D01*
X378028Y1236336D01*
X378028Y1234641D02*
X378028Y1238031D01*
X378875Y1240254D02*
X382265Y1240254D01*
X383112Y1241102D01*
X383112Y1242796D01*
X382265Y1243644D01*
X378875Y1243644D01*
X378028Y1242796D01*
X378028Y1241102D01*
X378875Y1240254D01*
X382265Y1243644D01*
X378028Y1245867D02*
X378028Y1249257D01*
X378028Y1245867D02*
X381418Y1249257D01*
X382265Y1249257D01*
X383112Y1248409D01*
X383112Y1246715D01*
X382265Y1245867D01*
D10*
X816712Y1070142D02*
X816712Y1067602D01*
X816712Y1070142D02*
X816204Y1070142D01*
X816204Y1070091D01*
X766699Y1070091D01*
X766699Y1067780D01*
X816915Y1020790D02*
X816915Y1018072D01*
X816407Y1018072D01*
X816407Y1018047D01*
X766725Y1018047D01*
X766725Y1020307D01*
X817220Y1035090D02*
X817220Y1052108D01*
X766420Y1052616D02*
X766420Y1043980D01*
X766420Y1035344D01*
X766420Y1043980D02*
X791820Y1018580D01*
D12*
X829328Y1026028D02*
X834412Y1026028D01*
X829328Y1026028D02*
X829328Y1028570D01*
X830175Y1029418D01*
X833565Y1029418D01*
X834412Y1028570D01*
X834412Y1026028D01*
X832718Y1031641D02*
X834412Y1033336D01*
X829328Y1033336D01*
X829328Y1031641D02*
X829328Y1035031D01*
X830175Y1037254D02*
X833565Y1037254D01*
X834412Y1038102D01*
X834412Y1039796D01*
X833565Y1040644D01*
X830175Y1040644D01*
X829328Y1039796D01*
X829328Y1038102D01*
X830175Y1037254D01*
X833565Y1040644D01*
X833565Y1042867D02*
X834412Y1043715D01*
X834412Y1045409D01*
X833565Y1046257D01*
X832718Y1046257D01*
X831870Y1045409D01*
X831870Y1044562D01*
X831870Y1045409D02*
X831023Y1046257D01*
X830175Y1046257D01*
X829328Y1045409D01*
X829328Y1043715D01*
X830175Y1042867D01*
D10*
X816712Y1270802D02*
X816712Y1273342D01*
X816204Y1273342D01*
X816204Y1273291D01*
X766699Y1273291D01*
X766699Y1270980D01*
X816915Y1223990D02*
X816915Y1221272D01*
X816407Y1221272D01*
X816407Y1221247D01*
X766725Y1221247D01*
X766725Y1223507D01*
X817220Y1238290D02*
X817220Y1255308D01*
X766420Y1255816D02*
X766420Y1247180D01*
X766420Y1238544D01*
X766420Y1247180D02*
X791820Y1221780D01*
D12*
X829328Y1230228D02*
X834412Y1230228D01*
X829328Y1230228D02*
X829328Y1232770D01*
X830175Y1233618D01*
X833565Y1233618D01*
X834412Y1232770D01*
X834412Y1230228D01*
X832718Y1235841D02*
X834412Y1237536D01*
X829328Y1237536D01*
X829328Y1235841D02*
X829328Y1239231D01*
X830175Y1241454D02*
X833565Y1241454D01*
X834412Y1242302D01*
X834412Y1243996D01*
X833565Y1244844D01*
X830175Y1244844D01*
X829328Y1243996D01*
X829328Y1242302D01*
X830175Y1241454D01*
X833565Y1244844D01*
X834412Y1247067D02*
X834412Y1250457D01*
X834412Y1247067D02*
X831870Y1247067D01*
X832718Y1248762D01*
X832718Y1249609D01*
X831870Y1250457D01*
X830175Y1250457D01*
X829328Y1249609D01*
X829328Y1247915D01*
X830175Y1247067D01*
D10*
X347520Y883380D02*
X347520Y877380D01*
X339520Y877380D01*
X347520Y899380D02*
X347520Y905380D01*
X339520Y905380D01*
D16*
X360079Y883760D02*
X364655Y883760D01*
X365799Y884904D01*
X365799Y887192D01*
X364655Y888336D01*
X360079Y888336D01*
X358935Y887192D01*
X358935Y884904D01*
X360079Y883760D01*
X361223Y886048D02*
X358935Y888336D01*
X363511Y891244D02*
X365799Y893532D01*
X358935Y893532D01*
X358935Y891244D02*
X358935Y895820D01*
D11*
X342298Y869536D02*
X338742Y869536D01*
X338742Y862424D02*
X342298Y862424D01*
D16*
X350775Y857769D02*
X350775Y850905D01*
X350775Y857769D02*
X347343Y857769D01*
X346199Y856625D01*
X346199Y854337D01*
X347343Y853193D01*
X350775Y853193D01*
X348487Y853193D02*
X346199Y850905D01*
X343291Y855481D02*
X341003Y857769D01*
X341003Y850905D01*
X343291Y850905D02*
X338715Y850905D01*
X335807Y852049D02*
X335807Y856625D01*
X334663Y857769D01*
X332375Y857769D01*
X331231Y856625D01*
X331231Y852049D01*
X332375Y850905D01*
X334663Y850905D01*
X335807Y852049D01*
X331231Y856625D01*
D11*
X318676Y940402D02*
X318676Y943958D01*
X311564Y943958D02*
X311564Y940402D01*
D16*
X322137Y935737D02*
X329001Y935737D01*
X329001Y939169D01*
X327857Y940313D01*
X325569Y940313D01*
X324425Y939169D01*
X324425Y935737D01*
X324425Y938025D02*
X322137Y940313D01*
X323281Y943221D02*
X322137Y944365D01*
X322137Y946653D01*
X323281Y947797D01*
X327857Y947797D01*
X329001Y946653D01*
X329001Y944365D01*
X327857Y943221D01*
X326713Y943221D01*
X325569Y944365D01*
X325569Y947797D01*
D11*
X339250Y1178908D02*
X339250Y1183480D01*
X339250Y1188052D01*
X341790Y1183480D02*
X341790Y1178908D01*
X341790Y1183480D02*
X341790Y1188052D01*
X339250Y1183480D02*
X337853Y1183480D01*
X341790Y1183480D02*
X343187Y1183480D01*
D16*
X369327Y1187057D02*
X370471Y1188201D01*
X372759Y1188201D01*
X373903Y1187057D01*
X373903Y1182481D01*
X372759Y1181337D01*
X370471Y1181337D01*
X369327Y1182481D01*
X364131Y1187057D02*
X361843Y1188201D01*
X364131Y1187057D02*
X366419Y1184769D01*
X366419Y1182481D01*
X365275Y1181337D01*
X362987Y1181337D01*
X361843Y1182481D01*
X361843Y1183625D01*
X362987Y1184769D01*
X366419Y1184769D01*
D11*
X339250Y1280508D02*
X339250Y1285080D01*
X339250Y1289652D01*
X341790Y1285080D02*
X341790Y1280508D01*
X341790Y1285080D02*
X341790Y1289652D01*
X339250Y1285080D02*
X337853Y1285080D01*
X341790Y1285080D02*
X343187Y1285080D01*
D16*
X368127Y1287157D02*
X369271Y1288301D01*
X371559Y1288301D01*
X372703Y1287157D01*
X372703Y1282581D01*
X371559Y1281437D01*
X369271Y1281437D01*
X368127Y1282581D01*
X365219Y1287157D02*
X364075Y1288301D01*
X361787Y1288301D01*
X360643Y1287157D01*
X360643Y1286013D01*
X361787Y1284869D01*
X362931Y1284869D01*
X361787Y1284869D02*
X360643Y1283725D01*
X360643Y1282581D01*
X361787Y1281437D01*
X364075Y1281437D01*
X365219Y1282581D01*
D11*
X790550Y1082080D02*
X790550Y1077508D01*
X790550Y1082080D02*
X790550Y1086652D01*
X793090Y1082080D02*
X793090Y1077508D01*
X793090Y1082080D02*
X793090Y1086652D01*
X790550Y1082080D02*
X789153Y1082080D01*
X793090Y1082080D02*
X794487Y1082080D01*
D16*
X818627Y1084657D02*
X819771Y1085801D01*
X822059Y1085801D01*
X823203Y1084657D01*
X823203Y1080081D01*
X822059Y1078937D01*
X819771Y1078937D01*
X818627Y1080081D01*
X815719Y1085801D02*
X811143Y1085801D01*
X815719Y1085801D02*
X815719Y1082369D01*
X813431Y1083513D01*
X812287Y1083513D01*
X811143Y1082369D01*
X811143Y1080081D01*
X812287Y1078937D01*
X814575Y1078937D01*
X815719Y1080081D01*
D11*
X790550Y1280708D02*
X790550Y1285280D01*
X790550Y1289852D01*
X793090Y1285280D02*
X793090Y1280708D01*
X793090Y1285280D02*
X793090Y1289852D01*
X790550Y1285280D02*
X789153Y1285280D01*
X793090Y1285280D02*
X794487Y1285280D01*
X812612Y1280830D02*
X813714Y1279729D01*
X813714Y1277525D01*
X812612Y1276424D01*
X808206Y1276424D01*
X807104Y1277525D01*
X807104Y1279729D01*
X808206Y1280830D01*
X811510Y1283908D02*
X813714Y1286111D01*
X807104Y1286111D01*
X807104Y1283908D02*
X807104Y1288314D01*
X339250Y1081880D02*
X339250Y1077308D01*
X339250Y1081880D02*
X339250Y1086452D01*
X341790Y1081880D02*
X341790Y1077308D01*
X341790Y1081880D02*
X341790Y1086452D01*
X339250Y1081880D02*
X337853Y1081880D01*
X341790Y1081880D02*
X343187Y1081880D01*
X341970Y1095672D02*
X343072Y1096774D01*
X345275Y1096774D01*
X346376Y1095672D01*
X346376Y1091266D01*
X345275Y1090164D01*
X343072Y1090164D01*
X341970Y1091266D01*
X338892Y1090164D02*
X334486Y1090164D01*
X338892Y1090164D02*
X334486Y1094570D01*
X334486Y1095672D01*
X335587Y1096774D01*
X337791Y1096774D01*
X338892Y1095672D01*
D10*
X506070Y1033900D02*
X518770Y1033900D01*
X518770Y1018660D02*
X506070Y1018660D01*
D16*
X519213Y1035487D02*
X519213Y1042351D01*
X514637Y1042351D01*
X516925Y1038919D02*
X519213Y1038919D01*
X511729Y1035487D02*
X507153Y1035487D01*
X511729Y1035487D02*
X507153Y1040063D01*
X507153Y1041207D01*
X508297Y1042351D01*
X510585Y1042351D01*
X511729Y1041207D01*
D11*
X501498Y888024D02*
X497942Y888024D01*
X497942Y895136D02*
X501498Y895136D01*
D16*
X509187Y898737D02*
X509187Y905601D01*
X505756Y905601D01*
X504612Y904457D01*
X504612Y902169D01*
X505756Y901025D01*
X509187Y901025D01*
X506900Y901025D02*
X504612Y898737D01*
X501703Y898737D02*
X497127Y898737D01*
X501703Y898737D02*
X497127Y903313D01*
X497127Y904457D01*
X498271Y905601D01*
X500559Y905601D01*
X501703Y904457D01*
X494219Y899881D02*
X493075Y898737D01*
X490787Y898737D01*
X489643Y899881D01*
X489643Y904457D01*
X490787Y905601D01*
X493075Y905601D01*
X494219Y904457D01*
X494219Y903313D01*
X493075Y902169D01*
X489643Y902169D01*
D11*
X561442Y984036D02*
X564998Y984036D01*
X564998Y976924D02*
X561442Y976924D01*
D16*
X573687Y987637D02*
X573687Y994501D01*
X570256Y994501D01*
X569112Y993357D01*
X569112Y991069D01*
X570256Y989925D01*
X573687Y989925D01*
X571400Y989925D02*
X569112Y987637D01*
X566203Y993357D02*
X565059Y994501D01*
X562771Y994501D01*
X561627Y993357D01*
X561627Y992213D01*
X562771Y991069D01*
X563915Y991069D01*
X562771Y991069D02*
X561627Y989925D01*
X561627Y988781D01*
X562771Y987637D01*
X565059Y987637D01*
X566203Y988781D01*
X558719Y987637D02*
X554143Y987637D01*
X558719Y987637D02*
X554143Y992213D01*
X554143Y993357D01*
X555287Y994501D01*
X557575Y994501D01*
X558719Y993357D01*
X372880Y889040D02*
X372880Y817920D01*
X372880Y889040D02*
X372880Y904280D01*
X474160Y904280D01*
X474160Y889040D01*
X474160Y817920D01*
X372880Y817920D01*
X372880Y889040D02*
X474160Y889040D01*
D12*
X426578Y839516D02*
X423189Y834432D01*
X426578Y834432D02*
X423189Y839516D01*
X418423Y839516D02*
X418423Y834432D01*
X420965Y836974D02*
X418423Y839516D01*
X417576Y836974D02*
X420965Y836974D01*
D11*
X564490Y1094780D02*
X564490Y1099352D01*
X564490Y1094780D02*
X564490Y1090208D01*
X561950Y1094780D02*
X561950Y1099352D01*
X561950Y1094780D02*
X561950Y1090208D01*
X564490Y1094780D02*
X565887Y1094780D01*
X561950Y1094780D02*
X560553Y1094780D01*
D16*
X567009Y1108385D02*
X568153Y1109529D01*
X570441Y1109529D01*
X571585Y1108385D01*
X571585Y1103809D01*
X570441Y1102665D01*
X568153Y1102665D01*
X567009Y1103809D01*
X564101Y1102665D02*
X559525Y1102665D01*
X564101Y1102665D02*
X559525Y1107241D01*
X559525Y1108385D01*
X560669Y1109529D01*
X562957Y1109529D01*
X564101Y1108385D01*
X556617Y1108385D02*
X555473Y1109529D01*
X553185Y1109529D01*
X552041Y1108385D01*
X552041Y1107241D01*
X553185Y1106097D01*
X554329Y1106097D01*
X553185Y1106097D02*
X552041Y1104953D01*
X552041Y1103809D01*
X553185Y1102665D01*
X555473Y1102665D01*
X556617Y1103809D01*
D10*
X504420Y1062380D02*
X498420Y1062380D01*
X498420Y1070380D01*
X520420Y1062380D02*
X526420Y1062380D01*
X526420Y1070380D01*
D16*
X527277Y1056985D02*
X534141Y1056985D01*
X534141Y1054697D02*
X534141Y1059273D01*
X531853Y1062181D02*
X534141Y1064469D01*
X527277Y1064469D01*
X527277Y1062181D02*
X527277Y1066757D01*
D11*
X548742Y1136436D02*
X552298Y1136436D01*
X552298Y1129324D02*
X548742Y1129324D01*
D16*
X568405Y1127665D02*
X575269Y1127665D01*
X575269Y1131097D01*
X574125Y1132241D01*
X571837Y1132241D01*
X570693Y1131097D01*
X570693Y1127665D01*
X570693Y1129953D02*
X568405Y1132241D01*
X568405Y1138581D02*
X575269Y1138581D01*
X571837Y1135149D01*
X571837Y1139725D01*
D11*
X508864Y1181902D02*
X508864Y1185458D01*
X515976Y1185458D02*
X515976Y1181902D01*
D16*
X520577Y1174213D02*
X527441Y1174213D01*
X527441Y1177644D01*
X526297Y1178788D01*
X524009Y1178788D01*
X522865Y1177644D01*
X522865Y1174213D01*
X522865Y1176500D02*
X520577Y1178788D01*
X520577Y1181697D02*
X520577Y1186273D01*
X520577Y1181697D02*
X525153Y1186273D01*
X526297Y1186273D01*
X527441Y1185129D01*
X527441Y1182841D01*
X526297Y1181697D01*
X525153Y1189181D02*
X527441Y1191469D01*
X520577Y1191469D01*
X520577Y1189181D02*
X520577Y1193757D01*
D11*
X541376Y1185458D02*
X541376Y1181902D01*
X534264Y1181902D02*
X534264Y1185458D01*
D16*
X545977Y1174213D02*
X552841Y1174213D01*
X552841Y1177644D01*
X551697Y1178788D01*
X549409Y1178788D01*
X548265Y1177644D01*
X548265Y1174213D01*
X548265Y1176500D02*
X545977Y1178788D01*
X545977Y1181697D02*
X545977Y1186273D01*
X545977Y1181697D02*
X550553Y1186273D01*
X551697Y1186273D01*
X552841Y1185129D01*
X552841Y1182841D01*
X551697Y1181697D01*
X551697Y1189181D02*
X547121Y1189181D01*
X551697Y1189181D02*
X552841Y1190325D01*
X552841Y1192613D01*
X551697Y1193757D01*
X547121Y1193757D01*
X545977Y1192613D01*
X545977Y1190325D01*
X547121Y1189181D01*
X551697Y1193757D01*
D10*
X521420Y1113980D02*
X517420Y1113980D01*
X503420Y1113980D01*
X517420Y1100980D02*
X521420Y1100980D01*
X517420Y1100980D02*
X503420Y1100980D01*
X517420Y1100980D02*
X517420Y1113980D01*
D16*
X530015Y1101725D02*
X536879Y1101725D01*
X530015Y1101725D02*
X530015Y1105157D01*
X531159Y1106301D01*
X535735Y1106301D01*
X536879Y1105157D01*
X536879Y1101725D01*
X535735Y1109209D02*
X536879Y1110353D01*
X536879Y1112641D01*
X535735Y1113785D01*
X534591Y1113785D01*
X533447Y1112641D01*
X533447Y1111497D01*
X533447Y1112641D02*
X532303Y1113785D01*
X531159Y1113785D01*
X530015Y1112641D01*
X530015Y1110353D01*
X531159Y1109209D01*
D11*
X558648Y1184950D02*
X563220Y1184950D01*
X567792Y1184950D01*
X563220Y1182410D02*
X558648Y1182410D01*
X563220Y1182410D02*
X567792Y1182410D01*
X563220Y1184950D02*
X563220Y1186347D01*
X563220Y1182410D02*
X563220Y1181013D01*
D16*
X577097Y1178788D02*
X578241Y1177644D01*
X578241Y1175357D01*
X577097Y1174213D01*
X572521Y1174213D01*
X571377Y1175357D01*
X571377Y1177644D01*
X572521Y1178788D01*
X575953Y1181697D02*
X578241Y1183985D01*
X571377Y1183985D01*
X571377Y1181697D02*
X571377Y1186273D01*
X577097Y1191469D02*
X578241Y1193757D01*
X577097Y1191469D02*
X574809Y1189181D01*
X572521Y1189181D01*
X571377Y1190325D01*
X571377Y1192613D01*
X572521Y1193757D01*
X573665Y1193757D01*
X574809Y1192613D01*
X574809Y1189181D01*
D11*
X635564Y1159958D02*
X635564Y1156402D01*
X642676Y1156402D02*
X642676Y1159958D01*
D16*
X641041Y1128497D02*
X634177Y1128497D01*
X641041Y1128497D02*
X641041Y1131929D01*
X639897Y1133073D01*
X637609Y1133073D01*
X636465Y1131929D01*
X636465Y1128497D01*
X636465Y1130785D02*
X634177Y1133073D01*
X641041Y1135981D02*
X641041Y1140557D01*
X639897Y1140557D01*
X635321Y1135981D01*
X634177Y1135981D01*
D11*
X617276Y1156402D02*
X617276Y1159958D01*
X610164Y1159958D02*
X610164Y1156402D01*
D16*
X609677Y1128397D02*
X616541Y1128397D01*
X616541Y1131829D01*
X615397Y1132973D01*
X613109Y1132973D01*
X611965Y1131829D01*
X611965Y1128397D01*
X611965Y1130685D02*
X609677Y1132973D01*
X615397Y1138169D02*
X616541Y1140457D01*
X615397Y1138169D02*
X613109Y1135881D01*
X610821Y1135881D01*
X609677Y1137025D01*
X609677Y1139313D01*
X610821Y1140457D01*
X611965Y1140457D01*
X613109Y1139313D01*
X613109Y1135881D01*
D11*
X588320Y1159450D02*
X583748Y1159450D01*
X588320Y1159450D02*
X592892Y1159450D01*
X588320Y1156910D02*
X583748Y1156910D01*
X588320Y1156910D02*
X592892Y1156910D01*
X588320Y1159450D02*
X588320Y1160847D01*
X588320Y1156910D02*
X588320Y1155513D01*
D16*
X590197Y1125088D02*
X591341Y1123944D01*
X591341Y1121657D01*
X590197Y1120513D01*
X585621Y1120513D01*
X584477Y1121657D01*
X584477Y1123944D01*
X585621Y1125088D01*
X589053Y1127997D02*
X591341Y1130285D01*
X584477Y1130285D01*
X584477Y1127997D02*
X584477Y1132573D01*
X585621Y1135481D02*
X590197Y1135481D01*
X591341Y1136625D01*
X591341Y1138913D01*
X590197Y1140057D01*
X585621Y1140057D01*
X584477Y1138913D01*
X584477Y1136625D01*
X585621Y1135481D01*
X590197Y1140057D01*
D11*
X502192Y716210D02*
X497620Y716210D01*
X493048Y716210D01*
X497620Y718750D02*
X502192Y718750D01*
X497620Y718750D02*
X493048Y718750D01*
X497620Y716210D02*
X497620Y714813D01*
X497620Y718750D02*
X497620Y720147D01*
D16*
X511342Y714733D02*
X512486Y713589D01*
X512486Y711301D01*
X511342Y710158D01*
X506766Y710158D01*
X505623Y711301D01*
X505623Y713589D01*
X506766Y714733D01*
X505623Y721074D02*
X512486Y721074D01*
X509054Y717642D01*
X509054Y722218D01*
X505623Y728558D02*
X512486Y728558D01*
X509054Y725126D01*
X509054Y729702D01*
D11*
X496164Y1232702D02*
X496164Y1236258D01*
X503276Y1236258D02*
X503276Y1232702D01*
X508104Y1225640D02*
X514714Y1225640D01*
X514714Y1228944D01*
X513612Y1230046D01*
X511409Y1230046D01*
X510307Y1228944D01*
X510307Y1225640D01*
X510307Y1227843D02*
X508104Y1230046D01*
X508104Y1233124D02*
X508104Y1237530D01*
X508104Y1233124D02*
X512510Y1237530D01*
X513612Y1237530D01*
X514714Y1236429D01*
X514714Y1234225D01*
X513612Y1233124D01*
X514714Y1243913D02*
X508104Y1243913D01*
X511409Y1240608D02*
X514714Y1243913D01*
X511409Y1245014D02*
X511409Y1240608D01*
X534264Y1236258D02*
X534264Y1232702D01*
X541376Y1232702D02*
X541376Y1236258D01*
X546104Y1225540D02*
X552714Y1225540D01*
X552714Y1228844D01*
X551612Y1229946D01*
X549409Y1229946D01*
X548307Y1228844D01*
X548307Y1225540D01*
X548307Y1227743D02*
X546104Y1229946D01*
X546104Y1233024D02*
X546104Y1237430D01*
X546104Y1233024D02*
X550510Y1237430D01*
X551612Y1237430D01*
X552714Y1236329D01*
X552714Y1234125D01*
X551612Y1233024D01*
X551612Y1240508D02*
X552714Y1241609D01*
X552714Y1243813D01*
X551612Y1244914D01*
X550510Y1244914D01*
X549409Y1243813D01*
X549409Y1242711D01*
X549409Y1243813D02*
X548307Y1244914D01*
X547206Y1244914D01*
X546104Y1243813D01*
X546104Y1241609D01*
X547206Y1240508D01*
D10*
X550520Y916680D02*
X550520Y891580D01*
X560520Y878880D02*
X591320Y878880D01*
X601320Y891880D02*
X601320Y916680D01*
X591320Y929680D02*
X560520Y929680D01*
X563220Y904280D02*
X563224Y904592D01*
X563235Y904903D01*
X563254Y905214D01*
X563281Y905525D01*
X563316Y905835D01*
X563357Y906143D01*
X563407Y906451D01*
X563464Y906758D01*
X563529Y907063D01*
X563601Y907366D01*
X563680Y907667D01*
X563767Y907967D01*
X563861Y908264D01*
X563962Y908559D01*
X564071Y908851D01*
X564187Y909140D01*
X564310Y909427D01*
X564439Y909710D01*
X564576Y909990D01*
X564720Y910267D01*
X564870Y910540D01*
X565027Y910809D01*
X565190Y911074D01*
X565360Y911336D01*
X565537Y911593D01*
X565719Y911845D01*
X565908Y912093D01*
X566103Y912337D01*
X566303Y912575D01*
X566510Y912809D01*
X566722Y913037D01*
X566940Y913260D01*
X567163Y913478D01*
X567391Y913690D01*
X567625Y913897D01*
X567863Y914097D01*
X568107Y914292D01*
X568355Y914481D01*
X568607Y914663D01*
X568864Y914840D01*
X569126Y915010D01*
X569391Y915173D01*
X569660Y915330D01*
X569933Y915480D01*
X570210Y915624D01*
X570490Y915761D01*
X570773Y915890D01*
X571060Y916013D01*
X571349Y916129D01*
X571641Y916238D01*
X571936Y916339D01*
X572233Y916433D01*
X572533Y916520D01*
X572834Y916599D01*
X573137Y916671D01*
X573442Y916736D01*
X573749Y916793D01*
X574057Y916843D01*
X574365Y916884D01*
X574675Y916919D01*
X574986Y916946D01*
X575297Y916965D01*
X575608Y916976D01*
X575920Y916980D01*
X576232Y916976D01*
X576543Y916965D01*
X576854Y916946D01*
X577165Y916919D01*
X577475Y916884D01*
X577783Y916843D01*
X578091Y916793D01*
X578398Y916736D01*
X578703Y916671D01*
X579006Y916599D01*
X579307Y916520D01*
X579607Y916433D01*
X579904Y916339D01*
X580199Y916238D01*
X580491Y916129D01*
X580780Y916013D01*
X581067Y915890D01*
X581350Y915761D01*
X581630Y915624D01*
X581907Y915480D01*
X582180Y915330D01*
X582449Y915173D01*
X582714Y915010D01*
X582976Y914840D01*
X583233Y914663D01*
X583485Y914481D01*
X583733Y914292D01*
X583977Y914097D01*
X584215Y913897D01*
X584449Y913690D01*
X584677Y913478D01*
X584900Y913260D01*
X585118Y913037D01*
X585330Y912809D01*
X585537Y912575D01*
X585737Y912337D01*
X585932Y912093D01*
X586121Y911845D01*
X586303Y911593D01*
X586480Y911336D01*
X586650Y911074D01*
X586813Y910809D01*
X586970Y910540D01*
X587120Y910267D01*
X587264Y909990D01*
X587401Y909710D01*
X587530Y909427D01*
X587653Y909140D01*
X587769Y908851D01*
X587878Y908559D01*
X587979Y908264D01*
X588073Y907967D01*
X588160Y907667D01*
X588239Y907366D01*
X588311Y907063D01*
X588376Y906758D01*
X588433Y906451D01*
X588483Y906143D01*
X588524Y905835D01*
X588559Y905525D01*
X588586Y905214D01*
X588605Y904903D01*
X588616Y904592D01*
X588620Y904280D01*
X588616Y903968D01*
X588605Y903657D01*
X588586Y903346D01*
X588559Y903035D01*
X588524Y902725D01*
X588483Y902417D01*
X588433Y902109D01*
X588376Y901802D01*
X588311Y901497D01*
X588239Y901194D01*
X588160Y900893D01*
X588073Y900593D01*
X587979Y900296D01*
X587878Y900001D01*
X587769Y899709D01*
X587653Y899420D01*
X587530Y899133D01*
X587401Y898850D01*
X587264Y898570D01*
X587120Y898293D01*
X586970Y898020D01*
X586813Y897751D01*
X586650Y897486D01*
X586480Y897224D01*
X586303Y896967D01*
X586121Y896715D01*
X585932Y896467D01*
X585737Y896223D01*
X585537Y895985D01*
X585330Y895751D01*
X585118Y895523D01*
X584900Y895300D01*
X584677Y895082D01*
X584449Y894870D01*
X584215Y894663D01*
X583977Y894463D01*
X583733Y894268D01*
X583485Y894079D01*
X583233Y893897D01*
X582976Y893720D01*
X582714Y893550D01*
X582449Y893387D01*
X582180Y893230D01*
X581907Y893080D01*
X581630Y892936D01*
X581350Y892799D01*
X581067Y892670D01*
X580780Y892547D01*
X580491Y892431D01*
X580199Y892322D01*
X579904Y892221D01*
X579607Y892127D01*
X579307Y892040D01*
X579006Y891961D01*
X578703Y891889D01*
X578398Y891824D01*
X578091Y891767D01*
X577783Y891717D01*
X577475Y891676D01*
X577165Y891641D01*
X576854Y891614D01*
X576543Y891595D01*
X576232Y891584D01*
X575920Y891580D01*
X575608Y891584D01*
X575297Y891595D01*
X574986Y891614D01*
X574675Y891641D01*
X574365Y891676D01*
X574057Y891717D01*
X573749Y891767D01*
X573442Y891824D01*
X573137Y891889D01*
X572834Y891961D01*
X572533Y892040D01*
X572233Y892127D01*
X571936Y892221D01*
X571641Y892322D01*
X571349Y892431D01*
X571060Y892547D01*
X570773Y892670D01*
X570490Y892799D01*
X570210Y892936D01*
X569933Y893080D01*
X569660Y893230D01*
X569391Y893387D01*
X569126Y893550D01*
X568864Y893720D01*
X568607Y893897D01*
X568355Y894079D01*
X568107Y894268D01*
X567863Y894463D01*
X567625Y894663D01*
X567391Y894870D01*
X567163Y895082D01*
X566940Y895300D01*
X566722Y895523D01*
X566510Y895751D01*
X566303Y895985D01*
X566103Y896223D01*
X565908Y896467D01*
X565719Y896715D01*
X565537Y896967D01*
X565360Y897224D01*
X565190Y897486D01*
X565027Y897751D01*
X564870Y898020D01*
X564720Y898293D01*
X564576Y898570D01*
X564439Y898850D01*
X564310Y899133D01*
X564187Y899420D01*
X564071Y899709D01*
X563962Y900001D01*
X563861Y900296D01*
X563767Y900593D01*
X563680Y900893D01*
X563601Y901194D01*
X563529Y901497D01*
X563464Y901802D01*
X563407Y902109D01*
X563357Y902417D01*
X563316Y902725D01*
X563281Y903035D01*
X563254Y903346D01*
X563235Y903657D01*
X563224Y903968D01*
X563220Y904280D01*
D16*
X618055Y903601D02*
X619199Y902457D01*
X619199Y900169D01*
X618055Y899025D01*
X616911Y899025D01*
X615767Y900169D01*
X615767Y902457D01*
X614623Y903601D01*
X613479Y903601D01*
X612335Y902457D01*
X612335Y900169D01*
X613479Y899025D01*
X612335Y906509D02*
X612335Y911085D01*
X612335Y906509D02*
X616911Y911085D01*
X618055Y911085D01*
X619199Y909941D01*
X619199Y907653D01*
X618055Y906509D01*
D10*
X639420Y916680D02*
X639420Y891580D01*
X649420Y878880D02*
X680220Y878880D01*
X690220Y891880D02*
X690220Y916680D01*
X680220Y929680D02*
X649420Y929680D01*
X652120Y904280D02*
X652124Y904592D01*
X652135Y904903D01*
X652154Y905214D01*
X652181Y905525D01*
X652216Y905835D01*
X652257Y906143D01*
X652307Y906451D01*
X652364Y906758D01*
X652429Y907063D01*
X652501Y907366D01*
X652580Y907667D01*
X652667Y907967D01*
X652761Y908264D01*
X652862Y908559D01*
X652971Y908851D01*
X653087Y909140D01*
X653210Y909427D01*
X653339Y909710D01*
X653476Y909990D01*
X653620Y910267D01*
X653770Y910540D01*
X653927Y910809D01*
X654090Y911074D01*
X654260Y911336D01*
X654437Y911593D01*
X654619Y911845D01*
X654808Y912093D01*
X655003Y912337D01*
X655203Y912575D01*
X655410Y912809D01*
X655622Y913037D01*
X655840Y913260D01*
X656063Y913478D01*
X656291Y913690D01*
X656525Y913897D01*
X656763Y914097D01*
X657007Y914292D01*
X657255Y914481D01*
X657507Y914663D01*
X657764Y914840D01*
X658026Y915010D01*
X658291Y915173D01*
X658560Y915330D01*
X658833Y915480D01*
X659110Y915624D01*
X659390Y915761D01*
X659673Y915890D01*
X659960Y916013D01*
X660249Y916129D01*
X660541Y916238D01*
X660836Y916339D01*
X661133Y916433D01*
X661433Y916520D01*
X661734Y916599D01*
X662037Y916671D01*
X662342Y916736D01*
X662649Y916793D01*
X662957Y916843D01*
X663265Y916884D01*
X663575Y916919D01*
X663886Y916946D01*
X664197Y916965D01*
X664508Y916976D01*
X664820Y916980D01*
X665132Y916976D01*
X665443Y916965D01*
X665754Y916946D01*
X666065Y916919D01*
X666375Y916884D01*
X666683Y916843D01*
X666991Y916793D01*
X667298Y916736D01*
X667603Y916671D01*
X667906Y916599D01*
X668207Y916520D01*
X668507Y916433D01*
X668804Y916339D01*
X669099Y916238D01*
X669391Y916129D01*
X669680Y916013D01*
X669967Y915890D01*
X670250Y915761D01*
X670530Y915624D01*
X670807Y915480D01*
X671080Y915330D01*
X671349Y915173D01*
X671614Y915010D01*
X671876Y914840D01*
X672133Y914663D01*
X672385Y914481D01*
X672633Y914292D01*
X672877Y914097D01*
X673115Y913897D01*
X673349Y913690D01*
X673577Y913478D01*
X673800Y913260D01*
X674018Y913037D01*
X674230Y912809D01*
X674437Y912575D01*
X674637Y912337D01*
X674832Y912093D01*
X675021Y911845D01*
X675203Y911593D01*
X675380Y911336D01*
X675550Y911074D01*
X675713Y910809D01*
X675870Y910540D01*
X676020Y910267D01*
X676164Y909990D01*
X676301Y909710D01*
X676430Y909427D01*
X676553Y909140D01*
X676669Y908851D01*
X676778Y908559D01*
X676879Y908264D01*
X676973Y907967D01*
X677060Y907667D01*
X677139Y907366D01*
X677211Y907063D01*
X677276Y906758D01*
X677333Y906451D01*
X677383Y906143D01*
X677424Y905835D01*
X677459Y905525D01*
X677486Y905214D01*
X677505Y904903D01*
X677516Y904592D01*
X677520Y904280D01*
X677516Y903968D01*
X677505Y903657D01*
X677486Y903346D01*
X677459Y903035D01*
X677424Y902725D01*
X677383Y902417D01*
X677333Y902109D01*
X677276Y901802D01*
X677211Y901497D01*
X677139Y901194D01*
X677060Y900893D01*
X676973Y900593D01*
X676879Y900296D01*
X676778Y900001D01*
X676669Y899709D01*
X676553Y899420D01*
X676430Y899133D01*
X676301Y898850D01*
X676164Y898570D01*
X676020Y898293D01*
X675870Y898020D01*
X675713Y897751D01*
X675550Y897486D01*
X675380Y897224D01*
X675203Y896967D01*
X675021Y896715D01*
X674832Y896467D01*
X674637Y896223D01*
X674437Y895985D01*
X674230Y895751D01*
X674018Y895523D01*
X673800Y895300D01*
X673577Y895082D01*
X673349Y894870D01*
X673115Y894663D01*
X672877Y894463D01*
X672633Y894268D01*
X672385Y894079D01*
X672133Y893897D01*
X671876Y893720D01*
X671614Y893550D01*
X671349Y893387D01*
X671080Y893230D01*
X670807Y893080D01*
X670530Y892936D01*
X670250Y892799D01*
X669967Y892670D01*
X669680Y892547D01*
X669391Y892431D01*
X669099Y892322D01*
X668804Y892221D01*
X668507Y892127D01*
X668207Y892040D01*
X667906Y891961D01*
X667603Y891889D01*
X667298Y891824D01*
X666991Y891767D01*
X666683Y891717D01*
X666375Y891676D01*
X666065Y891641D01*
X665754Y891614D01*
X665443Y891595D01*
X665132Y891584D01*
X664820Y891580D01*
X664508Y891584D01*
X664197Y891595D01*
X663886Y891614D01*
X663575Y891641D01*
X663265Y891676D01*
X662957Y891717D01*
X662649Y891767D01*
X662342Y891824D01*
X662037Y891889D01*
X661734Y891961D01*
X661433Y892040D01*
X661133Y892127D01*
X660836Y892221D01*
X660541Y892322D01*
X660249Y892431D01*
X659960Y892547D01*
X659673Y892670D01*
X659390Y892799D01*
X659110Y892936D01*
X658833Y893080D01*
X658560Y893230D01*
X658291Y893387D01*
X658026Y893550D01*
X657764Y893720D01*
X657507Y893897D01*
X657255Y894079D01*
X657007Y894268D01*
X656763Y894463D01*
X656525Y894663D01*
X656291Y894870D01*
X656063Y895082D01*
X655840Y895300D01*
X655622Y895523D01*
X655410Y895751D01*
X655203Y895985D01*
X655003Y896223D01*
X654808Y896467D01*
X654619Y896715D01*
X654437Y896967D01*
X654260Y897224D01*
X654090Y897486D01*
X653927Y897751D01*
X653770Y898020D01*
X653620Y898293D01*
X653476Y898570D01*
X653339Y898850D01*
X653210Y899133D01*
X653087Y899420D01*
X652971Y899709D01*
X652862Y900001D01*
X652761Y900296D01*
X652667Y900593D01*
X652580Y900893D01*
X652501Y901194D01*
X652429Y901497D01*
X652364Y901802D01*
X652307Y902109D01*
X652257Y902417D01*
X652216Y902725D01*
X652181Y903035D01*
X652154Y903346D01*
X652135Y903657D01*
X652124Y903968D01*
X652120Y904280D01*
D11*
X707182Y903370D02*
X708284Y902269D01*
X708284Y900065D01*
X707182Y898964D01*
X706080Y898964D01*
X704979Y900065D01*
X704979Y902269D01*
X703877Y903370D01*
X702776Y903370D01*
X701674Y902269D01*
X701674Y900065D01*
X702776Y898964D01*
X706080Y906448D02*
X708284Y908651D01*
X701674Y908651D01*
X701674Y906448D02*
X701674Y910854D01*
D10*
X816712Y1169202D02*
X816712Y1171742D01*
X816204Y1171742D01*
X816204Y1171691D01*
X766699Y1171691D01*
X766699Y1169380D01*
X816915Y1122390D02*
X816915Y1119672D01*
X816407Y1119672D01*
X816407Y1119647D01*
X766725Y1119647D01*
X766725Y1121907D01*
X817220Y1136690D02*
X817220Y1153708D01*
X766420Y1154216D02*
X766420Y1145580D01*
X766420Y1136944D01*
X766420Y1145580D02*
X791820Y1120180D01*
D12*
X829328Y1127628D02*
X834412Y1127628D01*
X829328Y1127628D02*
X829328Y1130170D01*
X830175Y1131018D01*
X833565Y1131018D01*
X834412Y1130170D01*
X834412Y1127628D01*
X832718Y1133241D02*
X834412Y1134936D01*
X829328Y1134936D01*
X829328Y1133241D02*
X829328Y1136631D01*
X830175Y1138854D02*
X833565Y1138854D01*
X834412Y1139702D01*
X834412Y1141396D01*
X833565Y1142244D01*
X830175Y1142244D01*
X829328Y1141396D01*
X829328Y1139702D01*
X830175Y1138854D01*
X833565Y1142244D01*
X834412Y1147009D02*
X829328Y1147009D01*
X831870Y1144467D02*
X834412Y1147009D01*
X831870Y1147857D02*
X831870Y1144467D01*
D11*
X790550Y1179108D02*
X790550Y1183680D01*
X790550Y1188252D01*
X793090Y1183680D02*
X793090Y1179108D01*
X793090Y1183680D02*
X793090Y1188252D01*
X790550Y1183680D02*
X789153Y1183680D01*
X793090Y1183680D02*
X794487Y1183680D01*
D16*
X818577Y1185407D02*
X819721Y1186551D01*
X822009Y1186551D01*
X823153Y1185407D01*
X823153Y1180831D01*
X822009Y1179687D01*
X819721Y1179687D01*
X818577Y1180831D01*
X812237Y1179687D02*
X812237Y1186551D01*
X815669Y1183119D01*
X811093Y1183119D01*
X364719Y974647D02*
X363575Y975791D01*
X364719Y974647D02*
X364719Y972359D01*
X363575Y971215D01*
X358999Y971215D01*
X357855Y972359D01*
X357855Y974647D01*
X358999Y975791D01*
X362431Y978699D02*
X364719Y980987D01*
X357855Y980987D01*
X357855Y978699D02*
X357855Y983275D01*
X363575Y986183D02*
X364719Y987327D01*
X364719Y989615D01*
X363575Y990759D01*
X362431Y990759D01*
X361287Y989615D01*
X361287Y988471D01*
X361287Y989615D02*
X360143Y990759D01*
X358999Y990759D01*
X357855Y989615D01*
X357855Y987327D01*
X358999Y986183D01*
X567909Y1071935D02*
X569053Y1073079D01*
X571341Y1073079D01*
X572485Y1071935D01*
X572485Y1067359D01*
X571341Y1066215D01*
X569053Y1066215D01*
X567909Y1067359D01*
X565001Y1066215D02*
X560425Y1066215D01*
X565001Y1066215D02*
X560425Y1070791D01*
X560425Y1071935D01*
X561569Y1073079D01*
X563857Y1073079D01*
X565001Y1071935D01*
X554085Y1073079D02*
X554085Y1066215D01*
X557517Y1069647D02*
X554085Y1073079D01*
X552941Y1069647D02*
X557517Y1069647D01*
X425453Y1025479D02*
X424309Y1024335D01*
X425453Y1025479D02*
X427741Y1025479D01*
X428885Y1024335D01*
X428885Y1019759D01*
X427741Y1018615D01*
X425453Y1018615D01*
X424309Y1019759D01*
X421401Y1024335D02*
X420257Y1025479D01*
X417969Y1025479D01*
X416825Y1024335D01*
X416825Y1023191D01*
X417969Y1022047D01*
X419113Y1022047D01*
X417969Y1022047D02*
X416825Y1020903D01*
X416825Y1019759D01*
X417969Y1018615D01*
X420257Y1018615D01*
X421401Y1019759D01*
X410485Y1018615D02*
X410485Y1025479D01*
X413917Y1022047D01*
X409341Y1022047D01*
D10*
X360220Y934180D02*
X360220Y928180D01*
X352220Y928180D01*
X360220Y950180D02*
X360220Y956180D01*
X352220Y956180D01*
D16*
X360947Y919390D02*
X367811Y919390D01*
X367811Y917102D02*
X367811Y921678D01*
X360947Y924586D02*
X360947Y929162D01*
X360947Y924586D02*
X365523Y929162D01*
X366667Y929162D01*
X367811Y928018D01*
X367811Y925730D01*
X366667Y924586D01*
X461722Y718753D02*
X462866Y717609D01*
X462866Y715321D01*
X461722Y714178D01*
X457146Y714178D01*
X456003Y715321D01*
X456003Y717609D01*
X457146Y718753D01*
X456003Y725094D02*
X462866Y725094D01*
X459434Y721662D01*
X459434Y726238D01*
X461722Y729146D02*
X462866Y730290D01*
X462866Y732578D01*
X461722Y733722D01*
X460578Y733722D01*
X459434Y732578D01*
X459434Y731434D01*
X459434Y732578D02*
X458290Y733722D01*
X457146Y733722D01*
X456003Y732578D01*
X456003Y730290D01*
X457146Y729146D01*
X466020Y958480D02*
X466020Y1002480D01*
X508020Y1002480D01*
X508020Y958480D01*
X466020Y958480D01*
D17*
X471020Y963480D03*
D16*
X489955Y946587D02*
X492243Y946587D01*
X491099Y946587D02*
X491099Y953451D01*
X492243Y953451D02*
X489955Y953451D01*
X483821Y953451D02*
X482677Y952307D01*
X483821Y953451D02*
X486109Y953451D01*
X487253Y952307D01*
X487253Y947731D01*
X486109Y946587D01*
X483821Y946587D01*
X482677Y947731D01*
X476337Y946587D02*
X476337Y953451D01*
X479769Y950019D01*
X475193Y950019D01*
D11*
X497942Y869736D02*
X501498Y869736D01*
X501498Y862624D02*
X497942Y862624D01*
D16*
X509747Y872897D02*
X509747Y879761D01*
X506316Y879761D01*
X505172Y878617D01*
X505172Y876329D01*
X506316Y875185D01*
X509747Y875185D01*
X507460Y875185D02*
X505172Y872897D01*
X502263Y878617D02*
X501119Y879761D01*
X498831Y879761D01*
X497687Y878617D01*
X497687Y877473D01*
X498831Y876329D01*
X499975Y876329D01*
X498831Y876329D02*
X497687Y875185D01*
X497687Y874041D01*
X498831Y872897D01*
X501119Y872897D01*
X502263Y874041D01*
X494779Y879761D02*
X490203Y879761D01*
X494779Y879761D02*
X494779Y876329D01*
X492491Y877473D01*
X491347Y877473D01*
X490203Y876329D01*
X490203Y874041D01*
X491347Y872897D01*
X493635Y872897D01*
X494779Y874041D01*
D10*
X491720Y850780D02*
X507720Y850780D01*
X509720Y833780D02*
X509738Y833682D01*
X509752Y833582D01*
X509762Y833483D01*
X509768Y833383D01*
X509770Y833283D01*
X509768Y833183D01*
X509762Y833083D01*
X509753Y832983D01*
X509739Y832884D01*
X509722Y832785D01*
X509700Y832687D01*
X509675Y832590D01*
X509646Y832495D01*
X509613Y832400D01*
X509577Y832307D01*
X509537Y832215D01*
X509493Y832125D01*
X509446Y832036D01*
X509396Y831950D01*
X509342Y831866D01*
X509285Y831783D01*
X509224Y831703D01*
X509161Y831626D01*
X509094Y831551D01*
X509025Y831479D01*
X508953Y831409D01*
X508878Y831343D01*
X508801Y831279D01*
X508721Y831219D01*
X508639Y831161D01*
X508555Y831107D01*
X508468Y831056D01*
X508380Y831009D01*
X508290Y830965D01*
X508198Y830925D01*
X508105Y830889D01*
X508011Y830856D01*
X507915Y830826D01*
X507818Y830801D01*
X507720Y830780D01*
X491720Y830780D02*
X491622Y830801D01*
X491525Y830826D01*
X491429Y830856D01*
X491335Y830889D01*
X491242Y830925D01*
X491150Y830965D01*
X491060Y831009D01*
X490972Y831056D01*
X490885Y831107D01*
X490801Y831161D01*
X490719Y831219D01*
X490639Y831279D01*
X490562Y831343D01*
X490487Y831409D01*
X490415Y831479D01*
X490346Y831551D01*
X490279Y831626D01*
X490216Y831703D01*
X490155Y831783D01*
X490098Y831866D01*
X490044Y831950D01*
X489994Y832036D01*
X489947Y832125D01*
X489903Y832215D01*
X489863Y832307D01*
X489827Y832400D01*
X489794Y832495D01*
X489765Y832590D01*
X489740Y832687D01*
X489718Y832785D01*
X489701Y832884D01*
X489687Y832983D01*
X489678Y833083D01*
X489672Y833183D01*
X489670Y833283D01*
X489672Y833383D01*
X489678Y833483D01*
X489688Y833582D01*
X489702Y833682D01*
X489720Y833780D01*
X489720Y847780D02*
X489702Y847878D01*
X489688Y847978D01*
X489678Y848077D01*
X489672Y848177D01*
X489670Y848277D01*
X489672Y848377D01*
X489678Y848477D01*
X489687Y848577D01*
X489701Y848676D01*
X489718Y848775D01*
X489740Y848873D01*
X489765Y848970D01*
X489794Y849065D01*
X489827Y849160D01*
X489863Y849253D01*
X489903Y849345D01*
X489947Y849435D01*
X489994Y849524D01*
X490044Y849610D01*
X490098Y849694D01*
X490155Y849777D01*
X490216Y849857D01*
X490279Y849934D01*
X490346Y850009D01*
X490415Y850081D01*
X490487Y850151D01*
X490562Y850217D01*
X490639Y850281D01*
X490719Y850341D01*
X490801Y850399D01*
X490885Y850453D01*
X490972Y850504D01*
X491060Y850551D01*
X491150Y850595D01*
X491242Y850635D01*
X491335Y850671D01*
X491429Y850704D01*
X491525Y850734D01*
X491622Y850759D01*
X491720Y850780D01*
X507720Y850780D02*
X507818Y850759D01*
X507915Y850734D01*
X508011Y850704D01*
X508105Y850671D01*
X508198Y850635D01*
X508290Y850595D01*
X508380Y850551D01*
X508468Y850504D01*
X508555Y850453D01*
X508639Y850399D01*
X508721Y850341D01*
X508801Y850281D01*
X508878Y850217D01*
X508953Y850151D01*
X509025Y850081D01*
X509094Y850009D01*
X509161Y849934D01*
X509224Y849857D01*
X509285Y849777D01*
X509342Y849694D01*
X509396Y849610D01*
X509446Y849524D01*
X509493Y849435D01*
X509537Y849345D01*
X509577Y849253D01*
X509613Y849160D01*
X509646Y849065D01*
X509675Y848970D01*
X509700Y848873D01*
X509722Y848775D01*
X509739Y848676D01*
X509753Y848577D01*
X509762Y848477D01*
X509768Y848377D01*
X509770Y848277D01*
X509768Y848177D01*
X509762Y848077D01*
X509752Y847978D01*
X509738Y847878D01*
X509720Y847780D01*
X507720Y830780D02*
X491720Y830780D01*
D16*
X504589Y857835D02*
X505733Y858979D01*
X508021Y858979D01*
X509165Y857835D01*
X509165Y856691D01*
X508021Y855547D01*
X505733Y855547D01*
X504589Y854403D01*
X504589Y853259D01*
X505733Y852115D01*
X508021Y852115D01*
X509165Y853259D01*
X501681Y853259D02*
X500537Y852115D01*
X499393Y852115D01*
X498249Y853259D01*
X498249Y858979D01*
X499393Y858979D02*
X497105Y858979D01*
X494197Y857835D02*
X493053Y858979D01*
X490765Y858979D01*
X489621Y857835D01*
X489621Y856691D01*
X490765Y855547D01*
X491909Y855547D01*
X490765Y855547D02*
X489621Y854403D01*
X489621Y853259D01*
X490765Y852115D01*
X493053Y852115D01*
X494197Y853259D01*
D11*
X497942Y913424D02*
X501498Y913424D01*
X501498Y920536D02*
X497942Y920536D01*
D16*
X508630Y924280D02*
X508630Y931143D01*
X505198Y931143D01*
X504054Y929999D01*
X504054Y927711D01*
X505198Y926567D01*
X508630Y926567D01*
X506342Y926567D02*
X504054Y924280D01*
X501146Y929999D02*
X500002Y931143D01*
X497714Y931143D01*
X496570Y929999D01*
X496570Y928855D01*
X497714Y927711D01*
X498858Y927711D01*
X497714Y927711D02*
X496570Y926567D01*
X496570Y925423D01*
X497714Y924280D01*
X500002Y924280D01*
X501146Y925423D01*
X491374Y929999D02*
X489086Y931143D01*
X491374Y929999D02*
X493662Y927711D01*
X493662Y925423D01*
X492518Y924280D01*
X490230Y924280D01*
X489086Y925423D01*
X489086Y926567D01*
X490230Y927711D01*
X493662Y927711D01*
D11*
X542027Y650280D02*
X543643Y648664D01*
X563220Y629087D02*
X564836Y630703D01*
X561604Y669857D02*
X563220Y671473D01*
X582797Y651896D02*
X584413Y650280D01*
X582797Y648664D01*
X563220Y629087D02*
X561604Y630703D01*
X542027Y650280D02*
X543643Y651896D01*
X563220Y671473D02*
X564836Y669857D01*
D16*
X560984Y675736D02*
X560986Y675830D01*
X560992Y675924D01*
X561002Y676018D01*
X561016Y676111D01*
X561034Y676204D01*
X561055Y676296D01*
X561081Y676386D01*
X561110Y676476D01*
X561143Y676564D01*
X561180Y676651D01*
X561220Y676736D01*
X561264Y676820D01*
X561312Y676901D01*
X561362Y676981D01*
X561417Y677058D01*
X561474Y677133D01*
X561534Y677205D01*
X561598Y677275D01*
X561664Y677342D01*
X561733Y677406D01*
X561805Y677467D01*
X561879Y677525D01*
X561956Y677580D01*
X562035Y677632D01*
X562116Y677680D01*
X562199Y677725D01*
X562283Y677766D01*
X562370Y677804D01*
X562458Y677838D01*
X562547Y677868D01*
X562637Y677895D01*
X562729Y677917D01*
X562821Y677936D01*
X562915Y677951D01*
X563008Y677962D01*
X563102Y677969D01*
X563196Y677972D01*
X563291Y677971D01*
X563385Y677966D01*
X563479Y677957D01*
X563572Y677944D01*
X563665Y677927D01*
X563757Y677907D01*
X563848Y677882D01*
X563938Y677854D01*
X564026Y677822D01*
X564114Y677786D01*
X564199Y677746D01*
X564283Y677703D01*
X564365Y677657D01*
X564445Y677607D01*
X564523Y677553D01*
X564598Y677497D01*
X564671Y677437D01*
X564742Y677374D01*
X564809Y677309D01*
X564874Y677240D01*
X564936Y677169D01*
X564995Y677096D01*
X565051Y677020D01*
X565103Y676941D01*
X565152Y676861D01*
X565198Y676778D01*
X565240Y676694D01*
X565279Y676608D01*
X565314Y676520D01*
X565345Y676431D01*
X565373Y676341D01*
X565396Y676250D01*
X565416Y676158D01*
X565432Y676065D01*
X565444Y675971D01*
X565452Y675877D01*
X565456Y675783D01*
X565456Y675689D01*
X565452Y675595D01*
X565444Y675501D01*
X565432Y675407D01*
X565416Y675314D01*
X565396Y675222D01*
X565373Y675131D01*
X565345Y675041D01*
X565314Y674952D01*
X565279Y674864D01*
X565240Y674778D01*
X565198Y674694D01*
X565152Y674611D01*
X565103Y674531D01*
X565051Y674452D01*
X564995Y674376D01*
X564936Y674303D01*
X564874Y674232D01*
X564809Y674163D01*
X564742Y674098D01*
X564671Y674035D01*
X564598Y673975D01*
X564523Y673919D01*
X564445Y673865D01*
X564365Y673815D01*
X564283Y673769D01*
X564199Y673726D01*
X564114Y673686D01*
X564026Y673650D01*
X563938Y673618D01*
X563848Y673590D01*
X563757Y673565D01*
X563665Y673545D01*
X563572Y673528D01*
X563479Y673515D01*
X563385Y673506D01*
X563291Y673501D01*
X563196Y673500D01*
X563102Y673503D01*
X563008Y673510D01*
X562915Y673521D01*
X562821Y673536D01*
X562729Y673555D01*
X562637Y673577D01*
X562547Y673604D01*
X562458Y673634D01*
X562370Y673668D01*
X562283Y673706D01*
X562199Y673747D01*
X562116Y673792D01*
X562035Y673840D01*
X561956Y673892D01*
X561879Y673947D01*
X561805Y674005D01*
X561733Y674066D01*
X561664Y674130D01*
X561598Y674197D01*
X561534Y674267D01*
X561474Y674339D01*
X561417Y674414D01*
X561362Y674491D01*
X561312Y674571D01*
X561264Y674652D01*
X561220Y674736D01*
X561180Y674821D01*
X561143Y674908D01*
X561110Y674996D01*
X561081Y675086D01*
X561055Y675176D01*
X561034Y675268D01*
X561016Y675361D01*
X561002Y675454D01*
X560992Y675548D01*
X560986Y675642D01*
X560984Y675736D01*
X583028Y640408D02*
X587072Y636363D01*
X587072Y634746D01*
X585454Y633128D01*
X583837Y633128D01*
X579792Y637172D01*
X579353Y633498D02*
X576118Y633498D01*
X580971Y628645D01*
X582589Y630262D02*
X579353Y627027D01*
X572475Y1030105D02*
X572475Y1036969D01*
X569043Y1036969D01*
X567899Y1035825D01*
X567899Y1033537D01*
X569043Y1032393D01*
X572475Y1032393D01*
X570187Y1032393D02*
X567899Y1030105D01*
X564991Y1035825D02*
X563847Y1036969D01*
X561559Y1036969D01*
X560415Y1035825D01*
X560415Y1034681D01*
X561559Y1033537D01*
X562703Y1033537D01*
X561559Y1033537D02*
X560415Y1032393D01*
X560415Y1031249D01*
X561559Y1030105D01*
X563847Y1030105D01*
X564991Y1031249D01*
X557507Y1031249D02*
X557507Y1035825D01*
X556363Y1036969D01*
X554075Y1036969D01*
X552931Y1035825D01*
X552931Y1031249D01*
X554075Y1030105D01*
X556363Y1030105D01*
X557507Y1031249D01*
X552931Y1035825D01*
D11*
X578920Y698910D02*
X583492Y698910D01*
X578920Y698910D02*
X574348Y698910D01*
X578920Y701450D02*
X583492Y701450D01*
X578920Y701450D02*
X574348Y701450D01*
X578920Y698910D02*
X578920Y697513D01*
X578920Y701450D02*
X578920Y702847D01*
D16*
X592045Y693866D02*
X593189Y692722D01*
X593189Y690434D01*
X592045Y689290D01*
X587469Y689290D01*
X586325Y690434D01*
X586325Y692722D01*
X587469Y693866D01*
X586325Y700206D02*
X593189Y700206D01*
X589757Y696774D01*
X589757Y701350D01*
X593189Y704258D02*
X593189Y708834D01*
X593189Y704258D02*
X589757Y704258D01*
X590901Y706546D01*
X590901Y707690D01*
X589757Y708834D01*
X587469Y708834D01*
X586325Y707690D01*
X586325Y705402D01*
X587469Y704258D01*
D11*
X529564Y696458D02*
X529564Y692902D01*
X536676Y692902D02*
X536676Y696458D01*
D16*
X541350Y682883D02*
X548214Y682883D01*
X548214Y686314D01*
X547070Y687458D01*
X544782Y687458D01*
X543638Y686314D01*
X543638Y682883D01*
X543638Y685170D02*
X541350Y687458D01*
X547070Y690367D02*
X548214Y691511D01*
X548214Y693799D01*
X547070Y694943D01*
X545926Y694943D01*
X544782Y693799D01*
X544782Y692655D01*
X544782Y693799D02*
X543638Y694943D01*
X542494Y694943D01*
X541350Y693799D01*
X541350Y691511D01*
X542494Y690367D01*
X548214Y697851D02*
X548214Y702427D01*
X547070Y702427D01*
X542494Y697851D01*
X541350Y697851D01*
D11*
X374498Y1339636D02*
X370942Y1339636D01*
X370942Y1332524D02*
X374498Y1332524D01*
D16*
X401140Y1332240D02*
X401140Y1339104D01*
X397708Y1339104D01*
X396564Y1337960D01*
X396564Y1335672D01*
X397708Y1334528D01*
X401140Y1334528D01*
X398852Y1334528D02*
X396564Y1332240D01*
X393656Y1336816D02*
X391368Y1339104D01*
X391368Y1332240D01*
X393656Y1332240D02*
X389080Y1332240D01*
D11*
X424790Y1564680D02*
X424790Y1569252D01*
X424790Y1564680D02*
X424790Y1560108D01*
X422250Y1564680D02*
X422250Y1569252D01*
X422250Y1564680D02*
X422250Y1560108D01*
X424790Y1564680D02*
X426187Y1564680D01*
X422250Y1564680D02*
X420853Y1564680D01*
D16*
X430762Y1556607D02*
X431906Y1557751D01*
X434194Y1557751D01*
X435337Y1556607D01*
X435337Y1552031D01*
X434194Y1550887D01*
X431906Y1550887D01*
X430762Y1552031D01*
X424421Y1550887D02*
X424421Y1557751D01*
X427853Y1554319D01*
X423277Y1554319D01*
X420369Y1550887D02*
X415793Y1550887D01*
X420369Y1550887D02*
X415793Y1555463D01*
X415793Y1556607D01*
X416937Y1557751D01*
X419225Y1557751D01*
X420369Y1556607D01*
D11*
X459448Y1384150D02*
X464020Y1384150D01*
X468592Y1384150D01*
X464020Y1381610D02*
X459448Y1381610D01*
X464020Y1381610D02*
X468592Y1381610D01*
X464020Y1384150D02*
X464020Y1385547D01*
X464020Y1381610D02*
X464020Y1380213D01*
D16*
X476747Y1377138D02*
X477891Y1375994D01*
X477891Y1373707D01*
X476747Y1372563D01*
X472171Y1372563D01*
X471027Y1373707D01*
X471027Y1375994D01*
X472171Y1377138D01*
X471027Y1383479D02*
X477891Y1383479D01*
X474459Y1380047D01*
X474459Y1384623D01*
X476747Y1389819D02*
X477891Y1392107D01*
X476747Y1389819D02*
X474459Y1387531D01*
X472171Y1387531D01*
X471027Y1388675D01*
X471027Y1390963D01*
X472171Y1392107D01*
X473315Y1392107D01*
X474459Y1390963D01*
X474459Y1387531D01*
X754320Y1309580D02*
X821820Y1309580D01*
X821820Y1489580D01*
X754320Y1489580D01*
X507820Y1489580D02*
X507820Y1309580D01*
X507820Y1489580D02*
X509820Y1489580D01*
X509320Y1309580D02*
X507820Y1309580D01*
D18*
X747702Y1298580D02*
X747704Y1298646D01*
X747710Y1298712D01*
X747720Y1298778D01*
X747733Y1298843D01*
X747751Y1298907D01*
X747772Y1298969D01*
X747797Y1299031D01*
X747825Y1299091D01*
X747857Y1299149D01*
X747893Y1299205D01*
X747931Y1299258D01*
X747973Y1299310D01*
X748018Y1299359D01*
X748065Y1299405D01*
X748116Y1299448D01*
X748168Y1299488D01*
X748223Y1299525D01*
X748280Y1299559D01*
X748339Y1299589D01*
X748400Y1299616D01*
X748462Y1299639D01*
X748525Y1299658D01*
X748590Y1299674D01*
X748655Y1299686D01*
X748721Y1299694D01*
X748787Y1299698D01*
X748853Y1299698D01*
X748919Y1299694D01*
X748985Y1299686D01*
X749050Y1299674D01*
X749115Y1299658D01*
X749178Y1299639D01*
X749240Y1299616D01*
X749301Y1299589D01*
X749360Y1299559D01*
X749417Y1299525D01*
X749472Y1299488D01*
X749524Y1299448D01*
X749575Y1299405D01*
X749622Y1299359D01*
X749667Y1299310D01*
X749709Y1299258D01*
X749747Y1299205D01*
X749783Y1299149D01*
X749815Y1299091D01*
X749843Y1299031D01*
X749868Y1298969D01*
X749889Y1298907D01*
X749907Y1298843D01*
X749920Y1298778D01*
X749930Y1298712D01*
X749936Y1298646D01*
X749938Y1298580D01*
X749936Y1298514D01*
X749930Y1298448D01*
X749920Y1298382D01*
X749907Y1298317D01*
X749889Y1298253D01*
X749868Y1298191D01*
X749843Y1298129D01*
X749815Y1298069D01*
X749783Y1298011D01*
X749747Y1297955D01*
X749709Y1297902D01*
X749667Y1297850D01*
X749622Y1297801D01*
X749575Y1297755D01*
X749524Y1297712D01*
X749472Y1297672D01*
X749417Y1297635D01*
X749360Y1297601D01*
X749301Y1297571D01*
X749240Y1297544D01*
X749178Y1297521D01*
X749115Y1297502D01*
X749050Y1297486D01*
X748985Y1297474D01*
X748919Y1297466D01*
X748853Y1297462D01*
X748787Y1297462D01*
X748721Y1297466D01*
X748655Y1297474D01*
X748590Y1297486D01*
X748525Y1297502D01*
X748462Y1297521D01*
X748400Y1297544D01*
X748339Y1297571D01*
X748280Y1297601D01*
X748223Y1297635D01*
X748168Y1297672D01*
X748116Y1297712D01*
X748065Y1297755D01*
X748018Y1297801D01*
X747973Y1297850D01*
X747931Y1297902D01*
X747893Y1297955D01*
X747857Y1298011D01*
X747825Y1298069D01*
X747797Y1298129D01*
X747772Y1298191D01*
X747751Y1298253D01*
X747733Y1298317D01*
X747720Y1298382D01*
X747710Y1298448D01*
X747704Y1298514D01*
X747702Y1298580D01*
D12*
X828919Y1316015D02*
X838673Y1316015D01*
X828919Y1316015D02*
X826968Y1317966D01*
X826968Y1321868D01*
X828919Y1323819D01*
X838673Y1323819D01*
X826968Y1327719D02*
X826968Y1335523D01*
X834771Y1335523D02*
X826968Y1327719D01*
X834771Y1335523D02*
X836722Y1335523D01*
X838673Y1333572D01*
X838673Y1329670D01*
X836722Y1327719D01*
D16*
X371620Y1489080D02*
X327620Y1489080D01*
X327620Y1554080D02*
X371620Y1554080D01*
X374332Y1558580D02*
X374334Y1558686D01*
X374340Y1558791D01*
X374350Y1558897D01*
X374364Y1559001D01*
X374381Y1559106D01*
X374403Y1559209D01*
X374428Y1559312D01*
X374458Y1559414D01*
X374491Y1559514D01*
X374527Y1559613D01*
X374568Y1559711D01*
X374612Y1559807D01*
X374660Y1559901D01*
X374711Y1559994D01*
X374765Y1560085D01*
X374823Y1560173D01*
X374885Y1560259D01*
X374949Y1560343D01*
X375016Y1560425D01*
X375087Y1560504D01*
X375160Y1560580D01*
X375236Y1560653D01*
X375315Y1560724D01*
X375397Y1560791D01*
X375481Y1560855D01*
X375567Y1560917D01*
X375655Y1560975D01*
X375746Y1561029D01*
X375839Y1561080D01*
X375933Y1561128D01*
X376029Y1561172D01*
X376127Y1561213D01*
X376226Y1561249D01*
X376326Y1561282D01*
X376428Y1561312D01*
X376531Y1561337D01*
X376634Y1561359D01*
X376739Y1561376D01*
X376843Y1561390D01*
X376949Y1561400D01*
X377054Y1561406D01*
X377160Y1561408D01*
X377266Y1561406D01*
X377371Y1561400D01*
X377477Y1561390D01*
X377581Y1561376D01*
X377686Y1561359D01*
X377789Y1561337D01*
X377892Y1561312D01*
X377994Y1561282D01*
X378094Y1561249D01*
X378193Y1561213D01*
X378291Y1561172D01*
X378387Y1561128D01*
X378481Y1561080D01*
X378574Y1561029D01*
X378665Y1560975D01*
X378753Y1560917D01*
X378839Y1560855D01*
X378923Y1560791D01*
X379005Y1560724D01*
X379084Y1560653D01*
X379160Y1560580D01*
X379233Y1560504D01*
X379304Y1560425D01*
X379371Y1560343D01*
X379435Y1560259D01*
X379497Y1560173D01*
X379555Y1560085D01*
X379609Y1559994D01*
X379660Y1559901D01*
X379708Y1559807D01*
X379752Y1559711D01*
X379793Y1559613D01*
X379829Y1559514D01*
X379862Y1559414D01*
X379892Y1559312D01*
X379917Y1559209D01*
X379939Y1559106D01*
X379956Y1559001D01*
X379970Y1558897D01*
X379980Y1558791D01*
X379986Y1558686D01*
X379988Y1558580D01*
X379986Y1558474D01*
X379980Y1558369D01*
X379970Y1558263D01*
X379956Y1558159D01*
X379939Y1558054D01*
X379917Y1557951D01*
X379892Y1557848D01*
X379862Y1557746D01*
X379829Y1557646D01*
X379793Y1557547D01*
X379752Y1557449D01*
X379708Y1557353D01*
X379660Y1557259D01*
X379609Y1557166D01*
X379555Y1557075D01*
X379497Y1556987D01*
X379435Y1556901D01*
X379371Y1556817D01*
X379304Y1556735D01*
X379233Y1556656D01*
X379160Y1556580D01*
X379084Y1556507D01*
X379005Y1556436D01*
X378923Y1556369D01*
X378839Y1556305D01*
X378753Y1556243D01*
X378665Y1556185D01*
X378574Y1556131D01*
X378481Y1556080D01*
X378387Y1556032D01*
X378291Y1555988D01*
X378193Y1555947D01*
X378094Y1555911D01*
X377994Y1555878D01*
X377892Y1555848D01*
X377789Y1555823D01*
X377686Y1555801D01*
X377581Y1555784D01*
X377477Y1555770D01*
X377371Y1555760D01*
X377266Y1555754D01*
X377160Y1555752D01*
X377054Y1555754D01*
X376949Y1555760D01*
X376843Y1555770D01*
X376739Y1555784D01*
X376634Y1555801D01*
X376531Y1555823D01*
X376428Y1555848D01*
X376326Y1555878D01*
X376226Y1555911D01*
X376127Y1555947D01*
X376029Y1555988D01*
X375933Y1556032D01*
X375839Y1556080D01*
X375746Y1556131D01*
X375655Y1556185D01*
X375567Y1556243D01*
X375481Y1556305D01*
X375397Y1556369D01*
X375315Y1556436D01*
X375236Y1556507D01*
X375160Y1556580D01*
X375087Y1556656D01*
X375016Y1556735D01*
X374949Y1556817D01*
X374885Y1556901D01*
X374823Y1556987D01*
X374765Y1557075D01*
X374711Y1557166D01*
X374660Y1557259D01*
X374612Y1557353D01*
X374568Y1557449D01*
X374527Y1557547D01*
X374491Y1557646D01*
X374458Y1557746D01*
X374428Y1557848D01*
X374403Y1557951D01*
X374381Y1558054D01*
X374364Y1558159D01*
X374350Y1558263D01*
X374340Y1558369D01*
X374334Y1558474D01*
X374332Y1558580D01*
X340990Y1534182D02*
X335694Y1534182D01*
X334635Y1535241D01*
X334635Y1537360D01*
X335694Y1538419D01*
X340990Y1538419D01*
X339931Y1541199D02*
X340990Y1542258D01*
X340990Y1544376D01*
X339931Y1545436D01*
X338872Y1545436D01*
X337813Y1544376D01*
X337813Y1543317D01*
X337813Y1544376D02*
X336753Y1545436D01*
X335694Y1545436D01*
X334635Y1544376D01*
X334635Y1542258D01*
X335694Y1541199D01*
D14*
X357794Y1511413D02*
X362370Y1511413D01*
X362370Y1513701D01*
X361607Y1514464D01*
X360082Y1514464D01*
X359319Y1513701D01*
X359319Y1511413D01*
X362370Y1518379D02*
X361607Y1519141D01*
X362370Y1518379D02*
X362370Y1516853D01*
X361607Y1516091D01*
X358557Y1516091D01*
X357794Y1516853D01*
X357794Y1518379D01*
X358557Y1519141D01*
X357794Y1520768D02*
X362370Y1520768D01*
X360845Y1522294D01*
X362370Y1523819D01*
X357794Y1523819D01*
X362370Y1525446D02*
X362370Y1528497D01*
X362370Y1525446D02*
X360082Y1525446D01*
X360845Y1526971D01*
X360845Y1527734D01*
X360082Y1528497D01*
X358557Y1528497D01*
X357794Y1527734D01*
X357794Y1526209D01*
X358557Y1525446D01*
X360845Y1530124D02*
X362370Y1531649D01*
X357794Y1531649D01*
X357794Y1530124D02*
X357794Y1533174D01*
X358557Y1534801D02*
X361607Y1534801D01*
X362370Y1535564D01*
X362370Y1537089D01*
X361607Y1537852D01*
X358557Y1537852D01*
X357794Y1537089D01*
X357794Y1535564D01*
X358557Y1534801D01*
X361607Y1537852D01*
X357794Y1539479D02*
X357794Y1542529D01*
X357794Y1539479D02*
X360845Y1542529D01*
X361607Y1542529D01*
X362370Y1541767D01*
X362370Y1540241D01*
X361607Y1539479D01*
X360845Y1544156D02*
X357794Y1544156D01*
X360845Y1544156D02*
X362370Y1545682D01*
X360845Y1547207D01*
X357794Y1547207D01*
X360082Y1547207D02*
X360082Y1544156D01*
D16*
X342720Y1580060D02*
X402720Y1580060D01*
X402720Y1695060D02*
X342720Y1695060D01*
X402720Y1589310D02*
X402720Y1580060D01*
X402720Y1606810D02*
X402720Y1621810D01*
X402720Y1639310D02*
X402720Y1656810D01*
X402720Y1674310D02*
X402720Y1695060D01*
X342720Y1695060D02*
X342720Y1674310D01*
X342720Y1656810D02*
X342720Y1639310D01*
X342720Y1621810D02*
X342720Y1606810D01*
X342720Y1589310D02*
X342720Y1580060D01*
D12*
X384051Y1628968D02*
X386000Y1630917D01*
X384051Y1628968D02*
X382102Y1628968D01*
X380153Y1630917D01*
X380153Y1640662D01*
X382102Y1640662D02*
X378204Y1640662D01*
X374306Y1636764D02*
X370408Y1640662D01*
X370408Y1628968D01*
X374306Y1628968D02*
X366510Y1628968D01*
X339523Y1456034D02*
X341472Y1454085D01*
X341472Y1450187D01*
X339523Y1448238D01*
X331727Y1448238D01*
X329778Y1450187D01*
X329778Y1454085D01*
X331727Y1456034D01*
X339523Y1459932D02*
X341472Y1461881D01*
X341472Y1465779D01*
X339523Y1467728D01*
X337574Y1467728D01*
X335625Y1465779D01*
X335625Y1463830D01*
X335625Y1465779D02*
X333676Y1467728D01*
X331727Y1467728D01*
X329778Y1465779D01*
X329778Y1461881D01*
X331727Y1459932D01*
X341472Y1471626D02*
X341472Y1479422D01*
X339523Y1479422D01*
X331727Y1471626D01*
X329778Y1471626D01*
D16*
X451400Y1377801D02*
X452559Y1376642D01*
X452559Y1374324D01*
X451400Y1373165D01*
X446764Y1373165D01*
X445605Y1374324D01*
X445605Y1376642D01*
X446764Y1377801D01*
X445605Y1384209D02*
X452559Y1384209D01*
X449082Y1380732D01*
X449082Y1385368D01*
X446764Y1388299D02*
X451400Y1388299D01*
X452559Y1389458D01*
X452559Y1391776D01*
X451400Y1392935D01*
X446764Y1392935D01*
X445605Y1391776D01*
X445605Y1389458D01*
X446764Y1388299D01*
X451400Y1392935D01*
X365159Y1579385D02*
X366303Y1580529D01*
X368591Y1580529D01*
X369735Y1579385D01*
X369735Y1574809D01*
X368591Y1573665D01*
X366303Y1573665D01*
X365159Y1574809D01*
X358819Y1573665D02*
X358819Y1580529D01*
X362251Y1577097D01*
X357675Y1577097D01*
X354767Y1574809D02*
X353623Y1573665D01*
X351335Y1573665D01*
X350191Y1574809D01*
X350191Y1579385D01*
X351335Y1580529D01*
X353623Y1580529D01*
X354767Y1579385D01*
X354767Y1578241D01*
X353623Y1577097D01*
X350191Y1577097D01*
D12*
X389923Y1455334D02*
X391872Y1453385D01*
X391872Y1449487D01*
X389923Y1447538D01*
X382127Y1447538D01*
X380178Y1449487D01*
X380178Y1453385D01*
X382127Y1455334D01*
X391872Y1459232D02*
X391872Y1467028D01*
X391872Y1459232D02*
X386025Y1459232D01*
X387974Y1463130D01*
X387974Y1465079D01*
X386025Y1467028D01*
X382127Y1467028D01*
X380178Y1465079D01*
X380178Y1461181D01*
X382127Y1459232D01*
X382127Y1470926D02*
X389923Y1470926D01*
X391872Y1472875D01*
X391872Y1476773D01*
X389923Y1478722D01*
X382127Y1478722D01*
X380178Y1476773D01*
X380178Y1472875D01*
X382127Y1470926D01*
X389923Y1478722D01*
X338523Y1414552D02*
X340472Y1412603D01*
X340472Y1408705D01*
X338523Y1406756D01*
X330727Y1406756D01*
X328778Y1408705D01*
X328778Y1412603D01*
X330727Y1414552D01*
X340472Y1418450D02*
X340472Y1426246D01*
X340472Y1418450D02*
X334625Y1418450D01*
X336574Y1422348D01*
X336574Y1424297D01*
X334625Y1426246D01*
X330727Y1426246D01*
X328778Y1424297D01*
X328778Y1420399D01*
X330727Y1418450D01*
X338523Y1430144D02*
X340472Y1432093D01*
X340472Y1435991D01*
X338523Y1437940D01*
X336574Y1437940D01*
X334625Y1435991D01*
X334625Y1434042D01*
X334625Y1435991D02*
X332676Y1437940D01*
X330727Y1437940D01*
X328778Y1435991D01*
X328778Y1432093D01*
X330727Y1430144D01*
X364223Y1415152D02*
X366172Y1413203D01*
X366172Y1409305D01*
X364223Y1407356D01*
X356427Y1407356D01*
X354478Y1409305D01*
X354478Y1413203D01*
X356427Y1415152D01*
X366172Y1419050D02*
X366172Y1426846D01*
X366172Y1419050D02*
X360325Y1419050D01*
X362274Y1422948D01*
X362274Y1424897D01*
X360325Y1426846D01*
X356427Y1426846D01*
X354478Y1424897D01*
X354478Y1420999D01*
X356427Y1419050D01*
X354478Y1436591D02*
X366172Y1436591D01*
X360325Y1430744D01*
X360325Y1438540D01*
D11*
X633690Y1525290D02*
X633690Y1540530D01*
X649438Y1545102D02*
X649571Y1545100D01*
X649704Y1545094D01*
X649836Y1545085D01*
X649969Y1545071D01*
X650101Y1545054D01*
X650232Y1545033D01*
X650363Y1545008D01*
X650492Y1544979D01*
X650621Y1544946D01*
X650749Y1544910D01*
X650876Y1544870D01*
X651002Y1544826D01*
X651126Y1544779D01*
X651249Y1544728D01*
X651370Y1544674D01*
X651490Y1544616D01*
X651608Y1544554D01*
X651724Y1544489D01*
X651838Y1544421D01*
X651950Y1544350D01*
X652060Y1544275D01*
X652168Y1544197D01*
X652274Y1544116D01*
X652377Y1544032D01*
X652477Y1543945D01*
X652575Y1543856D01*
X652671Y1543763D01*
X652764Y1543667D01*
X652853Y1543569D01*
X652940Y1543469D01*
X653024Y1543366D01*
X653105Y1543260D01*
X653183Y1543152D01*
X653258Y1543042D01*
X653329Y1542930D01*
X653397Y1542816D01*
X653462Y1542700D01*
X653524Y1542582D01*
X653582Y1542462D01*
X653636Y1542341D01*
X653687Y1542218D01*
X653734Y1542094D01*
X653778Y1541968D01*
X653818Y1541841D01*
X653854Y1541713D01*
X653887Y1541584D01*
X653916Y1541455D01*
X653941Y1541324D01*
X653962Y1541193D01*
X653979Y1541061D01*
X653993Y1540928D01*
X654002Y1540796D01*
X654008Y1540663D01*
X654010Y1540530D01*
X654010Y1525290D02*
X654008Y1525157D01*
X654002Y1525024D01*
X653993Y1524892D01*
X653979Y1524759D01*
X653962Y1524627D01*
X653941Y1524496D01*
X653916Y1524365D01*
X653887Y1524236D01*
X653854Y1524107D01*
X653818Y1523979D01*
X653778Y1523852D01*
X653734Y1523726D01*
X653687Y1523602D01*
X653636Y1523479D01*
X653582Y1523358D01*
X653524Y1523238D01*
X653462Y1523120D01*
X653397Y1523004D01*
X653329Y1522890D01*
X653258Y1522778D01*
X653183Y1522668D01*
X653105Y1522560D01*
X653024Y1522454D01*
X652940Y1522351D01*
X652853Y1522251D01*
X652764Y1522153D01*
X652671Y1522057D01*
X652575Y1521964D01*
X652477Y1521875D01*
X652377Y1521788D01*
X652274Y1521704D01*
X652168Y1521623D01*
X652060Y1521545D01*
X651950Y1521470D01*
X651838Y1521399D01*
X651724Y1521331D01*
X651608Y1521266D01*
X651490Y1521204D01*
X651370Y1521146D01*
X651249Y1521092D01*
X651126Y1521041D01*
X651002Y1520994D01*
X650876Y1520950D01*
X650749Y1520910D01*
X650621Y1520874D01*
X650492Y1520841D01*
X650363Y1520812D01*
X650232Y1520787D01*
X650101Y1520766D01*
X649969Y1520749D01*
X649836Y1520735D01*
X649704Y1520726D01*
X649571Y1520720D01*
X649438Y1520718D01*
X638262Y1520718D02*
X638129Y1520720D01*
X637996Y1520726D01*
X637864Y1520735D01*
X637731Y1520749D01*
X637599Y1520766D01*
X637468Y1520787D01*
X637337Y1520812D01*
X637208Y1520841D01*
X637079Y1520874D01*
X636951Y1520910D01*
X636824Y1520950D01*
X636698Y1520994D01*
X636574Y1521041D01*
X636451Y1521092D01*
X636330Y1521146D01*
X636210Y1521204D01*
X636092Y1521266D01*
X635976Y1521331D01*
X635862Y1521399D01*
X635750Y1521470D01*
X635640Y1521545D01*
X635532Y1521623D01*
X635426Y1521704D01*
X635323Y1521788D01*
X635223Y1521875D01*
X635125Y1521964D01*
X635029Y1522057D01*
X634936Y1522153D01*
X634847Y1522251D01*
X634760Y1522351D01*
X634676Y1522454D01*
X634595Y1522560D01*
X634517Y1522668D01*
X634442Y1522778D01*
X634371Y1522890D01*
X634303Y1523004D01*
X634238Y1523120D01*
X634176Y1523238D01*
X634118Y1523358D01*
X634064Y1523479D01*
X634013Y1523602D01*
X633966Y1523726D01*
X633922Y1523852D01*
X633882Y1523979D01*
X633846Y1524107D01*
X633813Y1524236D01*
X633784Y1524365D01*
X633759Y1524496D01*
X633738Y1524627D01*
X633721Y1524759D01*
X633707Y1524892D01*
X633698Y1525024D01*
X633692Y1525157D01*
X633690Y1525290D01*
X633690Y1540530D02*
X633692Y1540663D01*
X633698Y1540796D01*
X633707Y1540928D01*
X633721Y1541061D01*
X633738Y1541193D01*
X633759Y1541324D01*
X633784Y1541455D01*
X633813Y1541584D01*
X633846Y1541713D01*
X633882Y1541841D01*
X633922Y1541968D01*
X633966Y1542094D01*
X634013Y1542218D01*
X634064Y1542341D01*
X634118Y1542462D01*
X634176Y1542582D01*
X634238Y1542700D01*
X634303Y1542816D01*
X634371Y1542930D01*
X634442Y1543042D01*
X634517Y1543152D01*
X634595Y1543260D01*
X634676Y1543366D01*
X634760Y1543469D01*
X634847Y1543569D01*
X634936Y1543667D01*
X635029Y1543763D01*
X635125Y1543856D01*
X635223Y1543945D01*
X635323Y1544032D01*
X635426Y1544116D01*
X635532Y1544197D01*
X635640Y1544275D01*
X635750Y1544350D01*
X635862Y1544421D01*
X635976Y1544489D01*
X636092Y1544554D01*
X636210Y1544616D01*
X636330Y1544674D01*
X636451Y1544728D01*
X636574Y1544779D01*
X636698Y1544826D01*
X636824Y1544870D01*
X636951Y1544910D01*
X637079Y1544946D01*
X637208Y1544979D01*
X637337Y1545008D01*
X637468Y1545033D01*
X637599Y1545054D01*
X637731Y1545071D01*
X637864Y1545085D01*
X637996Y1545094D01*
X638129Y1545100D01*
X638262Y1545102D01*
X649438Y1545102D01*
X649438Y1520718D02*
X638262Y1520718D01*
X654010Y1525290D02*
X654010Y1540530D01*
D16*
X655915Y1525930D02*
X656720Y1525125D01*
X655915Y1525930D02*
X655915Y1526735D01*
X656720Y1527540D01*
X660745Y1527540D01*
X660745Y1526735D02*
X660745Y1528345D01*
X660745Y1530738D02*
X655915Y1530738D01*
X660745Y1530738D02*
X660745Y1533154D01*
X659940Y1533959D01*
X658330Y1533959D01*
X657525Y1533154D01*
X657525Y1530738D01*
X659135Y1536352D02*
X660745Y1537962D01*
X655915Y1537962D01*
X655915Y1536352D02*
X655915Y1539572D01*
D11*
X665024Y1534338D02*
X665024Y1530782D01*
X672136Y1530782D02*
X672136Y1534338D01*
D12*
X659192Y1518570D02*
X647498Y1518570D01*
X659192Y1518570D02*
X659192Y1524417D01*
X657243Y1526366D01*
X653345Y1526366D01*
X651396Y1524417D01*
X651396Y1518570D01*
X651396Y1522468D02*
X647498Y1526366D01*
X647498Y1530264D02*
X647498Y1538060D01*
X647498Y1530264D02*
X655294Y1538060D01*
X657243Y1538060D01*
X659192Y1536111D01*
X659192Y1532213D01*
X657243Y1530264D01*
D11*
X770310Y907620D02*
X770310Y894920D01*
X776660Y888570D01*
X789360Y888570D01*
X795710Y894920D01*
X776660Y888570D02*
X770310Y882220D01*
X770310Y869520D01*
X776660Y863170D01*
X789360Y863170D01*
X795710Y869520D01*
X795710Y882220D01*
X789360Y888570D01*
X789360Y913970D02*
X776660Y913970D01*
X770310Y907620D01*
X789360Y913970D02*
X795710Y907620D01*
X795710Y894920D01*
X776660Y863170D02*
X770310Y856820D01*
X770310Y844120D01*
X776660Y837770D01*
X789360Y837770D01*
X795710Y844120D01*
X795710Y856820D01*
X789360Y863170D01*
D16*
X818827Y849682D02*
X818827Y845869D01*
X818827Y847776D02*
X830267Y847776D01*
X830267Y849682D02*
X830267Y845869D01*
X830267Y853665D02*
X818827Y853665D01*
X830267Y853665D02*
X830267Y859385D01*
X828360Y861292D01*
X824547Y861292D01*
X822640Y859385D01*
X822640Y853665D01*
X822640Y857478D02*
X818827Y861292D01*
X816920Y865359D02*
X816920Y872985D01*
X818827Y877053D02*
X830267Y877053D01*
X830267Y882773D01*
X828360Y884679D01*
X824547Y884679D01*
X822640Y882773D01*
X822640Y877053D01*
X822640Y880866D02*
X818827Y884679D01*
D10*
X827620Y942960D02*
X827620Y981060D01*
D19*
X827146Y981676D01*
X826657Y982281D01*
X826153Y982873D01*
X825635Y983453D01*
X825103Y984020D01*
X824557Y984574D01*
X823998Y985114D01*
X823425Y985640D01*
X822840Y986153D01*
X822243Y986650D01*
X821634Y987133D01*
X821013Y987601D01*
X820380Y988054D01*
X819737Y988491D01*
X819083Y988912D01*
X818419Y989316D01*
X817746Y989705D01*
X817063Y990077D01*
X816371Y990432D01*
X815671Y990770D01*
X814963Y991091D01*
X814247Y991394D01*
X813523Y991680D01*
X812794Y991948D01*
X812057Y992198D01*
X811315Y992429D01*
X810567Y992643D01*
X809815Y992838D01*
X809057Y993015D01*
X808296Y993173D01*
X807531Y993313D01*
X806763Y993433D01*
X805992Y993535D01*
X805219Y993618D01*
X804444Y993682D01*
X803668Y993727D01*
X802891Y993753D01*
X802113Y993760D01*
X801336Y993748D01*
X800559Y993717D01*
X799783Y993666D01*
X799008Y993597D01*
X798236Y993509D01*
X797466Y993402D01*
X796698Y993276D01*
X795934Y993132D01*
X795174Y992968D01*
X794418Y992786D01*
X793667Y992586D01*
X792920Y992368D01*
X792180Y992131D01*
X791445Y991876D01*
X790717Y991603D01*
X789996Y991312D01*
X789282Y991004D01*
X788576Y990679D01*
X787878Y990336D01*
X787188Y989976D01*
X786508Y989600D01*
X785837Y989207D01*
X785176Y988797D01*
X784525Y988372D01*
X783885Y987931D01*
X783256Y987474D01*
X782638Y987002D01*
X782032Y986515D01*
X781438Y986013D01*
X780856Y985497D01*
X780287Y984967D01*
X779732Y984423D01*
X779189Y983865D01*
X778661Y983295D01*
X778147Y982712D01*
X777647Y982116D01*
X777162Y981508D01*
X776692Y980889D01*
X776238Y980258D01*
X775799Y979616D01*
X775375Y978964D01*
X774968Y978301D01*
X774577Y977629D01*
X774203Y976947D01*
X773846Y976257D01*
X773506Y975558D01*
X773182Y974850D01*
X772877Y974136D01*
X772588Y973413D01*
X772318Y972684D01*
X772066Y971949D01*
X771831Y971207D01*
X771615Y970460D01*
X771417Y969708D01*
X771238Y968952D01*
X771077Y968191D01*
X770935Y967427D01*
X770812Y966659D01*
X770708Y965888D01*
X770622Y965115D01*
X770556Y964341D01*
X770508Y963565D01*
X770480Y962788D01*
X770470Y962010D01*
X770480Y961232D01*
X770508Y960455D01*
X770556Y959679D01*
X770622Y958905D01*
X770708Y958132D01*
X770812Y957361D01*
X770935Y956593D01*
X771077Y955829D01*
X771238Y955068D01*
X771417Y954312D01*
X771615Y953560D01*
X771831Y952813D01*
X772066Y952071D01*
X772318Y951336D01*
X772588Y950607D01*
X772877Y949884D01*
X773182Y949170D01*
X773506Y948462D01*
X773846Y947763D01*
X774203Y947073D01*
X774577Y946391D01*
X774968Y945719D01*
X775375Y945056D01*
X775799Y944404D01*
X776238Y943762D01*
X776692Y943131D01*
X777162Y942512D01*
X777647Y941904D01*
X778147Y941308D01*
X778661Y940725D01*
X779189Y940155D01*
X779732Y939597D01*
X780287Y939053D01*
X780856Y938523D01*
X781438Y938007D01*
X782032Y937505D01*
X782638Y937018D01*
X783256Y936546D01*
X783885Y936089D01*
X784525Y935648D01*
X785176Y935223D01*
X785837Y934813D01*
X786508Y934420D01*
X787188Y934044D01*
X787878Y933684D01*
X788576Y933341D01*
X789282Y933016D01*
X789996Y932708D01*
X790717Y932417D01*
X791445Y932144D01*
X792180Y931889D01*
X792920Y931652D01*
X793667Y931434D01*
X794418Y931234D01*
X795174Y931052D01*
X795934Y930888D01*
X796698Y930744D01*
X797466Y930618D01*
X798236Y930511D01*
X799008Y930423D01*
X799783Y930354D01*
X800559Y930303D01*
X801336Y930272D01*
X802113Y930260D01*
X802891Y930267D01*
X803668Y930293D01*
X804444Y930338D01*
X805219Y930402D01*
X805992Y930485D01*
X806763Y930587D01*
X807531Y930707D01*
X808296Y930847D01*
X809057Y931005D01*
X809815Y931182D01*
X810567Y931377D01*
X811315Y931591D01*
X812057Y931822D01*
X812794Y932072D01*
X813523Y932340D01*
X814247Y932626D01*
X814963Y932929D01*
X815671Y933250D01*
X816371Y933588D01*
X817063Y933943D01*
X817746Y934315D01*
X818419Y934704D01*
X819083Y935108D01*
X819737Y935529D01*
X820380Y935966D01*
X821013Y936419D01*
X821634Y936887D01*
X822243Y937370D01*
X822840Y937867D01*
X823425Y938380D01*
X823998Y938906D01*
X824557Y939446D01*
X825103Y940000D01*
X825635Y940567D01*
X826153Y941147D01*
X826657Y941739D01*
X827146Y942344D01*
X827620Y942960D01*
D11*
X776820Y962010D02*
X776828Y962633D01*
X776851Y963256D01*
X776889Y963879D01*
X776942Y964500D01*
X777011Y965119D01*
X777095Y965737D01*
X777194Y966352D01*
X777308Y966965D01*
X777437Y967575D01*
X777581Y968182D01*
X777740Y968785D01*
X777914Y969383D01*
X778102Y969978D01*
X778305Y970567D01*
X778522Y971151D01*
X778753Y971730D01*
X778999Y972303D01*
X779259Y972870D01*
X779532Y973430D01*
X779819Y973983D01*
X780120Y974530D01*
X780434Y975068D01*
X780761Y975599D01*
X781101Y976121D01*
X781453Y976636D01*
X781819Y977141D01*
X782196Y977637D01*
X782586Y978124D01*
X782987Y978601D01*
X783400Y979068D01*
X783824Y979524D01*
X784259Y979971D01*
X784706Y980406D01*
X785162Y980830D01*
X785629Y981243D01*
X786106Y981644D01*
X786593Y982034D01*
X787089Y982411D01*
X787594Y982777D01*
X788109Y983129D01*
X788631Y983469D01*
X789162Y983796D01*
X789700Y984110D01*
X790247Y984411D01*
X790800Y984698D01*
X791360Y984971D01*
X791927Y985231D01*
X792500Y985477D01*
X793079Y985708D01*
X793663Y985925D01*
X794252Y986128D01*
X794847Y986316D01*
X795445Y986490D01*
X796048Y986649D01*
X796655Y986793D01*
X797265Y986922D01*
X797878Y987036D01*
X798493Y987135D01*
X799111Y987219D01*
X799730Y987288D01*
X800351Y987341D01*
X800974Y987379D01*
X801597Y987402D01*
X802220Y987410D01*
X802843Y987402D01*
X803466Y987379D01*
X804089Y987341D01*
X804710Y987288D01*
X805329Y987219D01*
X805947Y987135D01*
X806562Y987036D01*
X807175Y986922D01*
X807785Y986793D01*
X808392Y986649D01*
X808995Y986490D01*
X809593Y986316D01*
X810188Y986128D01*
X810777Y985925D01*
X811361Y985708D01*
X811940Y985477D01*
X812513Y985231D01*
X813080Y984971D01*
X813640Y984698D01*
X814193Y984411D01*
X814740Y984110D01*
X815278Y983796D01*
X815809Y983469D01*
X816331Y983129D01*
X816846Y982777D01*
X817351Y982411D01*
X817847Y982034D01*
X818334Y981644D01*
X818811Y981243D01*
X819278Y980830D01*
X819734Y980406D01*
X820181Y979971D01*
X820616Y979524D01*
X821040Y979068D01*
X821453Y978601D01*
X821854Y978124D01*
X822244Y977637D01*
X822621Y977141D01*
X822987Y976636D01*
X823339Y976121D01*
X823679Y975599D01*
X824006Y975068D01*
X824320Y974530D01*
X824621Y973983D01*
X824908Y973430D01*
X825181Y972870D01*
X825441Y972303D01*
X825687Y971730D01*
X825918Y971151D01*
X826135Y970567D01*
X826338Y969978D01*
X826526Y969383D01*
X826700Y968785D01*
X826859Y968182D01*
X827003Y967575D01*
X827132Y966965D01*
X827246Y966352D01*
X827345Y965737D01*
X827429Y965119D01*
X827498Y964500D01*
X827551Y963879D01*
X827589Y963256D01*
X827612Y962633D01*
X827620Y962010D01*
X827612Y961387D01*
X827589Y960764D01*
X827551Y960141D01*
X827498Y959520D01*
X827429Y958901D01*
X827345Y958283D01*
X827246Y957668D01*
X827132Y957055D01*
X827003Y956445D01*
X826859Y955838D01*
X826700Y955235D01*
X826526Y954637D01*
X826338Y954042D01*
X826135Y953453D01*
X825918Y952869D01*
X825687Y952290D01*
X825441Y951717D01*
X825181Y951150D01*
X824908Y950590D01*
X824621Y950037D01*
X824320Y949490D01*
X824006Y948952D01*
X823679Y948421D01*
X823339Y947899D01*
X822987Y947384D01*
X822621Y946879D01*
X822244Y946383D01*
X821854Y945896D01*
X821453Y945419D01*
X821040Y944952D01*
X820616Y944496D01*
X820181Y944049D01*
X819734Y943614D01*
X819278Y943190D01*
X818811Y942777D01*
X818334Y942376D01*
X817847Y941986D01*
X817351Y941609D01*
X816846Y941243D01*
X816331Y940891D01*
X815809Y940551D01*
X815278Y940224D01*
X814740Y939910D01*
X814193Y939609D01*
X813640Y939322D01*
X813080Y939049D01*
X812513Y938789D01*
X811940Y938543D01*
X811361Y938312D01*
X810777Y938095D01*
X810188Y937892D01*
X809593Y937704D01*
X808995Y937530D01*
X808392Y937371D01*
X807785Y937227D01*
X807175Y937098D01*
X806562Y936984D01*
X805947Y936885D01*
X805329Y936801D01*
X804710Y936732D01*
X804089Y936679D01*
X803466Y936641D01*
X802843Y936618D01*
X802220Y936610D01*
X801597Y936618D01*
X800974Y936641D01*
X800351Y936679D01*
X799730Y936732D01*
X799111Y936801D01*
X798493Y936885D01*
X797878Y936984D01*
X797265Y937098D01*
X796655Y937227D01*
X796048Y937371D01*
X795445Y937530D01*
X794847Y937704D01*
X794252Y937892D01*
X793663Y938095D01*
X793079Y938312D01*
X792500Y938543D01*
X791927Y938789D01*
X791360Y939049D01*
X790800Y939322D01*
X790247Y939609D01*
X789700Y939910D01*
X789162Y940224D01*
X788631Y940551D01*
X788109Y940891D01*
X787594Y941243D01*
X787089Y941609D01*
X786593Y941986D01*
X786106Y942376D01*
X785629Y942777D01*
X785162Y943190D01*
X784706Y943614D01*
X784259Y944049D01*
X783824Y944496D01*
X783400Y944952D01*
X782987Y945419D01*
X782586Y945896D01*
X782196Y946383D01*
X781819Y946879D01*
X781453Y947384D01*
X781101Y947899D01*
X780761Y948421D01*
X780434Y948952D01*
X780120Y949490D01*
X779819Y950037D01*
X779532Y950590D01*
X779259Y951150D01*
X778999Y951717D01*
X778753Y952290D01*
X778522Y952869D01*
X778305Y953453D01*
X778102Y954042D01*
X777914Y954637D01*
X777740Y955235D01*
X777581Y955838D01*
X777437Y956445D01*
X777308Y957055D01*
X777194Y957668D01*
X777095Y958283D01*
X777011Y958901D01*
X776942Y959520D01*
X776889Y960141D01*
X776851Y960764D01*
X776828Y961387D01*
X776820Y962010D01*
D16*
X831488Y997401D02*
X835301Y997401D01*
X833394Y997401D02*
X833394Y1008841D01*
X831488Y1008841D02*
X835301Y1008841D01*
X827505Y1008841D02*
X827505Y997401D01*
X827505Y1008841D02*
X821785Y1008841D01*
X819879Y1006934D01*
X819879Y1003121D01*
X821785Y1001214D01*
X827505Y1001214D01*
X823692Y1001214D02*
X819879Y997401D01*
X815811Y995494D02*
X808185Y995494D01*
X804117Y997401D02*
X804117Y1008841D01*
X804117Y997401D02*
X796491Y997401D01*
X792423Y1008841D02*
X784797Y1008841D01*
X792423Y1008841D02*
X792423Y997401D01*
X784797Y997401D01*
X788610Y1003121D02*
X792423Y1003121D01*
X780729Y1008841D02*
X780729Y997401D01*
X775009Y997401D01*
X773103Y999308D01*
X773103Y1006934D01*
X775009Y1008841D01*
X780729Y1008841D01*
D11*
X761828Y917644D02*
X758272Y917644D01*
X758272Y924756D02*
X761828Y924756D01*
D12*
X774040Y911812D02*
X774040Y900118D01*
X774040Y911812D02*
X768193Y911812D01*
X766244Y909863D01*
X766244Y905965D01*
X768193Y904016D01*
X774040Y904016D01*
X770142Y904016D02*
X766244Y900118D01*
X762346Y911812D02*
X754550Y911812D01*
X762346Y911812D02*
X762346Y905965D01*
X758448Y907914D01*
X756499Y907914D01*
X754550Y905965D01*
X754550Y902067D01*
X756499Y900118D01*
X760397Y900118D01*
X762346Y902067D01*
D11*
X776690Y790650D02*
X789390Y790650D01*
X795740Y797000D01*
X795740Y809700D01*
X789390Y816050D01*
X770340Y809700D02*
X770340Y797000D01*
X776690Y790650D01*
X770340Y809700D02*
X776690Y816050D01*
X789390Y816050D01*
X795740Y797000D02*
X802090Y790650D01*
X814790Y790650D01*
X821140Y797000D01*
X821140Y809700D01*
X814790Y816050D01*
X802090Y816050D01*
X795740Y809700D01*
D16*
X824413Y785437D02*
X824413Y773997D01*
X824413Y785437D02*
X818693Y785437D01*
X816786Y783530D01*
X816786Y781624D01*
X818693Y779717D01*
X816786Y777810D01*
X816786Y775904D01*
X818693Y773997D01*
X824413Y773997D01*
X824413Y779717D02*
X818693Y779717D01*
X812719Y775904D02*
X812719Y785437D01*
X812719Y775904D02*
X810812Y773997D01*
X806999Y773997D01*
X805093Y775904D01*
X805093Y785437D01*
X801025Y785437D02*
X793399Y785437D01*
X793399Y783530D01*
X801025Y775904D01*
X801025Y773997D01*
X793399Y773997D01*
X789331Y785437D02*
X781705Y785437D01*
X781705Y783530D01*
X789331Y775904D01*
X789331Y773997D01*
X781705Y773997D01*
X777637Y781624D02*
X773824Y785437D01*
X773824Y773997D01*
X777637Y773997D02*
X770011Y773997D01*
X390125Y677325D02*
X388218Y679232D01*
X390125Y677325D02*
X390125Y673512D01*
X388218Y671605D01*
X386312Y671605D01*
X384405Y673512D01*
X384405Y677325D01*
X382498Y679232D01*
X380592Y679232D01*
X378685Y677325D01*
X378685Y673512D01*
X380592Y671605D01*
X378685Y683299D02*
X390125Y683299D01*
X384405Y683299D02*
X384405Y690926D01*
X390125Y690926D02*
X378685Y690926D01*
X378685Y694993D02*
X378685Y698806D01*
X378685Y696900D02*
X390125Y696900D01*
X390125Y698806D02*
X390125Y694993D01*
X390125Y706602D02*
X378685Y706602D01*
X390125Y702789D02*
X390125Y710415D01*
X390125Y718296D02*
X378685Y718296D01*
X390125Y714483D02*
X390125Y722109D01*
X390125Y726177D02*
X388218Y726177D01*
X384405Y729990D01*
X388218Y733803D01*
X390125Y733803D01*
X384405Y729990D02*
X378685Y729990D01*
X384405Y737871D02*
X384405Y745497D01*
X386312Y749565D02*
X378685Y749565D01*
X386312Y749565D02*
X390125Y753378D01*
X386312Y757191D01*
X378685Y757191D01*
X384405Y757191D02*
X384405Y749565D01*
X390125Y761259D02*
X378685Y761259D01*
X378685Y766979D01*
X380592Y768885D01*
X388218Y768885D01*
X390125Y766979D01*
X390125Y761259D01*
X390125Y772953D02*
X378685Y772953D01*
X378685Y778673D01*
X380592Y780579D01*
X388218Y780579D01*
X390125Y778673D01*
X390125Y772953D01*
X390125Y786553D02*
X390125Y790367D01*
X390125Y786553D02*
X388218Y784647D01*
X380592Y784647D01*
X378685Y786553D01*
X378685Y790367D01*
X380592Y792273D01*
X388218Y792273D01*
X390125Y790367D01*
X390125Y796341D02*
X378685Y796341D01*
X378685Y803967D02*
X390125Y796341D01*
X390125Y803967D02*
X378685Y803967D01*
X409750Y82500D02*
X290250Y82500D01*
D20*
X311000Y156000D03*
D12*
X419759Y96652D02*
X431462Y96652D01*
X431462Y102504D01*
X429512Y104454D01*
X425611Y104454D01*
X423660Y102504D01*
X423660Y96652D01*
X427561Y108354D02*
X431462Y112255D01*
X419759Y112255D01*
X419759Y108354D02*
X419759Y116156D01*
D10*
X723000Y868000D02*
X723000Y871000D01*
X731000Y871000D01*
X723000Y852000D02*
X723000Y849000D01*
X731000Y849000D01*
D11*
X713362Y854049D02*
X708956Y854049D01*
X713362Y854049D02*
X714464Y855150D01*
X714464Y857354D01*
X713362Y858455D01*
X708956Y858455D01*
X707854Y857354D01*
X707854Y855150D01*
X708956Y854049D01*
X710057Y856252D02*
X707854Y858455D01*
X713362Y863736D02*
X714464Y865939D01*
X713362Y863736D02*
X711159Y861533D01*
X708956Y861533D01*
X707854Y862634D01*
X707854Y864838D01*
X708956Y865939D01*
X710057Y865939D01*
X711159Y864838D01*
X711159Y861533D01*
M02*
