G04 EAGLE Gerber RS-274X export*
G75*
%MOMM*%
%FSLAX34Y34*%
%LPD*%
%INSoldermask Bottom*%
%IPPOS*%
%AMOC8*
5,1,8,0,0,1.08239X$1,22.5*%
G01*
%ADD10C,3.500000*%
%ADD11C,2.387600*%
%ADD12R,1.050000X0.400000*%
%ADD13R,0.500000X0.500000*%
%ADD14R,3.000000X3.000000*%
%ADD15R,0.400000X1.050000*%
%ADD16R,1.150000X2.100000*%
%ADD17R,0.450000X2.300000*%
%ADD18R,2.375000X1.900000*%
%ADD19R,1.475000X2.100000*%
%ADD20R,1.500000X1.300000*%
%ADD21R,1.800000X1.000000*%
%ADD22R,0.830000X0.630000*%
%ADD23R,0.800000X0.900000*%
%ADD24R,1.100000X1.000000*%
%ADD25R,1.000000X1.100000*%
%ADD26R,0.700000X0.700000*%
%ADD27R,0.630000X0.830000*%
%ADD28R,1.300000X1.500000*%
%ADD29R,2.700000X3.000000*%
%ADD30R,0.300000X1.200000*%
%ADD31R,2.000000X1.200000*%
%ADD32R,1.500000X2.000000*%
%ADD33R,3.800000X2.000000*%
%ADD34C,0.300000*%
%ADD35R,1.651000X1.000000*%
%ADD36R,0.900000X0.800000*%
%ADD37R,1.000000X1.800000*%
%ADD38R,1.000000X4.500000*%
%ADD39R,1.700000X3.600000*%
%ADD40R,1.524000X0.762000*%
%ADD41R,1.270000X0.760000*%
%ADD42R,2.700000X3.700000*%
%ADD43R,0.635000X1.270000*%
%ADD44R,0.254000X0.711200*%
%ADD45R,1.600000X1.803000*%
%ADD46C,0.465000*%
%ADD47R,1.600000X0.300000*%
%ADD48C,1.500000*%
%ADD49R,1.500000X1.500000*%
%ADD50R,1.270000X0.635000*%
%ADD51C,1.524000*%
%ADD52P,1.319650X8X22.500000*%
%ADD53P,1.649562X8X292.500000*%
%ADD54R,1.000000X5.500000*%
%ADD55R,1.600000X3.000000*%

G36*
X444872Y1645120D02*
X444872Y1645120D01*
X444915Y1645132D01*
X444981Y1645139D01*
X446664Y1645590D01*
X446705Y1645609D01*
X446768Y1645628D01*
X448348Y1646365D01*
X448385Y1646391D01*
X448444Y1646420D01*
X449872Y1647420D01*
X449903Y1647452D01*
X449956Y1647491D01*
X451189Y1648724D01*
X451214Y1648760D01*
X451260Y1648808D01*
X452260Y1650236D01*
X452278Y1650277D01*
X452315Y1650332D01*
X453052Y1651912D01*
X453063Y1651955D01*
X453090Y1652016D01*
X453541Y1653699D01*
X453543Y1653730D01*
X453550Y1653752D01*
X453550Y1653767D01*
X453560Y1653808D01*
X453712Y1655545D01*
X453708Y1655589D01*
X453712Y1655655D01*
X453560Y1657392D01*
X453548Y1657435D01*
X453541Y1657501D01*
X453090Y1659184D01*
X453071Y1659225D01*
X453052Y1659288D01*
X452315Y1660868D01*
X452289Y1660905D01*
X452260Y1660964D01*
X451260Y1662392D01*
X451228Y1662423D01*
X451189Y1662476D01*
X449956Y1663709D01*
X449920Y1663734D01*
X449872Y1663780D01*
X448444Y1664780D01*
X448403Y1664798D01*
X448348Y1664835D01*
X446768Y1665572D01*
X446725Y1665583D01*
X446664Y1665610D01*
X444981Y1666061D01*
X444936Y1666064D01*
X444872Y1666080D01*
X443135Y1666232D01*
X443091Y1666228D01*
X443025Y1666232D01*
X441288Y1666080D01*
X441245Y1666068D01*
X441179Y1666061D01*
X439496Y1665610D01*
X439455Y1665591D01*
X439392Y1665572D01*
X437812Y1664835D01*
X437775Y1664809D01*
X437716Y1664780D01*
X436288Y1663780D01*
X436257Y1663748D01*
X436204Y1663709D01*
X434971Y1662476D01*
X434946Y1662440D01*
X434900Y1662392D01*
X433900Y1660964D01*
X433882Y1660923D01*
X433845Y1660868D01*
X433108Y1659288D01*
X433097Y1659245D01*
X433070Y1659184D01*
X432619Y1657501D01*
X432616Y1657456D01*
X432600Y1657392D01*
X432448Y1655655D01*
X432452Y1655611D01*
X432448Y1655545D01*
X432600Y1653808D01*
X432612Y1653765D01*
X432616Y1653731D01*
X432616Y1653715D01*
X432618Y1653710D01*
X432619Y1653699D01*
X433070Y1652016D01*
X433089Y1651975D01*
X433108Y1651912D01*
X433845Y1650332D01*
X433871Y1650295D01*
X433900Y1650236D01*
X434900Y1648808D01*
X434932Y1648777D01*
X434971Y1648724D01*
X436204Y1647491D01*
X436240Y1647466D01*
X436288Y1647420D01*
X437716Y1646420D01*
X437757Y1646402D01*
X437812Y1646365D01*
X439392Y1645628D01*
X439435Y1645617D01*
X439496Y1645590D01*
X441179Y1645139D01*
X441224Y1645136D01*
X441288Y1645120D01*
X443025Y1644968D01*
X443069Y1644972D01*
X443135Y1644968D01*
X444872Y1645120D01*
G37*
G36*
X729102Y1395610D02*
X729102Y1395610D01*
X729145Y1395622D01*
X729211Y1395629D01*
X730894Y1396080D01*
X730935Y1396099D01*
X730998Y1396118D01*
X732578Y1396855D01*
X732615Y1396881D01*
X732674Y1396910D01*
X734102Y1397910D01*
X734133Y1397942D01*
X734186Y1397981D01*
X735419Y1399214D01*
X735444Y1399250D01*
X735490Y1399298D01*
X736490Y1400726D01*
X736508Y1400767D01*
X736545Y1400822D01*
X737282Y1402402D01*
X737293Y1402445D01*
X737320Y1402506D01*
X737771Y1404189D01*
X737773Y1404220D01*
X737780Y1404242D01*
X737780Y1404257D01*
X737790Y1404298D01*
X737942Y1406035D01*
X737938Y1406079D01*
X737942Y1406145D01*
X737790Y1407882D01*
X737778Y1407925D01*
X737771Y1407991D01*
X737320Y1409674D01*
X737301Y1409715D01*
X737282Y1409778D01*
X736545Y1411358D01*
X736519Y1411395D01*
X736490Y1411454D01*
X735490Y1412882D01*
X735458Y1412913D01*
X735419Y1412966D01*
X734186Y1414199D01*
X734150Y1414224D01*
X734102Y1414270D01*
X732674Y1415270D01*
X732633Y1415288D01*
X732578Y1415325D01*
X730998Y1416062D01*
X730955Y1416073D01*
X730894Y1416100D01*
X729211Y1416551D01*
X729166Y1416554D01*
X729102Y1416570D01*
X727365Y1416722D01*
X727321Y1416718D01*
X727255Y1416722D01*
X725518Y1416570D01*
X725475Y1416558D01*
X725409Y1416551D01*
X723726Y1416100D01*
X723685Y1416081D01*
X723622Y1416062D01*
X722042Y1415325D01*
X722005Y1415299D01*
X721946Y1415270D01*
X720518Y1414270D01*
X720487Y1414238D01*
X720434Y1414199D01*
X719201Y1412966D01*
X719176Y1412930D01*
X719130Y1412882D01*
X718130Y1411454D01*
X718112Y1411413D01*
X718075Y1411358D01*
X717338Y1409778D01*
X717327Y1409735D01*
X717300Y1409674D01*
X716849Y1407991D01*
X716846Y1407946D01*
X716830Y1407882D01*
X716678Y1406145D01*
X716682Y1406101D01*
X716678Y1406035D01*
X716830Y1404298D01*
X716842Y1404255D01*
X716846Y1404221D01*
X716846Y1404205D01*
X716848Y1404200D01*
X716849Y1404189D01*
X717300Y1402506D01*
X717319Y1402465D01*
X717338Y1402402D01*
X718075Y1400822D01*
X718101Y1400785D01*
X718130Y1400726D01*
X719130Y1399298D01*
X719162Y1399267D01*
X719201Y1399214D01*
X720434Y1397981D01*
X720470Y1397956D01*
X720518Y1397910D01*
X721946Y1396910D01*
X721987Y1396892D01*
X722042Y1396855D01*
X723622Y1396118D01*
X723665Y1396107D01*
X723726Y1396080D01*
X725409Y1395629D01*
X725454Y1395626D01*
X725518Y1395610D01*
X727255Y1395458D01*
X727299Y1395462D01*
X727365Y1395458D01*
X729102Y1395610D01*
G37*
G36*
X276172Y811420D02*
X276172Y811420D01*
X276215Y811432D01*
X276281Y811439D01*
X277964Y811890D01*
X278005Y811909D01*
X278068Y811928D01*
X279648Y812665D01*
X279685Y812691D01*
X279744Y812720D01*
X281172Y813720D01*
X281203Y813752D01*
X281256Y813791D01*
X282489Y815024D01*
X282514Y815060D01*
X282560Y815108D01*
X283560Y816536D01*
X283578Y816577D01*
X283615Y816632D01*
X284352Y818212D01*
X284363Y818255D01*
X284390Y818316D01*
X284841Y819999D01*
X284843Y820030D01*
X284850Y820052D01*
X284850Y820067D01*
X284860Y820108D01*
X285012Y821845D01*
X285008Y821889D01*
X285012Y821955D01*
X284860Y823692D01*
X284848Y823735D01*
X284841Y823801D01*
X284390Y825484D01*
X284371Y825525D01*
X284352Y825588D01*
X283615Y827168D01*
X283589Y827205D01*
X283560Y827264D01*
X282560Y828692D01*
X282528Y828723D01*
X282489Y828776D01*
X281256Y830009D01*
X281220Y830034D01*
X281172Y830080D01*
X279744Y831080D01*
X279703Y831098D01*
X279648Y831135D01*
X278068Y831872D01*
X278025Y831883D01*
X277964Y831910D01*
X276281Y832361D01*
X276236Y832364D01*
X276172Y832380D01*
X274435Y832532D01*
X274391Y832528D01*
X274325Y832532D01*
X272588Y832380D01*
X272545Y832368D01*
X272479Y832361D01*
X270796Y831910D01*
X270755Y831891D01*
X270692Y831872D01*
X269112Y831135D01*
X269075Y831109D01*
X269016Y831080D01*
X267588Y830080D01*
X267557Y830048D01*
X267504Y830009D01*
X266271Y828776D01*
X266246Y828740D01*
X266200Y828692D01*
X265200Y827264D01*
X265182Y827223D01*
X265145Y827168D01*
X264408Y825588D01*
X264397Y825545D01*
X264370Y825484D01*
X263919Y823801D01*
X263916Y823756D01*
X263900Y823692D01*
X263748Y821955D01*
X263752Y821911D01*
X263748Y821845D01*
X263900Y820108D01*
X263912Y820065D01*
X263916Y820031D01*
X263916Y820015D01*
X263918Y820010D01*
X263919Y819999D01*
X264370Y818316D01*
X264389Y818275D01*
X264408Y818212D01*
X265145Y816632D01*
X265171Y816595D01*
X265200Y816536D01*
X266200Y815108D01*
X266232Y815077D01*
X266271Y815024D01*
X267504Y813791D01*
X267540Y813766D01*
X267588Y813720D01*
X269016Y812720D01*
X269057Y812702D01*
X269112Y812665D01*
X270692Y811928D01*
X270735Y811917D01*
X270796Y811890D01*
X272479Y811439D01*
X272524Y811436D01*
X272588Y811420D01*
X274325Y811268D01*
X274369Y811272D01*
X274435Y811268D01*
X276172Y811420D01*
G37*
G36*
X645185Y1530382D02*
X645185Y1530382D01*
X645251Y1530384D01*
X645294Y1530402D01*
X645341Y1530410D01*
X645398Y1530444D01*
X645458Y1530469D01*
X645493Y1530500D01*
X645534Y1530525D01*
X645576Y1530576D01*
X645624Y1530620D01*
X645646Y1530662D01*
X645675Y1530699D01*
X645696Y1530761D01*
X645727Y1530820D01*
X645735Y1530874D01*
X645747Y1530911D01*
X645746Y1530951D01*
X645754Y1531005D01*
X645754Y1534815D01*
X645743Y1534880D01*
X645741Y1534946D01*
X645723Y1534989D01*
X645715Y1535036D01*
X645681Y1535093D01*
X645656Y1535153D01*
X645625Y1535188D01*
X645600Y1535229D01*
X645549Y1535271D01*
X645505Y1535319D01*
X645463Y1535341D01*
X645426Y1535370D01*
X645364Y1535391D01*
X645305Y1535422D01*
X645251Y1535430D01*
X645214Y1535442D01*
X645174Y1535441D01*
X645120Y1535449D01*
X642580Y1535449D01*
X642515Y1535438D01*
X642449Y1535436D01*
X642406Y1535418D01*
X642359Y1535410D01*
X642302Y1535376D01*
X642242Y1535351D01*
X642207Y1535320D01*
X642166Y1535295D01*
X642125Y1535244D01*
X642076Y1535200D01*
X642054Y1535158D01*
X642025Y1535121D01*
X642004Y1535059D01*
X641973Y1535000D01*
X641965Y1534946D01*
X641953Y1534909D01*
X641953Y1534905D01*
X641953Y1534904D01*
X641954Y1534869D01*
X641946Y1534815D01*
X641946Y1531005D01*
X641957Y1530940D01*
X641959Y1530874D01*
X641977Y1530831D01*
X641985Y1530784D01*
X642019Y1530727D01*
X642044Y1530667D01*
X642075Y1530632D01*
X642100Y1530591D01*
X642151Y1530550D01*
X642195Y1530501D01*
X642237Y1530479D01*
X642274Y1530450D01*
X642336Y1530429D01*
X642395Y1530398D01*
X642449Y1530390D01*
X642486Y1530378D01*
X642526Y1530379D01*
X642580Y1530371D01*
X645120Y1530371D01*
X645185Y1530382D01*
G37*
D10*
X490000Y1690000D03*
D11*
X247131Y1075502D02*
X268170Y1054464D01*
X268170Y1012386D01*
X247131Y991348D01*
X162977Y991348D01*
X141938Y1012386D01*
X141938Y1054464D01*
X162977Y1075502D01*
X247131Y1129466D02*
X268170Y1129466D01*
X247131Y1129466D02*
X205054Y1171543D01*
X247131Y1213620D01*
X268170Y1213620D01*
X205054Y1171543D02*
X141938Y1171543D01*
X141938Y1267584D02*
X268170Y1267584D01*
X268170Y1330700D01*
X247131Y1351738D01*
X226093Y1351738D01*
X205054Y1330700D01*
X184015Y1351738D01*
X162977Y1351738D01*
X141938Y1330700D01*
X141938Y1267584D01*
X205054Y1267584D02*
X205054Y1330700D01*
X268170Y1405702D02*
X268170Y1489856D01*
X268170Y1405702D02*
X141938Y1405702D01*
X141938Y1489856D01*
X205054Y1447779D02*
X205054Y1405702D01*
X141938Y1543820D02*
X268170Y1543820D01*
X268170Y1606936D01*
X247131Y1627974D01*
X205054Y1627974D01*
X184015Y1606936D01*
X184015Y1543820D01*
X184015Y1585897D02*
X141938Y1627974D01*
X247131Y745800D02*
X289209Y745800D01*
X247131Y745800D02*
X226093Y724761D01*
X141938Y793820D02*
X141938Y856936D01*
X162977Y877975D01*
X184015Y856936D01*
X184015Y814859D01*
X205054Y793820D01*
X226093Y814859D01*
X226093Y877975D01*
D12*
X690370Y1549680D03*
D13*
X694595Y1543655D03*
D12*
X690370Y1554680D03*
D14*
X715620Y1564680D03*
D12*
X690370Y1559680D03*
X690370Y1564680D03*
X690370Y1569680D03*
X690370Y1574680D03*
X690370Y1579680D03*
D15*
X730620Y1539430D03*
X725620Y1539430D03*
X720620Y1539430D03*
X715620Y1539430D03*
X710620Y1539430D03*
X705620Y1539430D03*
X700620Y1539430D03*
X700620Y1589930D03*
X705620Y1589930D03*
X710620Y1589930D03*
X715620Y1589930D03*
X720620Y1589930D03*
X725620Y1589930D03*
X730620Y1589930D03*
D12*
X740870Y1579680D03*
X740870Y1574680D03*
X740870Y1569680D03*
X740870Y1564680D03*
X740870Y1559680D03*
X740870Y1554680D03*
X740870Y1549680D03*
D16*
X729170Y1673080D03*
X744670Y1673080D03*
D17*
X723920Y1642080D03*
X730420Y1642080D03*
X736920Y1642080D03*
X743420Y1642080D03*
X749920Y1642080D03*
D18*
X707420Y1673080D03*
D19*
X711920Y1650080D03*
X761920Y1650080D03*
D18*
X766420Y1673080D03*
D20*
X804520Y1574180D03*
X804520Y1555180D03*
D21*
X766420Y1616780D03*
X766420Y1588780D03*
D22*
X804520Y1603980D03*
X804520Y1626980D03*
D23*
X629920Y990480D03*
X648920Y990480D03*
X639420Y969480D03*
X648920Y1021280D03*
X629920Y1021280D03*
X639420Y1042280D03*
D24*
X601320Y1014380D03*
X601320Y997380D03*
X677520Y997380D03*
X677520Y1014380D03*
D25*
X804520Y1522380D03*
X804520Y1505380D03*
X766420Y1535080D03*
X766420Y1518080D03*
D24*
X766420Y1556180D03*
X766420Y1573180D03*
D26*
X483570Y1431480D03*
X483570Y1418480D03*
X465070Y1424980D03*
D22*
X436220Y1538080D03*
X436220Y1515080D03*
X461620Y1476980D03*
X461620Y1499980D03*
D27*
X460420Y1450380D03*
X437420Y1450380D03*
D24*
X414720Y1070180D03*
X431720Y1070180D03*
D28*
X413720Y1095580D03*
X432720Y1095580D03*
D20*
X474020Y1092380D03*
X474020Y1073380D03*
D25*
X474020Y1053280D03*
X474020Y1036280D03*
D24*
X470920Y1018880D03*
X453920Y1018880D03*
D20*
X474020Y1143180D03*
X474020Y1124180D03*
X474020Y1193980D03*
X474020Y1174980D03*
D29*
X642620Y1590880D03*
X489020Y1590880D03*
D30*
X508320Y1571080D03*
X513320Y1571080D03*
X518320Y1571080D03*
X523320Y1571080D03*
X528320Y1571080D03*
X533320Y1571080D03*
X538320Y1571080D03*
X543320Y1571080D03*
X548320Y1571080D03*
X553320Y1571080D03*
X558320Y1571080D03*
X563320Y1571080D03*
X568320Y1571080D03*
X573320Y1571080D03*
X578320Y1571080D03*
X583320Y1571080D03*
X588320Y1571080D03*
X593320Y1571080D03*
X598320Y1571080D03*
X603320Y1571080D03*
X608320Y1571080D03*
X613320Y1571080D03*
X618320Y1571080D03*
X623320Y1571080D03*
D25*
X461620Y1518080D03*
X461620Y1535080D03*
X487020Y1479980D03*
X487020Y1496980D03*
X410820Y1467280D03*
X410820Y1484280D03*
D24*
X563220Y1535080D03*
X563220Y1518080D03*
D25*
X537820Y1518080D03*
X537820Y1535080D03*
X512420Y1518080D03*
X512420Y1535080D03*
X487020Y1518080D03*
X487020Y1535080D03*
X410820Y1518080D03*
X410820Y1535080D03*
X436220Y1479980D03*
X436220Y1496980D03*
X489420Y1391380D03*
X489420Y1374380D03*
D31*
X411920Y1415580D03*
X411920Y1447580D03*
D20*
X413220Y1392380D03*
X413220Y1373380D03*
D32*
X446220Y1127580D03*
X423220Y1127580D03*
X400220Y1127580D03*
D33*
X423220Y1190580D03*
D25*
X605520Y955080D03*
X622520Y955080D03*
X702920Y1213280D03*
X702920Y1230280D03*
X690220Y1213280D03*
X690220Y1230280D03*
X609820Y1043980D03*
X592820Y1043980D03*
D34*
X384990Y1383380D02*
X384990Y1390380D01*
X384990Y1383380D02*
X377990Y1383380D01*
X377990Y1390380D01*
X384990Y1390380D01*
X384990Y1386230D02*
X377990Y1386230D01*
X377990Y1389080D02*
X384990Y1389080D01*
X367450Y1390380D02*
X367450Y1383380D01*
X360450Y1383380D01*
X360450Y1390380D01*
X367450Y1390380D01*
X367450Y1386230D02*
X360450Y1386230D01*
X360450Y1389080D02*
X367450Y1389080D01*
X384990Y1364980D02*
X384990Y1357980D01*
X377990Y1357980D01*
X377990Y1364980D01*
X384990Y1364980D01*
X384990Y1360830D02*
X377990Y1360830D01*
X377990Y1363680D02*
X384990Y1363680D01*
X367450Y1364980D02*
X367450Y1357980D01*
X360450Y1357980D01*
X360450Y1364980D01*
X367450Y1364980D01*
X367450Y1360830D02*
X360450Y1360830D01*
X360450Y1363680D02*
X367450Y1363680D01*
X458120Y1322950D02*
X465120Y1322950D01*
X465120Y1315950D01*
X458120Y1315950D01*
X458120Y1322950D01*
X458120Y1318800D02*
X465120Y1318800D01*
X465120Y1321650D02*
X458120Y1321650D01*
X458120Y1305410D02*
X465120Y1305410D01*
X465120Y1298410D01*
X458120Y1298410D01*
X458120Y1305410D01*
X458120Y1301260D02*
X465120Y1301260D01*
X465120Y1304110D02*
X458120Y1304110D01*
D24*
X436220Y1302180D03*
X436220Y1319180D03*
X334620Y1395380D03*
X334620Y1378380D03*
X334620Y1340280D03*
X334620Y1357280D03*
D28*
X413720Y1039380D03*
X432720Y1039380D03*
D35*
X366290Y1059780D03*
X314750Y1059780D03*
X314750Y1027780D03*
X366290Y1027780D03*
X366290Y1161380D03*
X314750Y1161380D03*
X314750Y1129380D03*
X366290Y1129380D03*
X366290Y1262980D03*
X314750Y1262980D03*
X314750Y1230980D03*
X366290Y1230980D03*
X817590Y1059980D03*
X766050Y1059980D03*
X766050Y1027980D03*
X817590Y1027980D03*
X817590Y1263180D03*
X766050Y1263180D03*
X766050Y1231180D03*
X817590Y1231180D03*
D36*
X330520Y881880D03*
X330520Y900880D03*
X351520Y891380D03*
D25*
X349020Y865980D03*
X332020Y865980D03*
D24*
X315120Y933680D03*
X315120Y950680D03*
X332020Y1183480D03*
X349020Y1183480D03*
X332020Y1285080D03*
X349020Y1285080D03*
X783320Y1082080D03*
X800320Y1082080D03*
X783320Y1285280D03*
X800320Y1285280D03*
X332020Y1081880D03*
X349020Y1081880D03*
D37*
X498420Y1026280D03*
X526420Y1026280D03*
D25*
X491220Y891580D03*
X508220Y891580D03*
X571720Y980480D03*
X554720Y980480D03*
D38*
X403520Y891580D03*
X423520Y891580D03*
X443520Y891580D03*
D39*
X380020Y829080D03*
X467020Y829080D03*
X380020Y829080D03*
D24*
X571720Y1094780D03*
X554720Y1094780D03*
D23*
X502920Y1079380D03*
X521920Y1079380D03*
X512420Y1058380D03*
D25*
X559020Y1132880D03*
X542020Y1132880D03*
D24*
X512420Y1192180D03*
X512420Y1175180D03*
X537820Y1175180D03*
X537820Y1192180D03*
D27*
X523920Y1107480D03*
X500920Y1107480D03*
D25*
X563220Y1192180D03*
X563220Y1175180D03*
D24*
X639120Y1166680D03*
X639120Y1149680D03*
X613720Y1149680D03*
X613720Y1166680D03*
D25*
X588320Y1166680D03*
X588320Y1149680D03*
X497620Y708980D03*
X497620Y725980D03*
D24*
X499720Y1242980D03*
X499720Y1225980D03*
X537820Y1242980D03*
X537820Y1225980D03*
D40*
X547980Y885230D03*
X603860Y885230D03*
X547980Y923330D03*
X603860Y923330D03*
X636880Y885230D03*
X692760Y885230D03*
X636880Y923330D03*
X692760Y923330D03*
D35*
X817590Y1161580D03*
X766050Y1161580D03*
X766050Y1129580D03*
X817590Y1129580D03*
D24*
X783320Y1183680D03*
X800320Y1183680D03*
D28*
X350020Y980280D03*
X331020Y980280D03*
X553720Y1056680D03*
X572720Y1056680D03*
X429320Y1010880D03*
X410320Y1010880D03*
D36*
X343220Y932680D03*
X343220Y951680D03*
X364220Y942180D03*
D20*
X473320Y710480D03*
X473320Y729480D03*
D41*
X517370Y974130D03*
X517370Y961430D03*
X517370Y986830D03*
X517370Y999530D03*
X456670Y974130D03*
X456670Y961430D03*
X456670Y986830D03*
X456670Y999530D03*
D42*
X487020Y980480D03*
D25*
X508220Y866180D03*
X491220Y866180D03*
D43*
X495220Y840780D03*
X504220Y840780D03*
D25*
X491220Y916980D03*
X508220Y916980D03*
D44*
G36*
X566274Y662673D02*
X564478Y664469D01*
X569506Y669497D01*
X571302Y667701D01*
X566274Y662673D01*
G37*
G36*
X568968Y659979D02*
X567172Y661775D01*
X572200Y666803D01*
X573996Y665007D01*
X568968Y659979D01*
G37*
G36*
X571842Y657105D02*
X570046Y658901D01*
X575074Y663929D01*
X576870Y662133D01*
X571842Y657105D01*
G37*
G36*
X574715Y654232D02*
X572919Y656028D01*
X577947Y661056D01*
X579743Y659260D01*
X574715Y654232D01*
G37*
G36*
X577409Y651538D02*
X575613Y653334D01*
X580641Y658362D01*
X582437Y656566D01*
X577409Y651538D01*
G37*
G36*
X582437Y643994D02*
X580641Y642198D01*
X575613Y647226D01*
X577409Y649022D01*
X582437Y643994D01*
G37*
G36*
X579743Y641300D02*
X577947Y639504D01*
X572919Y644532D01*
X574715Y646328D01*
X579743Y641300D01*
G37*
G36*
X576870Y638427D02*
X575074Y636631D01*
X570046Y641659D01*
X571842Y643455D01*
X576870Y638427D01*
G37*
G36*
X573996Y635553D02*
X572200Y633757D01*
X567172Y638785D01*
X568968Y640581D01*
X573996Y635553D01*
G37*
G36*
X571302Y632859D02*
X569506Y631063D01*
X564478Y636091D01*
X566274Y637887D01*
X571302Y632859D01*
G37*
G36*
X556934Y631063D02*
X555138Y632859D01*
X560166Y637887D01*
X561962Y636091D01*
X556934Y631063D01*
G37*
G36*
X554240Y633757D02*
X552444Y635553D01*
X557472Y640581D01*
X559268Y638785D01*
X554240Y633757D01*
G37*
G36*
X551367Y636631D02*
X549571Y638427D01*
X554599Y643455D01*
X556395Y641659D01*
X551367Y636631D01*
G37*
G36*
X548493Y639504D02*
X546697Y641300D01*
X551725Y646328D01*
X553521Y644532D01*
X548493Y639504D01*
G37*
G36*
X545799Y642198D02*
X544003Y643994D01*
X549031Y649022D01*
X550827Y647226D01*
X545799Y642198D01*
G37*
G36*
X550827Y653334D02*
X549031Y651538D01*
X544003Y656566D01*
X545799Y658362D01*
X550827Y653334D01*
G37*
G36*
X553521Y656028D02*
X551725Y654232D01*
X546697Y659260D01*
X548493Y661056D01*
X553521Y656028D01*
G37*
G36*
X556395Y658901D02*
X554599Y657105D01*
X549571Y662133D01*
X551367Y663929D01*
X556395Y658901D01*
G37*
G36*
X559268Y661775D02*
X557472Y659979D01*
X552444Y665007D01*
X554240Y666803D01*
X559268Y661775D01*
G37*
G36*
X561962Y664469D02*
X560166Y662673D01*
X555138Y667701D01*
X556934Y669497D01*
X561962Y664469D01*
G37*
D45*
X549000Y1018580D03*
X577440Y1018580D03*
D25*
X578920Y691680D03*
X578920Y708680D03*
D24*
X533120Y703180D03*
X533120Y686180D03*
D25*
X381220Y1336080D03*
X364220Y1336080D03*
D24*
X432020Y1564680D03*
X415020Y1564680D03*
D25*
X464020Y1391380D03*
X464020Y1374380D03*
D46*
X749745Y1316405D02*
X749745Y1306555D01*
X745095Y1306555D01*
X745095Y1316405D01*
X749745Y1316405D01*
X749745Y1310972D02*
X745095Y1310972D01*
X745095Y1315389D02*
X749745Y1315389D01*
X737045Y1316405D02*
X737045Y1306555D01*
X732395Y1306555D01*
X732395Y1316405D01*
X737045Y1316405D01*
X737045Y1310972D02*
X732395Y1310972D01*
X732395Y1315389D02*
X737045Y1315389D01*
X724345Y1316405D02*
X724345Y1306555D01*
X719695Y1306555D01*
X719695Y1316405D01*
X724345Y1316405D01*
X724345Y1310972D02*
X719695Y1310972D01*
X719695Y1315389D02*
X724345Y1315389D01*
X711645Y1316405D02*
X711645Y1306555D01*
X706995Y1306555D01*
X706995Y1316405D01*
X711645Y1316405D01*
X711645Y1310972D02*
X706995Y1310972D01*
X706995Y1315389D02*
X711645Y1315389D01*
X698945Y1316405D02*
X698945Y1306555D01*
X694295Y1306555D01*
X694295Y1316405D01*
X698945Y1316405D01*
X698945Y1310972D02*
X694295Y1310972D01*
X694295Y1315389D02*
X698945Y1315389D01*
X686245Y1316405D02*
X686245Y1306555D01*
X681595Y1306555D01*
X681595Y1316405D01*
X686245Y1316405D01*
X686245Y1310972D02*
X681595Y1310972D01*
X681595Y1315389D02*
X686245Y1315389D01*
X673545Y1316405D02*
X673545Y1306555D01*
X668895Y1306555D01*
X668895Y1316405D01*
X673545Y1316405D01*
X673545Y1310972D02*
X668895Y1310972D01*
X668895Y1315389D02*
X673545Y1315389D01*
X660845Y1316405D02*
X660845Y1306555D01*
X656195Y1306555D01*
X656195Y1316405D01*
X660845Y1316405D01*
X660845Y1310972D02*
X656195Y1310972D01*
X656195Y1315389D02*
X660845Y1315389D01*
X648145Y1316405D02*
X648145Y1306555D01*
X643495Y1306555D01*
X643495Y1316405D01*
X648145Y1316405D01*
X648145Y1310972D02*
X643495Y1310972D01*
X643495Y1315389D02*
X648145Y1315389D01*
X635445Y1316405D02*
X635445Y1306555D01*
X630795Y1306555D01*
X630795Y1316405D01*
X635445Y1316405D01*
X635445Y1310972D02*
X630795Y1310972D01*
X630795Y1315389D02*
X635445Y1315389D01*
X622745Y1316405D02*
X622745Y1306555D01*
X618095Y1306555D01*
X618095Y1316405D01*
X622745Y1316405D01*
X622745Y1310972D02*
X618095Y1310972D01*
X618095Y1315389D02*
X622745Y1315389D01*
X610045Y1316405D02*
X610045Y1306555D01*
X605395Y1306555D01*
X605395Y1316405D01*
X610045Y1316405D01*
X610045Y1310972D02*
X605395Y1310972D01*
X605395Y1315389D02*
X610045Y1315389D01*
X597345Y1316405D02*
X597345Y1306555D01*
X592695Y1306555D01*
X592695Y1316405D01*
X597345Y1316405D01*
X597345Y1310972D02*
X592695Y1310972D01*
X592695Y1315389D02*
X597345Y1315389D01*
X584645Y1316405D02*
X584645Y1306555D01*
X579995Y1306555D01*
X579995Y1316405D01*
X584645Y1316405D01*
X584645Y1310972D02*
X579995Y1310972D01*
X579995Y1315389D02*
X584645Y1315389D01*
X571945Y1316405D02*
X571945Y1306555D01*
X567295Y1306555D01*
X567295Y1316405D01*
X571945Y1316405D01*
X571945Y1310972D02*
X567295Y1310972D01*
X567295Y1315389D02*
X571945Y1315389D01*
X559245Y1316405D02*
X559245Y1306555D01*
X554595Y1306555D01*
X554595Y1316405D01*
X559245Y1316405D01*
X559245Y1310972D02*
X554595Y1310972D01*
X554595Y1315389D02*
X559245Y1315389D01*
X546545Y1316405D02*
X546545Y1306555D01*
X541895Y1306555D01*
X541895Y1316405D01*
X546545Y1316405D01*
X546545Y1310972D02*
X541895Y1310972D01*
X541895Y1315389D02*
X546545Y1315389D01*
X533845Y1316405D02*
X533845Y1306555D01*
X529195Y1306555D01*
X529195Y1316405D01*
X533845Y1316405D01*
X533845Y1310972D02*
X529195Y1310972D01*
X529195Y1315389D02*
X533845Y1315389D01*
X521145Y1316405D02*
X521145Y1306555D01*
X516495Y1306555D01*
X516495Y1316405D01*
X521145Y1316405D01*
X521145Y1310972D02*
X516495Y1310972D01*
X516495Y1315389D02*
X521145Y1315389D01*
X516495Y1482755D02*
X516495Y1492605D01*
X521145Y1492605D01*
X521145Y1482755D01*
X516495Y1482755D01*
X516495Y1487172D02*
X521145Y1487172D01*
X521145Y1491589D02*
X516495Y1491589D01*
X529195Y1492605D02*
X529195Y1482755D01*
X529195Y1492605D02*
X533845Y1492605D01*
X533845Y1482755D01*
X529195Y1482755D01*
X529195Y1487172D02*
X533845Y1487172D01*
X533845Y1491589D02*
X529195Y1491589D01*
X541895Y1492605D02*
X541895Y1482755D01*
X541895Y1492605D02*
X546545Y1492605D01*
X546545Y1482755D01*
X541895Y1482755D01*
X541895Y1487172D02*
X546545Y1487172D01*
X546545Y1491589D02*
X541895Y1491589D01*
X554595Y1492605D02*
X554595Y1482755D01*
X554595Y1492605D02*
X559245Y1492605D01*
X559245Y1482755D01*
X554595Y1482755D01*
X554595Y1487172D02*
X559245Y1487172D01*
X559245Y1491589D02*
X554595Y1491589D01*
X567295Y1492605D02*
X567295Y1482755D01*
X567295Y1492605D02*
X571945Y1492605D01*
X571945Y1482755D01*
X567295Y1482755D01*
X567295Y1487172D02*
X571945Y1487172D01*
X571945Y1491589D02*
X567295Y1491589D01*
X579995Y1492605D02*
X579995Y1482755D01*
X579995Y1492605D02*
X584645Y1492605D01*
X584645Y1482755D01*
X579995Y1482755D01*
X579995Y1487172D02*
X584645Y1487172D01*
X584645Y1491589D02*
X579995Y1491589D01*
X592695Y1492605D02*
X592695Y1482755D01*
X592695Y1492605D02*
X597345Y1492605D01*
X597345Y1482755D01*
X592695Y1482755D01*
X592695Y1487172D02*
X597345Y1487172D01*
X597345Y1491589D02*
X592695Y1491589D01*
X605395Y1492605D02*
X605395Y1482755D01*
X605395Y1492605D02*
X610045Y1492605D01*
X610045Y1482755D01*
X605395Y1482755D01*
X605395Y1487172D02*
X610045Y1487172D01*
X610045Y1491589D02*
X605395Y1491589D01*
X618095Y1492605D02*
X618095Y1482755D01*
X618095Y1492605D02*
X622745Y1492605D01*
X622745Y1482755D01*
X618095Y1482755D01*
X618095Y1487172D02*
X622745Y1487172D01*
X622745Y1491589D02*
X618095Y1491589D01*
X630795Y1492605D02*
X630795Y1482755D01*
X630795Y1492605D02*
X635445Y1492605D01*
X635445Y1482755D01*
X630795Y1482755D01*
X630795Y1487172D02*
X635445Y1487172D01*
X635445Y1491589D02*
X630795Y1491589D01*
X643495Y1492605D02*
X643495Y1482755D01*
X643495Y1492605D02*
X648145Y1492605D01*
X648145Y1482755D01*
X643495Y1482755D01*
X643495Y1487172D02*
X648145Y1487172D01*
X648145Y1491589D02*
X643495Y1491589D01*
X656195Y1492605D02*
X656195Y1482755D01*
X656195Y1492605D02*
X660845Y1492605D01*
X660845Y1482755D01*
X656195Y1482755D01*
X656195Y1487172D02*
X660845Y1487172D01*
X660845Y1491589D02*
X656195Y1491589D01*
X668895Y1492605D02*
X668895Y1482755D01*
X668895Y1492605D02*
X673545Y1492605D01*
X673545Y1482755D01*
X668895Y1482755D01*
X668895Y1487172D02*
X673545Y1487172D01*
X673545Y1491589D02*
X668895Y1491589D01*
X681595Y1492605D02*
X681595Y1482755D01*
X681595Y1492605D02*
X686245Y1492605D01*
X686245Y1482755D01*
X681595Y1482755D01*
X681595Y1487172D02*
X686245Y1487172D01*
X686245Y1491589D02*
X681595Y1491589D01*
X694295Y1492605D02*
X694295Y1482755D01*
X694295Y1492605D02*
X698945Y1492605D01*
X698945Y1482755D01*
X694295Y1482755D01*
X694295Y1487172D02*
X698945Y1487172D01*
X698945Y1491589D02*
X694295Y1491589D01*
X706995Y1492605D02*
X706995Y1482755D01*
X706995Y1492605D02*
X711645Y1492605D01*
X711645Y1482755D01*
X706995Y1482755D01*
X706995Y1487172D02*
X711645Y1487172D01*
X711645Y1491589D02*
X706995Y1491589D01*
X719695Y1492605D02*
X719695Y1482755D01*
X719695Y1492605D02*
X724345Y1492605D01*
X724345Y1482755D01*
X719695Y1482755D01*
X719695Y1487172D02*
X724345Y1487172D01*
X724345Y1491589D02*
X719695Y1491589D01*
X732395Y1492605D02*
X732395Y1482755D01*
X732395Y1492605D02*
X737045Y1492605D01*
X737045Y1482755D01*
X732395Y1482755D01*
X732395Y1487172D02*
X737045Y1487172D01*
X737045Y1491589D02*
X732395Y1491589D01*
X745095Y1492605D02*
X745095Y1482755D01*
X745095Y1492605D02*
X749745Y1492605D01*
X749745Y1482755D01*
X745095Y1482755D01*
X745095Y1487172D02*
X749745Y1487172D01*
X749745Y1491589D02*
X745095Y1491589D01*
D47*
X377620Y1550830D03*
X377620Y1544330D03*
X377620Y1537830D03*
X377620Y1531330D03*
X377620Y1524830D03*
X377620Y1518330D03*
X377620Y1511830D03*
X377620Y1505330D03*
X377620Y1498830D03*
X377620Y1492330D03*
X321620Y1492330D03*
X321620Y1498830D03*
X321620Y1505330D03*
X321620Y1511830D03*
X321620Y1518330D03*
X321620Y1524830D03*
X321620Y1531330D03*
X321620Y1537830D03*
X321620Y1544330D03*
X321620Y1550850D03*
D48*
X372720Y1605060D03*
X372720Y1665060D03*
D49*
X405220Y1598060D03*
X340220Y1598060D03*
X405220Y1630060D03*
X340220Y1630260D03*
X405220Y1665060D03*
X340220Y1665060D03*
D25*
X321920Y1454580D03*
X321920Y1471580D03*
X438620Y1374380D03*
X438620Y1391380D03*
D24*
X368820Y1566680D03*
X351820Y1566680D03*
D25*
X372720Y1471580D03*
X372720Y1454580D03*
X321920Y1433480D03*
X321920Y1416480D03*
X347320Y1433480D03*
X347320Y1416480D03*
D50*
X643850Y1527830D03*
X643850Y1537990D03*
D24*
X668580Y1541060D03*
X668580Y1524060D03*
D51*
X775390Y901270D02*
X790630Y901270D01*
X790630Y875870D02*
X775390Y875870D01*
X775390Y850470D02*
X790630Y850470D01*
D52*
X789520Y962010D03*
X814920Y962010D03*
D25*
X751550Y921200D03*
X768550Y921200D03*
D51*
X783040Y810970D02*
X783040Y795730D01*
X808440Y795730D02*
X808440Y810970D01*
D53*
X327300Y772700D03*
X352700Y772700D03*
X327300Y747300D03*
X352700Y747300D03*
D54*
X340000Y130000D03*
X360000Y130000D03*
X320000Y130000D03*
X380000Y130000D03*
D55*
X296000Y107500D03*
X404000Y107500D03*
D26*
X739250Y866500D03*
X739250Y853500D03*
X720750Y860000D03*
M02*
