G04 EAGLE Gerber RS-274X export*
G75*
%MOMM*%
%FSLAX34Y34*%
%LPD*%
%INSolderpaste Bottom*%
%IPPOS*%
%AMOC8*
5,1,8,0,0,1.08239X$1,22.5*%
G01*
%ADD10R,0.560000X0.260000*%
%ADD11R,1.000000X1.000000*%
%ADD12R,0.300000X0.300000*%
%ADD13R,0.260000X0.560000*%
%ADD14R,0.360000X2.210000*%
%ADD15R,1.995000X1.520000*%
%ADD16R,1.180000X1.805000*%
%ADD17R,1.240000X1.040000*%
%ADD18R,1.600000X0.800000*%
%ADD19R,0.704000X0.504000*%
%ADD20R,0.640000X0.740000*%
%ADD21R,0.900000X0.800000*%
%ADD22R,0.800000X0.900000*%
%ADD23R,0.560000X0.560000*%
%ADD24R,0.504000X0.704000*%
%ADD25R,1.040000X1.240000*%
%ADD26R,2.160000X2.460000*%
%ADD27R,0.240000X1.140000*%
%ADD28R,1.760000X0.960000*%
%ADD29R,1.200000X1.700000*%
%ADD30R,3.400000X1.600000*%
%ADD31C,0.104000*%
%ADD32R,1.451000X0.800000*%
%ADD33R,0.740000X0.640000*%
%ADD34R,0.800000X1.600000*%
%ADD35R,0.800000X4.300000*%
%ADD36R,1.500000X3.400000*%
%ADD37R,1.371600X0.609600*%
%ADD38R,1.118000X0.608000*%
%ADD39R,2.400000X3.400000*%
%ADD40R,0.203200X0.660400*%
%ADD41R,1.280000X1.483000*%
%ADD42C,0.282719*%
%ADD43R,1.540000X0.240000*%
%ADD44R,1.200000X1.200000*%
%ADD45R,0.800000X5.300000*%
%ADD46R,1.280000X2.680000*%


D10*
X692620Y1549680D03*
D11*
X715620Y1564680D03*
D12*
X694620Y1543680D03*
D10*
X692620Y1554680D03*
X692620Y1559680D03*
X692620Y1564680D03*
X692620Y1569680D03*
X692620Y1574680D03*
X692620Y1579680D03*
D13*
X730620Y1541680D03*
X725620Y1541680D03*
X720620Y1541680D03*
X715620Y1541680D03*
X710620Y1541680D03*
X705620Y1541680D03*
X700620Y1541680D03*
X700620Y1587680D03*
X705620Y1587680D03*
X710620Y1587680D03*
X715620Y1587680D03*
X720620Y1587680D03*
X725620Y1587680D03*
X730620Y1587680D03*
D10*
X738620Y1579680D03*
X738620Y1574680D03*
X738620Y1569680D03*
X738620Y1564680D03*
X738620Y1559680D03*
X738620Y1554680D03*
X738620Y1549680D03*
D14*
X723920Y1642080D03*
X730420Y1642080D03*
X736920Y1642080D03*
X743420Y1642080D03*
X749920Y1642080D03*
D15*
X707420Y1673080D03*
D16*
X711920Y1650080D03*
X761920Y1650080D03*
D15*
X766420Y1673080D03*
D17*
X804520Y1574180D03*
X804520Y1555180D03*
D18*
X766420Y1616780D03*
X766420Y1588780D03*
D19*
X804520Y1603980D03*
X804520Y1626980D03*
D20*
X629920Y990480D03*
X648920Y990480D03*
X639420Y969480D03*
X648920Y1021280D03*
X629920Y1021280D03*
X639420Y1042280D03*
D21*
X601320Y1014380D03*
X601320Y997380D03*
X677520Y997380D03*
X677520Y1014380D03*
D22*
X804520Y1522380D03*
X804520Y1505380D03*
X766420Y1535080D03*
X766420Y1518080D03*
D21*
X766420Y1556180D03*
X766420Y1573180D03*
D23*
X483570Y1431480D03*
X483570Y1418480D03*
X465070Y1424980D03*
D19*
X436220Y1538080D03*
X436220Y1515080D03*
X461620Y1476980D03*
X461620Y1499980D03*
D24*
X460420Y1450380D03*
X437420Y1450380D03*
D21*
X414720Y1070180D03*
X431720Y1070180D03*
D25*
X413720Y1095580D03*
X432720Y1095580D03*
D17*
X474020Y1092380D03*
X474020Y1073380D03*
D22*
X474020Y1053280D03*
X474020Y1036280D03*
D21*
X470920Y1018880D03*
X453920Y1018880D03*
D17*
X474020Y1143180D03*
X474020Y1124180D03*
X474020Y1193980D03*
X474020Y1174980D03*
D26*
X642620Y1590880D03*
X489020Y1590880D03*
D27*
X508320Y1571080D03*
X513320Y1571080D03*
X518320Y1571080D03*
X523320Y1571080D03*
X528320Y1571080D03*
X533320Y1571080D03*
X538320Y1571080D03*
X543320Y1571080D03*
X548320Y1571080D03*
X553320Y1571080D03*
X558320Y1571080D03*
X563320Y1571080D03*
X568320Y1571080D03*
X573320Y1571080D03*
X578320Y1571080D03*
X583320Y1571080D03*
X588320Y1571080D03*
X593320Y1571080D03*
X598320Y1571080D03*
X603320Y1571080D03*
X608320Y1571080D03*
X613320Y1571080D03*
X618320Y1571080D03*
X623320Y1571080D03*
D22*
X461620Y1518080D03*
X461620Y1535080D03*
X487020Y1479980D03*
X487020Y1496980D03*
X410820Y1467280D03*
X410820Y1484280D03*
D21*
X563220Y1535080D03*
X563220Y1518080D03*
D22*
X537820Y1518080D03*
X537820Y1535080D03*
X512420Y1518080D03*
X512420Y1535080D03*
X487020Y1518080D03*
X487020Y1535080D03*
X410820Y1518080D03*
X410820Y1535080D03*
X436220Y1479980D03*
X436220Y1496980D03*
X489420Y1391380D03*
X489420Y1374380D03*
D28*
X411920Y1415580D03*
X411920Y1447580D03*
D17*
X413220Y1392380D03*
X413220Y1373380D03*
D29*
X446220Y1127580D03*
X423220Y1127580D03*
X400220Y1127580D03*
D30*
X423220Y1190580D03*
D22*
X605520Y955080D03*
X622520Y955080D03*
X702920Y1213280D03*
X702920Y1230280D03*
X690220Y1213280D03*
X690220Y1230280D03*
X609820Y1043980D03*
X592820Y1043980D03*
D31*
X384970Y1383400D02*
X384970Y1390360D01*
X384970Y1383400D02*
X378010Y1383400D01*
X378010Y1390360D01*
X384970Y1390360D01*
X384970Y1384388D02*
X378010Y1384388D01*
X378010Y1385376D02*
X384970Y1385376D01*
X384970Y1386364D02*
X378010Y1386364D01*
X378010Y1387352D02*
X384970Y1387352D01*
X384970Y1388340D02*
X378010Y1388340D01*
X378010Y1389328D02*
X384970Y1389328D01*
X384970Y1390316D02*
X378010Y1390316D01*
X367430Y1390360D02*
X367430Y1383400D01*
X360470Y1383400D01*
X360470Y1390360D01*
X367430Y1390360D01*
X367430Y1384388D02*
X360470Y1384388D01*
X360470Y1385376D02*
X367430Y1385376D01*
X367430Y1386364D02*
X360470Y1386364D01*
X360470Y1387352D02*
X367430Y1387352D01*
X367430Y1388340D02*
X360470Y1388340D01*
X360470Y1389328D02*
X367430Y1389328D01*
X367430Y1390316D02*
X360470Y1390316D01*
X384970Y1364960D02*
X384970Y1358000D01*
X378010Y1358000D01*
X378010Y1364960D01*
X384970Y1364960D01*
X384970Y1358988D02*
X378010Y1358988D01*
X378010Y1359976D02*
X384970Y1359976D01*
X384970Y1360964D02*
X378010Y1360964D01*
X378010Y1361952D02*
X384970Y1361952D01*
X384970Y1362940D02*
X378010Y1362940D01*
X378010Y1363928D02*
X384970Y1363928D01*
X384970Y1364916D02*
X378010Y1364916D01*
X367430Y1364960D02*
X367430Y1358000D01*
X360470Y1358000D01*
X360470Y1364960D01*
X367430Y1364960D01*
X367430Y1358988D02*
X360470Y1358988D01*
X360470Y1359976D02*
X367430Y1359976D01*
X367430Y1360964D02*
X360470Y1360964D01*
X360470Y1361952D02*
X367430Y1361952D01*
X367430Y1362940D02*
X360470Y1362940D01*
X360470Y1363928D02*
X367430Y1363928D01*
X367430Y1364916D02*
X360470Y1364916D01*
X458140Y1322930D02*
X465100Y1322930D01*
X465100Y1315970D01*
X458140Y1315970D01*
X458140Y1322930D01*
X458140Y1316958D02*
X465100Y1316958D01*
X465100Y1317946D02*
X458140Y1317946D01*
X458140Y1318934D02*
X465100Y1318934D01*
X465100Y1319922D02*
X458140Y1319922D01*
X458140Y1320910D02*
X465100Y1320910D01*
X465100Y1321898D02*
X458140Y1321898D01*
X458140Y1322886D02*
X465100Y1322886D01*
X465100Y1305390D02*
X458140Y1305390D01*
X465100Y1305390D02*
X465100Y1298430D01*
X458140Y1298430D01*
X458140Y1305390D01*
X458140Y1299418D02*
X465100Y1299418D01*
X465100Y1300406D02*
X458140Y1300406D01*
X458140Y1301394D02*
X465100Y1301394D01*
X465100Y1302382D02*
X458140Y1302382D01*
X458140Y1303370D02*
X465100Y1303370D01*
X465100Y1304358D02*
X458140Y1304358D01*
X458140Y1305346D02*
X465100Y1305346D01*
D21*
X436220Y1302180D03*
X436220Y1319180D03*
X334620Y1395380D03*
X334620Y1378380D03*
X334620Y1340280D03*
X334620Y1357280D03*
D25*
X413720Y1039380D03*
X432720Y1039380D03*
D32*
X366290Y1059780D03*
X314750Y1059780D03*
X314750Y1027780D03*
X366290Y1027780D03*
X366290Y1161380D03*
X314750Y1161380D03*
X314750Y1129380D03*
X366290Y1129380D03*
X366290Y1262980D03*
X314750Y1262980D03*
X314750Y1230980D03*
X366290Y1230980D03*
X817590Y1059980D03*
X766050Y1059980D03*
X766050Y1027980D03*
X817590Y1027980D03*
X817590Y1263180D03*
X766050Y1263180D03*
X766050Y1231180D03*
X817590Y1231180D03*
D33*
X330520Y881880D03*
X330520Y900880D03*
X351520Y891380D03*
D22*
X349020Y865980D03*
X332020Y865980D03*
D21*
X315120Y933680D03*
X315120Y950680D03*
X332020Y1183480D03*
X349020Y1183480D03*
X332020Y1285080D03*
X349020Y1285080D03*
X783320Y1082080D03*
X800320Y1082080D03*
X783320Y1285280D03*
X800320Y1285280D03*
X332020Y1081880D03*
X349020Y1081880D03*
D34*
X498420Y1026280D03*
X526420Y1026280D03*
D22*
X491220Y891580D03*
X508220Y891580D03*
X571720Y980480D03*
X554720Y980480D03*
D35*
X403520Y891580D03*
X423520Y891580D03*
X443520Y891580D03*
D36*
X380020Y829080D03*
X467020Y829080D03*
D21*
X571720Y1094780D03*
X554720Y1094780D03*
D20*
X502920Y1079380D03*
X521920Y1079380D03*
X512420Y1058380D03*
D22*
X559020Y1132880D03*
X542020Y1132880D03*
D21*
X512420Y1192180D03*
X512420Y1175180D03*
X537820Y1175180D03*
X537820Y1192180D03*
D24*
X523920Y1107480D03*
X500920Y1107480D03*
D22*
X563220Y1192180D03*
X563220Y1175180D03*
D21*
X639120Y1166680D03*
X639120Y1149680D03*
X613720Y1149680D03*
X613720Y1166680D03*
D22*
X588320Y1166680D03*
X588320Y1149680D03*
X497620Y708980D03*
X497620Y725980D03*
D21*
X499720Y1242980D03*
X499720Y1225980D03*
X537820Y1242980D03*
X537820Y1225980D03*
D37*
X547980Y885230D03*
X603860Y885230D03*
X547980Y923330D03*
X603860Y923330D03*
X636880Y885230D03*
X692760Y885230D03*
X636880Y923330D03*
X692760Y923330D03*
D32*
X817590Y1161580D03*
X766050Y1161580D03*
X766050Y1129580D03*
X817590Y1129580D03*
D21*
X783320Y1183680D03*
X800320Y1183680D03*
D25*
X350020Y980280D03*
X331020Y980280D03*
X553720Y1056680D03*
X572720Y1056680D03*
X429320Y1010880D03*
X410320Y1010880D03*
D33*
X343220Y932680D03*
X343220Y951680D03*
X364220Y942180D03*
D17*
X473320Y710480D03*
X473320Y729480D03*
D38*
X517370Y974130D03*
X517370Y961430D03*
X517370Y986830D03*
X517370Y999530D03*
X456670Y974130D03*
X456670Y961430D03*
X456670Y986830D03*
X456670Y999530D03*
D39*
X487020Y980480D03*
D22*
X508220Y866180D03*
X491220Y866180D03*
X491220Y916980D03*
X508220Y916980D03*
D40*
G36*
X566274Y663032D02*
X564837Y664469D01*
X569506Y669138D01*
X570943Y667701D01*
X566274Y663032D01*
G37*
G36*
X568968Y660338D02*
X567531Y661775D01*
X572200Y666444D01*
X573637Y665007D01*
X568968Y660338D01*
G37*
G36*
X571842Y657464D02*
X570405Y658901D01*
X575074Y663570D01*
X576511Y662133D01*
X571842Y657464D01*
G37*
G36*
X574715Y654591D02*
X573278Y656028D01*
X577947Y660697D01*
X579384Y659260D01*
X574715Y654591D01*
G37*
G36*
X577409Y651897D02*
X575972Y653334D01*
X580641Y658003D01*
X582078Y656566D01*
X577409Y651897D01*
G37*
G36*
X582078Y643994D02*
X580641Y642557D01*
X575972Y647226D01*
X577409Y648663D01*
X582078Y643994D01*
G37*
G36*
X579384Y641300D02*
X577947Y639863D01*
X573278Y644532D01*
X574715Y645969D01*
X579384Y641300D01*
G37*
G36*
X576511Y638427D02*
X575074Y636990D01*
X570405Y641659D01*
X571842Y643096D01*
X576511Y638427D01*
G37*
G36*
X573637Y635553D02*
X572200Y634116D01*
X567531Y638785D01*
X568968Y640222D01*
X573637Y635553D01*
G37*
G36*
X570943Y632859D02*
X569506Y631422D01*
X564837Y636091D01*
X566274Y637528D01*
X570943Y632859D01*
G37*
G36*
X556934Y631422D02*
X555497Y632859D01*
X560166Y637528D01*
X561603Y636091D01*
X556934Y631422D01*
G37*
G36*
X554240Y634116D02*
X552803Y635553D01*
X557472Y640222D01*
X558909Y638785D01*
X554240Y634116D01*
G37*
G36*
X551367Y636990D02*
X549930Y638427D01*
X554599Y643096D01*
X556036Y641659D01*
X551367Y636990D01*
G37*
G36*
X548493Y639863D02*
X547056Y641300D01*
X551725Y645969D01*
X553162Y644532D01*
X548493Y639863D01*
G37*
G36*
X545799Y642557D02*
X544362Y643994D01*
X549031Y648663D01*
X550468Y647226D01*
X545799Y642557D01*
G37*
G36*
X550468Y653334D02*
X549031Y651897D01*
X544362Y656566D01*
X545799Y658003D01*
X550468Y653334D01*
G37*
G36*
X553162Y656028D02*
X551725Y654591D01*
X547056Y659260D01*
X548493Y660697D01*
X553162Y656028D01*
G37*
G36*
X556036Y658901D02*
X554599Y657464D01*
X549930Y662133D01*
X551367Y663570D01*
X556036Y658901D01*
G37*
G36*
X558909Y661775D02*
X557472Y660338D01*
X552803Y665007D01*
X554240Y666444D01*
X558909Y661775D01*
G37*
G36*
X561603Y664469D02*
X560166Y663032D01*
X555497Y667701D01*
X556934Y669138D01*
X561603Y664469D01*
G37*
D41*
X549000Y1018580D03*
X577440Y1018580D03*
D22*
X578920Y691680D03*
X578920Y708680D03*
D21*
X533120Y703180D03*
X533120Y686180D03*
D22*
X381220Y1336080D03*
X364220Y1336080D03*
D21*
X432020Y1564680D03*
X415020Y1564680D03*
D22*
X464020Y1391380D03*
X464020Y1374380D03*
D42*
X749727Y1316387D02*
X749727Y1306573D01*
X745113Y1306573D01*
X745113Y1316387D01*
X749727Y1316387D01*
X749727Y1309259D02*
X745113Y1309259D01*
X745113Y1311945D02*
X749727Y1311945D01*
X749727Y1314631D02*
X745113Y1314631D01*
X737027Y1316387D02*
X737027Y1306573D01*
X732413Y1306573D01*
X732413Y1316387D01*
X737027Y1316387D01*
X737027Y1309259D02*
X732413Y1309259D01*
X732413Y1311945D02*
X737027Y1311945D01*
X737027Y1314631D02*
X732413Y1314631D01*
X724327Y1316387D02*
X724327Y1306573D01*
X719713Y1306573D01*
X719713Y1316387D01*
X724327Y1316387D01*
X724327Y1309259D02*
X719713Y1309259D01*
X719713Y1311945D02*
X724327Y1311945D01*
X724327Y1314631D02*
X719713Y1314631D01*
X711627Y1316387D02*
X711627Y1306573D01*
X707013Y1306573D01*
X707013Y1316387D01*
X711627Y1316387D01*
X711627Y1309259D02*
X707013Y1309259D01*
X707013Y1311945D02*
X711627Y1311945D01*
X711627Y1314631D02*
X707013Y1314631D01*
X698927Y1316387D02*
X698927Y1306573D01*
X694313Y1306573D01*
X694313Y1316387D01*
X698927Y1316387D01*
X698927Y1309259D02*
X694313Y1309259D01*
X694313Y1311945D02*
X698927Y1311945D01*
X698927Y1314631D02*
X694313Y1314631D01*
X686227Y1316387D02*
X686227Y1306573D01*
X681613Y1306573D01*
X681613Y1316387D01*
X686227Y1316387D01*
X686227Y1309259D02*
X681613Y1309259D01*
X681613Y1311945D02*
X686227Y1311945D01*
X686227Y1314631D02*
X681613Y1314631D01*
X673527Y1316387D02*
X673527Y1306573D01*
X668913Y1306573D01*
X668913Y1316387D01*
X673527Y1316387D01*
X673527Y1309259D02*
X668913Y1309259D01*
X668913Y1311945D02*
X673527Y1311945D01*
X673527Y1314631D02*
X668913Y1314631D01*
X660827Y1316387D02*
X660827Y1306573D01*
X656213Y1306573D01*
X656213Y1316387D01*
X660827Y1316387D01*
X660827Y1309259D02*
X656213Y1309259D01*
X656213Y1311945D02*
X660827Y1311945D01*
X660827Y1314631D02*
X656213Y1314631D01*
X648127Y1316387D02*
X648127Y1306573D01*
X643513Y1306573D01*
X643513Y1316387D01*
X648127Y1316387D01*
X648127Y1309259D02*
X643513Y1309259D01*
X643513Y1311945D02*
X648127Y1311945D01*
X648127Y1314631D02*
X643513Y1314631D01*
X635427Y1316387D02*
X635427Y1306573D01*
X630813Y1306573D01*
X630813Y1316387D01*
X635427Y1316387D01*
X635427Y1309259D02*
X630813Y1309259D01*
X630813Y1311945D02*
X635427Y1311945D01*
X635427Y1314631D02*
X630813Y1314631D01*
X622727Y1316387D02*
X622727Y1306573D01*
X618113Y1306573D01*
X618113Y1316387D01*
X622727Y1316387D01*
X622727Y1309259D02*
X618113Y1309259D01*
X618113Y1311945D02*
X622727Y1311945D01*
X622727Y1314631D02*
X618113Y1314631D01*
X610027Y1316387D02*
X610027Y1306573D01*
X605413Y1306573D01*
X605413Y1316387D01*
X610027Y1316387D01*
X610027Y1309259D02*
X605413Y1309259D01*
X605413Y1311945D02*
X610027Y1311945D01*
X610027Y1314631D02*
X605413Y1314631D01*
X597327Y1316387D02*
X597327Y1306573D01*
X592713Y1306573D01*
X592713Y1316387D01*
X597327Y1316387D01*
X597327Y1309259D02*
X592713Y1309259D01*
X592713Y1311945D02*
X597327Y1311945D01*
X597327Y1314631D02*
X592713Y1314631D01*
X584627Y1316387D02*
X584627Y1306573D01*
X580013Y1306573D01*
X580013Y1316387D01*
X584627Y1316387D01*
X584627Y1309259D02*
X580013Y1309259D01*
X580013Y1311945D02*
X584627Y1311945D01*
X584627Y1314631D02*
X580013Y1314631D01*
X571927Y1316387D02*
X571927Y1306573D01*
X567313Y1306573D01*
X567313Y1316387D01*
X571927Y1316387D01*
X571927Y1309259D02*
X567313Y1309259D01*
X567313Y1311945D02*
X571927Y1311945D01*
X571927Y1314631D02*
X567313Y1314631D01*
X559227Y1316387D02*
X559227Y1306573D01*
X554613Y1306573D01*
X554613Y1316387D01*
X559227Y1316387D01*
X559227Y1309259D02*
X554613Y1309259D01*
X554613Y1311945D02*
X559227Y1311945D01*
X559227Y1314631D02*
X554613Y1314631D01*
X546527Y1316387D02*
X546527Y1306573D01*
X541913Y1306573D01*
X541913Y1316387D01*
X546527Y1316387D01*
X546527Y1309259D02*
X541913Y1309259D01*
X541913Y1311945D02*
X546527Y1311945D01*
X546527Y1314631D02*
X541913Y1314631D01*
X533827Y1316387D02*
X533827Y1306573D01*
X529213Y1306573D01*
X529213Y1316387D01*
X533827Y1316387D01*
X533827Y1309259D02*
X529213Y1309259D01*
X529213Y1311945D02*
X533827Y1311945D01*
X533827Y1314631D02*
X529213Y1314631D01*
X521127Y1316387D02*
X521127Y1306573D01*
X516513Y1306573D01*
X516513Y1316387D01*
X521127Y1316387D01*
X521127Y1309259D02*
X516513Y1309259D01*
X516513Y1311945D02*
X521127Y1311945D01*
X521127Y1314631D02*
X516513Y1314631D01*
X516513Y1482773D02*
X516513Y1492587D01*
X521127Y1492587D01*
X521127Y1482773D01*
X516513Y1482773D01*
X516513Y1485459D02*
X521127Y1485459D01*
X521127Y1488145D02*
X516513Y1488145D01*
X516513Y1490831D02*
X521127Y1490831D01*
X529213Y1492587D02*
X529213Y1482773D01*
X529213Y1492587D02*
X533827Y1492587D01*
X533827Y1482773D01*
X529213Y1482773D01*
X529213Y1485459D02*
X533827Y1485459D01*
X533827Y1488145D02*
X529213Y1488145D01*
X529213Y1490831D02*
X533827Y1490831D01*
X541913Y1492587D02*
X541913Y1482773D01*
X541913Y1492587D02*
X546527Y1492587D01*
X546527Y1482773D01*
X541913Y1482773D01*
X541913Y1485459D02*
X546527Y1485459D01*
X546527Y1488145D02*
X541913Y1488145D01*
X541913Y1490831D02*
X546527Y1490831D01*
X554613Y1492587D02*
X554613Y1482773D01*
X554613Y1492587D02*
X559227Y1492587D01*
X559227Y1482773D01*
X554613Y1482773D01*
X554613Y1485459D02*
X559227Y1485459D01*
X559227Y1488145D02*
X554613Y1488145D01*
X554613Y1490831D02*
X559227Y1490831D01*
X567313Y1492587D02*
X567313Y1482773D01*
X567313Y1492587D02*
X571927Y1492587D01*
X571927Y1482773D01*
X567313Y1482773D01*
X567313Y1485459D02*
X571927Y1485459D01*
X571927Y1488145D02*
X567313Y1488145D01*
X567313Y1490831D02*
X571927Y1490831D01*
X580013Y1492587D02*
X580013Y1482773D01*
X580013Y1492587D02*
X584627Y1492587D01*
X584627Y1482773D01*
X580013Y1482773D01*
X580013Y1485459D02*
X584627Y1485459D01*
X584627Y1488145D02*
X580013Y1488145D01*
X580013Y1490831D02*
X584627Y1490831D01*
X592713Y1492587D02*
X592713Y1482773D01*
X592713Y1492587D02*
X597327Y1492587D01*
X597327Y1482773D01*
X592713Y1482773D01*
X592713Y1485459D02*
X597327Y1485459D01*
X597327Y1488145D02*
X592713Y1488145D01*
X592713Y1490831D02*
X597327Y1490831D01*
X605413Y1492587D02*
X605413Y1482773D01*
X605413Y1492587D02*
X610027Y1492587D01*
X610027Y1482773D01*
X605413Y1482773D01*
X605413Y1485459D02*
X610027Y1485459D01*
X610027Y1488145D02*
X605413Y1488145D01*
X605413Y1490831D02*
X610027Y1490831D01*
X618113Y1492587D02*
X618113Y1482773D01*
X618113Y1492587D02*
X622727Y1492587D01*
X622727Y1482773D01*
X618113Y1482773D01*
X618113Y1485459D02*
X622727Y1485459D01*
X622727Y1488145D02*
X618113Y1488145D01*
X618113Y1490831D02*
X622727Y1490831D01*
X630813Y1492587D02*
X630813Y1482773D01*
X630813Y1492587D02*
X635427Y1492587D01*
X635427Y1482773D01*
X630813Y1482773D01*
X630813Y1485459D02*
X635427Y1485459D01*
X635427Y1488145D02*
X630813Y1488145D01*
X630813Y1490831D02*
X635427Y1490831D01*
X643513Y1492587D02*
X643513Y1482773D01*
X643513Y1492587D02*
X648127Y1492587D01*
X648127Y1482773D01*
X643513Y1482773D01*
X643513Y1485459D02*
X648127Y1485459D01*
X648127Y1488145D02*
X643513Y1488145D01*
X643513Y1490831D02*
X648127Y1490831D01*
X656213Y1492587D02*
X656213Y1482773D01*
X656213Y1492587D02*
X660827Y1492587D01*
X660827Y1482773D01*
X656213Y1482773D01*
X656213Y1485459D02*
X660827Y1485459D01*
X660827Y1488145D02*
X656213Y1488145D01*
X656213Y1490831D02*
X660827Y1490831D01*
X668913Y1492587D02*
X668913Y1482773D01*
X668913Y1492587D02*
X673527Y1492587D01*
X673527Y1482773D01*
X668913Y1482773D01*
X668913Y1485459D02*
X673527Y1485459D01*
X673527Y1488145D02*
X668913Y1488145D01*
X668913Y1490831D02*
X673527Y1490831D01*
X681613Y1492587D02*
X681613Y1482773D01*
X681613Y1492587D02*
X686227Y1492587D01*
X686227Y1482773D01*
X681613Y1482773D01*
X681613Y1485459D02*
X686227Y1485459D01*
X686227Y1488145D02*
X681613Y1488145D01*
X681613Y1490831D02*
X686227Y1490831D01*
X694313Y1492587D02*
X694313Y1482773D01*
X694313Y1492587D02*
X698927Y1492587D01*
X698927Y1482773D01*
X694313Y1482773D01*
X694313Y1485459D02*
X698927Y1485459D01*
X698927Y1488145D02*
X694313Y1488145D01*
X694313Y1490831D02*
X698927Y1490831D01*
X707013Y1492587D02*
X707013Y1482773D01*
X707013Y1492587D02*
X711627Y1492587D01*
X711627Y1482773D01*
X707013Y1482773D01*
X707013Y1485459D02*
X711627Y1485459D01*
X711627Y1488145D02*
X707013Y1488145D01*
X707013Y1490831D02*
X711627Y1490831D01*
X719713Y1492587D02*
X719713Y1482773D01*
X719713Y1492587D02*
X724327Y1492587D01*
X724327Y1482773D01*
X719713Y1482773D01*
X719713Y1485459D02*
X724327Y1485459D01*
X724327Y1488145D02*
X719713Y1488145D01*
X719713Y1490831D02*
X724327Y1490831D01*
X732413Y1492587D02*
X732413Y1482773D01*
X732413Y1492587D02*
X737027Y1492587D01*
X737027Y1482773D01*
X732413Y1482773D01*
X732413Y1485459D02*
X737027Y1485459D01*
X737027Y1488145D02*
X732413Y1488145D01*
X732413Y1490831D02*
X737027Y1490831D01*
X745113Y1492587D02*
X745113Y1482773D01*
X745113Y1492587D02*
X749727Y1492587D01*
X749727Y1482773D01*
X745113Y1482773D01*
X745113Y1485459D02*
X749727Y1485459D01*
X749727Y1488145D02*
X745113Y1488145D01*
X745113Y1490831D02*
X749727Y1490831D01*
D43*
X377620Y1550830D03*
X377620Y1544330D03*
X377620Y1537830D03*
X377620Y1531330D03*
X377620Y1524830D03*
X377620Y1518330D03*
X377620Y1511830D03*
X377620Y1505330D03*
X377620Y1498830D03*
X377620Y1492330D03*
X321620Y1492330D03*
X321620Y1498830D03*
X321620Y1505330D03*
X321620Y1511830D03*
X321620Y1518330D03*
X321620Y1524830D03*
X321620Y1531330D03*
X321620Y1537830D03*
X321620Y1544330D03*
X321620Y1550850D03*
D44*
X405220Y1598060D03*
X340220Y1598060D03*
X405220Y1630060D03*
X340220Y1630260D03*
X405220Y1665060D03*
X340220Y1665060D03*
D22*
X321920Y1454580D03*
X321920Y1471580D03*
X438620Y1374380D03*
X438620Y1391380D03*
D21*
X368820Y1566680D03*
X351820Y1566680D03*
D22*
X372720Y1471580D03*
X372720Y1454580D03*
X321920Y1433480D03*
X321920Y1416480D03*
X347320Y1433480D03*
X347320Y1416480D03*
D21*
X668580Y1541060D03*
X668580Y1524060D03*
D22*
X751550Y921200D03*
X768550Y921200D03*
D45*
X340000Y130000D03*
X360000Y130000D03*
X320000Y130000D03*
X380000Y130000D03*
D46*
X296000Y107500D03*
X404000Y107500D03*
D23*
X739250Y866500D03*
X739250Y853500D03*
X720750Y860000D03*
M02*
